<?xml version="1.0" encoding="utf-8" standalone="no"?>
<!DOCTYPE svg PUBLIC "-//W3C//DTD SVG 1.1//EN"
  "http://www.w3.org/Graphics/SVG/1.1/DTD/svg11.dtd">
<svg xmlns:xlink="http://www.w3.org/1999/xlink" width="246.819113pt" height="207.047422pt" viewBox="0 0 246.819113 207.047422" xmlns="http://www.w3.org/2000/svg" version="1.1">
 <metadata>
  <rdf:RDF xmlns:dc="http://purl.org/dc/elements/1.1/" xmlns:cc="http://creativecommons.org/ns#" xmlns:rdf="http://www.w3.org/1999/02/22-rdf-syntax-ns#">
   <cc:Work>
    <dc:type rdf:resource="http://purl.org/dc/dcmitype/StillImage"/>
    <dc:date>2026-06-04T22:33:22.050258</dc:date>
    <dc:format>image/svg+xml</dc:format>
    <dc:creator>
     <cc:Agent>
      <dc:title>Matplotlib v3.10.0, https://matplotlib.org/</dc:title>
     </cc:Agent>
    </dc:creator>
   </cc:Work>
  </rdf:RDF>
 </metadata>
 <defs>
  <style type="text/css">*{stroke-linejoin: round; stroke-linecap: butt}</style>
 </defs>
 <g id="figure_1">
  <g id="patch_1">
   <path d="M -0 207.047422 
L 246.819113 207.047422 
L 246.819113 0 
L -0 0 
z
" style="fill: #ffffff"/>
  </g>
  <g id="axes_1">
   <g id="patch_2">
    <path d="M 39.148906 172.878516 
L 237.238906 172.878516 
L 237.238906 20.418516 
L 39.148906 20.418516 
z
" style="fill: #ffffff"/>
   </g>
   <g id="matplotlib.axis_1">
    <g id="xtick_1">
     <g id="line2d_1">
      <defs>
       <path id="m2461f2acb0" d="M 0 0 
L 0 3.5 
" style="stroke: #000000; stroke-width: 0.8"/>
      </defs>
      <g>
       <use xlink:href="#m2461f2acb0" x="52.145179" y="172.878516" style="stroke: #000000; stroke-width: 0.8"/>
      </g>
     </g>
     <g id="text_1">
      <text style="font-size: 8px; font-family: 'DejaVu Sans', 'Arial', 'Helvetica', sans-serif; text-anchor: middle" x="52.145179" y="185.957266" transform="rotate(-0 52.145179 185.957266)">2</text>
     </g>
    </g>
    <g id="xtick_2">
     <g id="line2d_2">
      <g>
       <use xlink:href="#m2461f2acb0" x="82.542502" y="172.878516" style="stroke: #000000; stroke-width: 0.8"/>
      </g>
     </g>
     <g id="text_2">
      <text style="font-size: 8px; font-family: 'DejaVu Sans', 'Arial', 'Helvetica', sans-serif; text-anchor: middle" x="82.542502" y="185.957266" transform="rotate(-0 82.542502 185.957266)">4</text>
     </g>
    </g>
    <g id="xtick_3">
     <g id="line2d_3">
      <g>
       <use xlink:href="#m2461f2acb0" x="112.939824" y="172.878516" style="stroke: #000000; stroke-width: 0.8"/>
      </g>
     </g>
     <g id="text_3">
      <text style="font-size: 8px; font-family: 'DejaVu Sans', 'Arial', 'Helvetica', sans-serif; text-anchor: middle" x="112.939824" y="185.957266" transform="rotate(-0 112.939824 185.957266)">6</text>
     </g>
    </g>
    <g id="xtick_4">
     <g id="line2d_4">
      <g>
       <use xlink:href="#m2461f2acb0" x="143.337146" y="172.878516" style="stroke: #000000; stroke-width: 0.8"/>
      </g>
     </g>
     <g id="text_4">
      <text style="font-size: 8px; font-family: 'DejaVu Sans', 'Arial', 'Helvetica', sans-serif; text-anchor: middle" x="143.337146" y="185.957266" transform="rotate(-0 143.337146 185.957266)">8</text>
     </g>
    </g>
    <g id="xtick_5">
     <g id="line2d_5">
      <g>
       <use xlink:href="#m2461f2acb0" x="173.734468" y="172.878516" style="stroke: #000000; stroke-width: 0.8"/>
      </g>
     </g>
     <g id="text_5">
      <text style="font-size: 8px; font-family: 'DejaVu Sans', 'Arial', 'Helvetica', sans-serif; text-anchor: middle" x="173.734468" y="185.957266" transform="rotate(-0 173.734468 185.957266)">10</text>
     </g>
    </g>
    <g id="xtick_6">
     <g id="line2d_6">
      <g>
       <use xlink:href="#m2461f2acb0" x="204.131791" y="172.878516" style="stroke: #000000; stroke-width: 0.8"/>
      </g>
     </g>
     <g id="text_6">
      <text style="font-size: 8px; font-family: 'DejaVu Sans', 'Arial', 'Helvetica', sans-serif; text-anchor: middle" x="204.131791" y="185.957266" transform="rotate(-0 204.131791 185.957266)">12</text>
     </g>
    </g>
    <g id="xtick_7">
     <g id="line2d_7">
      <g>
       <use xlink:href="#m2461f2acb0" x="234.529113" y="172.878516" style="stroke: #000000; stroke-width: 0.8"/>
      </g>
     </g>
     <g id="text_7">
      <text style="font-size: 8px; font-family: 'DejaVu Sans', 'Arial', 'Helvetica', sans-serif; text-anchor: middle" x="234.529113" y="185.957266" transform="rotate(-0 234.529113 185.957266)">14</text>
     </g>
    </g>
    <g id="text_8">
     <text style="font-size: 8.5px; font-family: 'DejaVu Sans', 'Arial', 'Helvetica', sans-serif; text-anchor: middle" x="138.193906" y="198.079688" transform="rotate(-0 138.193906 198.079688)">Endpoint chord length (standardized PC-20)</text>
    </g>
   </g>
   <g id="matplotlib.axis_2">
    <g id="ytick_1">
     <g id="line2d_8">
      <defs>
       <path id="m0def933f30" d="M 0 0 
L -3.5 0 
" style="stroke: #000000; stroke-width: 0.8"/>
      </defs>
      <g>
       <use xlink:href="#m0def933f30" x="39.148906" y="172.878516" style="stroke: #000000; stroke-width: 0.8"/>
      </g>
     </g>
     <g id="text_9">
      <text style="font-size: 8px; font-family: 'DejaVu Sans', 'Arial', 'Helvetica', sans-serif; text-anchor: end" x="32.148906" y="175.917891" transform="rotate(-0 32.148906 175.917891)">0.0</text>
     </g>
    </g>
    <g id="ytick_2">
     <g id="line2d_9">
      <g>
       <use xlink:href="#m0def933f30" x="39.148906" y="142.984398" style="stroke: #000000; stroke-width: 0.8"/>
      </g>
     </g>
     <g id="text_10">
      <text style="font-size: 8px; font-family: 'DejaVu Sans', 'Arial', 'Helvetica', sans-serif; text-anchor: end" x="32.148906" y="146.023773" transform="rotate(-0 32.148906 146.023773)">0.2</text>
     </g>
    </g>
    <g id="ytick_3">
     <g id="line2d_10">
      <g>
       <use xlink:href="#m0def933f30" x="39.148906" y="113.09028" style="stroke: #000000; stroke-width: 0.8"/>
      </g>
     </g>
     <g id="text_11">
      <text style="font-size: 8px; font-family: 'DejaVu Sans', 'Arial', 'Helvetica', sans-serif; text-anchor: end" x="32.148906" y="116.129655" transform="rotate(-0 32.148906 116.129655)">0.4</text>
     </g>
    </g>
    <g id="ytick_4">
     <g id="line2d_11">
      <g>
       <use xlink:href="#m0def933f30" x="39.148906" y="83.196163" style="stroke: #000000; stroke-width: 0.8"/>
      </g>
     </g>
     <g id="text_12">
      <text style="font-size: 8px; font-family: 'DejaVu Sans', 'Arial', 'Helvetica', sans-serif; text-anchor: end" x="32.148906" y="86.235538" transform="rotate(-0 32.148906 86.235538)">0.6</text>
     </g>
    </g>
    <g id="ytick_5">
     <g id="line2d_12">
      <g>
       <use xlink:href="#m0def933f30" x="39.148906" y="53.302045" style="stroke: #000000; stroke-width: 0.8"/>
      </g>
     </g>
     <g id="text_13">
      <text style="font-size: 8px; font-family: 'DejaVu Sans', 'Arial', 'Helvetica', sans-serif; text-anchor: end" x="32.148906" y="56.34142" transform="rotate(-0 32.148906 56.34142)">0.8</text>
     </g>
    </g>
    <g id="ytick_6">
     <g id="line2d_13">
      <g>
       <use xlink:href="#m0def933f30" x="39.148906" y="23.407927" style="stroke: #000000; stroke-width: 0.8"/>
      </g>
     </g>
     <g id="text_14">
      <text style="font-size: 8px; font-family: 'DejaVu Sans', 'Arial', 'Helvetica', sans-serif; text-anchor: end" x="32.148906" y="26.447302" transform="rotate(-0 32.148906 26.447302)">1.0</text>
     </g>
    </g>
    <g id="text_15">
     <text style="font-size: 8.5px; font-family: 'DejaVu Sans', 'Arial', 'Helvetica', sans-serif; text-anchor: middle" x="13.658672" y="96.648516" transform="rotate(-90 13.658672 96.648516)">ECDF</text>
    </g>
   </g>
   <g id="line2d_14">
    <path d="M 53.542854 172.842024 
L 53.68146 172.805532 
L 62.801771 172.513597 
L 65.377202 172.404122 
L 68.103932 172.221662 
L 69.121017 172.002711 
L 70.479625 171.856744 
L 71.186612 171.710777 
L 71.657251 171.528317 
L 72.303547 171.345858 
L 73.215849 171.163399 
L 73.257372 171.126907 
L 74.746298 170.907956 
L 74.766993 170.871464 
L 75.471803 170.652513 
L 76.360051 170.433562 
L 77.099028 170.287595 
L 77.94924 169.99566 
L 78.00349 169.922676 
L 78.534612 169.703725 
L 78.67122 169.557758 
L 79.014467 169.375299 
L 79.286362 169.265823 
L 79.525428 169.083364 
L 79.558612 169.01038 
L 80.034651 168.791429 
L 80.186934 168.718446 
L 81.18111 168.098084 
L 81.30356 167.915625 
L 81.471026 167.769658 
L 81.778754 167.441231 
L 82.023748 167.295264 
L 82.140816 167.185788 
L 82.369317 167.039821 
L 82.692862 166.747886 
L 82.97504 166.200508 
L 83.088751 166.018049 
L 83.270463 165.799098 
L 83.613723 165.616639 
L 83.71102 165.43418 
L 84.128193 165.032769 
L 84.257944 164.886802 
L 84.700894 164.302933 
L 85.026668 163.86503 
L 85.563205 163.427128 
L 85.703018 163.244669 
L 85.918291 163.06221 
L 87.007686 162.07693 
L 87.248092 161.639028 
L 87.345315 161.456569 
L 87.849327 160.909191 
L 87.943315 160.763224 
L 88.397613 160.179354 
L 88.641565 159.741452 
L 88.742385 159.486009 
L 88.8919 159.194075 
L 89.163874 158.938632 
L 89.406673 158.610205 
L 89.521327 158.354762 
L 89.760756 158.062827 
L 89.919992 157.661417 
L 90.220465 157.260007 
L 90.673497 156.274727 
L 91.063266 155.763841 
L 91.17415 155.581382 
L 91.512105 154.851545 
L 91.653985 154.523119 
L 91.742272 154.377151 
L 92.05931 154.1582 
L 92.488287 153.391872 
L 92.802992 152.917478 
L 92.962237 152.698527 
L 93.086208 152.333608 
L 93.204378 152.114657 
L 93.474707 151.457804 
L 94.008209 150.290065 
L 94.14761 150.107606 
L 94.631441 148.647932 
L 94.746555 148.501965 
L 96.089707 145.546125 
L 96.18946 145.290682 
L 96.792877 143.940484 
L 96.977065 143.64855 
L 97.333975 142.882221 
L 97.661598 142.152384 
L 98.3976 140.254808 
L 98.474954 140.035857 
L 99.918755 135.839295 
L 100.041336 135.693328 
L 100.198645 135.255426 
L 100.468845 134.708048 
L 100.742524 134.051195 
L 100.923084 133.75926 
L 101.057854 133.211882 
L 101.167792 132.95644 
L 101.283781 132.555029 
L 101.513463 131.934668 
L 101.677783 131.679225 
L 101.755175 131.38729 
L 101.874884 130.839913 
L 101.937863 130.547978 
L 102.037703 130.256043 
L 102.102236 130.0006 
L 102.28424 129.343747 
L 102.474102 128.577418 
L 102.580173 128.248992 
L 102.703708 128.066533 
L 102.921961 127.22722 
L 103.015984 126.971777 
L 103.15602 126.314924 
L 103.314284 125.913514 
L 103.417847 125.621579 
L 103.823129 124.307873 
L 104.066025 123.46856 
L 104.377187 122.994166 
L 104.604361 122.191346 
L 104.819757 121.461509 
L 104.972664 120.950623 
L 105.661899 118.761113 
L 107.233208 113.798222 
L 107.440047 112.995402 
L 107.509935 112.703467 
L 107.623708 112.338548 
L 107.825672 111.864154 
L 107.97657 111.426252 
L 108.207462 110.18553 
L 108.652023 109.090774 
L 108.804496 108.543397 
L 109.087971 107.41215 
L 109.454315 106.463362 
L 109.591354 106.207919 
L 109.927612 105.44159 
L 110.044924 105.003688 
L 110.541278 102.996637 
L 110.656331 102.704702 
L 110.764398 102.449259 
L 111.621766 99.31096 
L 111.778525 98.690599 
L 114.191145 90.406951 
L 114.268415 90.188 
L 114.39231 89.640622 
L 114.602902 88.80131 
L 114.691884 88.582359 
L 115.22264 87.159177 
L 115.340969 86.976718 
L 115.469772 86.210389 
L 115.542158 86.064422 
L 115.664077 85.407568 
L 115.783442 85.04265 
L 115.975468 84.385797 
L 116.215546 83.765435 
L 116.347865 83.291041 
L 116.463854 83.145074 
L 116.804935 81.904351 
L 116.887594 81.6854 
L 120.22713 72.051554 
L 120.352674 71.57716 
L 120.44661 71.212241 
L 120.576187 70.737848 
L 120.689317 70.445913 
L 120.927343 69.971519 
L 121.111712 69.6066 
L 121.227851 69.20519 
L 121.549172 68.365878 
L 121.740283 67.563057 
L 121.816271 67.307614 
L 121.921716 66.796729 
L 122.004193 66.541286 
L 123.629354 61.797346 
L 123.688811 61.614887 
L 123.927802 60.994526 
L 124.220559 60.410656 
L 124.340689 60.118721 
L 124.450826 59.863278 
L 124.58272 59.242917 
L 124.779722 58.805015 
L 124.936933 58.51308 
L 128.693794 50.886285 
L 128.874343 50.740318 
L 129.312937 49.426611 
L 129.359659 49.244152 
L 129.486096 48.733266 
L 129.722033 48.222381 
L 129.810433 47.930446 
L 129.99603 47.565527 
L 130.293176 46.762707 
L 130.435679 46.580248 
L 131.938059 43.6609 
L 132.143356 43.405457 
L 132.306558 43.113523 
L 133.157964 41.690341 
L 133.396652 41.215947 
L 133.591081 40.851028 
L 133.674543 40.668569 
L 134.035087 40.449618 
L 134.175804 40.121191 
L 134.446451 39.792765 
L 134.571698 39.610306 
L 134.866729 39.391355 
L 136.761354 36.72745 
L 137.172356 36.289548 
L 137.334704 36.070597 
L 137.645688 35.888138 
L 137.852648 35.596203 
L 138.096633 35.377252 
L 138.246058 35.121809 
L 139.092592 34.866366 
L 139.357582 34.574431 
L 141.645804 32.384921 
L 142.043614 32.056494 
L 142.223137 31.837543 
L 142.612246 31.509116 
L 142.917491 31.253674 
L 143.341007 31.107706 
L 144.503887 29.976459 
L 144.787205 29.684524 
L 145.994936 28.845212 
L 147.42608 28.480294 
L 147.865283 28.188359 
L 150.70988 27.130095 
L 151.673521 26.984128 
L 151.97605 26.838161 
L 155.517566 26.144816 
L 157.694759 25.889373 
L 157.731631 25.816389 
L 158.302645 25.63393 
L 158.304696 25.597438 
L 160.289702 25.196028 
L 161.857414 25.05006 
L 168.171728 24.466191 
L 170.146019 24.283732 
L 171.995833 24.101272 
L 182.301467 23.772846 
L 187.936173 23.590387 
L 193.640634 23.444419 
L 228.234815 23.407927 
L 228.234815 23.407927 
" clip-path="url(#p23338f9425)" style="fill: none; stroke: #9a9a9a; stroke-width: 2; stroke-linecap: square"/>
   </g>
   <g id="line2d_15">
    <path d="M 111.958802 172.878516 
L 111.958802 20.418516 
" clip-path="url(#p23338f9425)" style="fill: none; stroke-dasharray: 3.7,1.6; stroke-dashoffset: 0; stroke: #9a9a9a; stroke-opacity: 0.7"/>
   </g>
   <g id="line2d_16">
    <path d="M 48.152997 172.842024 
L 52.064464 172.550089 
L 52.168831 172.477105 
L 52.577627 172.331138 
L 53.776417 172.148679 
L 54.103451 171.929728 
L 54.504498 171.78376 
L 54.895401 171.564809 
L 55.097036 171.491826 
L 55.652047 171.236383 
L 55.726128 171.126907 
L 56.57606 170.907956 
L 56.685877 170.834972 
L 57.181794 170.470054 
L 59.188669 168.60897 
L 59.321891 168.317035 
L 59.359947 168.244052 
L 59.571111 168.098084 
L 59.852626 167.587198 
L 60.190203 167.258772 
L 60.845119 166.382968 
L 60.907779 166.309984 
L 61.148886 166.127525 
L 61.207682 166.018049 
L 61.350951 165.83559 
L 61.973131 164.777327 
L 62.189397 164.558375 
L 62.311362 164.266441 
L 62.595691 163.719063 
L 62.771817 163.281161 
L 62.911418 163.06221 
L 63.514504 161.712012 
L 63.860494 161.09165 
L 63.970127 160.726732 
L 64.419648 159.668469 
L 64.643317 159.376534 
L 64.753563 159.194075 
L 64.958737 158.719681 
L 65.128494 158.427746 
L 65.294885 158.135811 
L 65.573271 157.770893 
L 65.648457 157.150531 
L 65.810025 156.93158 
L 65.885457 156.749121 
L 65.991996 156.566662 
L 66.101247 156.347711 
L 66.285363 156.092268 
L 66.52906 155.508398 
L 66.638144 155.14348 
L 66.867861 154.669086 
L 67.045836 154.231184 
L 68.36206 150.618491 
L 68.55305 150.217081 
L 69.037342 149.122326 
L 69.106519 148.976359 
L 69.248373 148.61144 
L 69.426554 148.027571 
L 69.539018 147.772128 
L 69.730556 147.115275 
L 70.124147 145.509634 
L 70.409635 144.670321 
L 71.076124 141.933433 
L 71.163211 141.67799 
L 71.39919 141.021137 
L 71.495689 140.619727 
L 73.995016 129.380239 
L 74.119951 128.942337 
L 74.544461 127.409679 
L 74.775537 126.24194 
L 74.838919 126.022989 
L 75.005859 125.402628 
L 75.363148 123.869971 
L 76.428364 119.417966 
L 76.493667 119.199015 
L 76.815587 117.775833 
L 76.900917 117.483898 
L 77.094915 116.71757 
L 78.179103 112.010122 
L 78.250567 111.791171 
L 78.390182 111.061334 
L 78.447719 110.805891 
L 78.573873 110.149038 
L 78.654851 109.784119 
L 79.506063 106.098443 
L 79.586084 105.879492 
L 79.756718 105.076672 
L 80.518719 101.573455 
L 80.626817 100.989585 
L 80.728973 100.405716 
L 80.843539 100.040797 
L 81.108666 98.836567 
L 81.272991 98.10673 
L 81.345224 97.887779 
L 81.712788 96.391613 
L 82.448218 93.691217 
L 82.649356 92.486986 
L 82.807657 91.903116 
L 83.400831 89.020261 
L 83.634986 87.998489 
L 84.065236 86.210389 
L 84.255375 85.225109 
L 84.532455 83.728944 
L 84.766817 82.707172 
L 84.985732 81.831368 
L 85.133554 81.356974 
L 85.311363 80.590645 
L 85.586616 79.49589 
L 85.719973 78.766053 
L 85.880334 77.890249 
L 86.015358 77.379363 
L 86.106983 77.014445 
L 86.511261 75.372312 
L 86.6714 74.788442 
L 86.729164 74.460016 
L 86.832628 73.876146 
L 86.916539 73.584211 
L 87.022611 73.328768 
L 87.144877 72.927358 
L 87.304075 72.051554 
L 87.531842 71.17575 
L 87.655438 70.883815 
L 87.743134 70.555388 
L 88.004748 69.825551 
L 88.11465 69.6066 
L 88.338861 68.767288 
L 90.024757 63.804397 
L 90.198766 63.439479 
L 90.789739 61.797346 
L 90.860922 61.614887 
L 90.985601 61.104001 
L 91.12305 60.848558 
L 91.255523 60.666099 
L 91.974294 58.11167 
L 92.406919 57.454817 
L 92.52695 57.272358 
L 92.769954 56.870947 
L 93.219602 55.557241 
L 93.469746 55.301798 
L 93.550079 55.119339 
L 93.661143 54.900388 
L 94.359309 53.221763 
L 94.5071 52.929828 
L 94.637019 52.674385 
L 94.794568 52.382451 
L 94.893268 51.944548 
L 95.190741 51.397171 
L 95.458081 50.995761 
L 95.647 50.77681 
L 96.11174 49.463103 
L 96.212147 49.317136 
L 96.357127 49.098185 
L 96.548607 48.842742 
L 97.895961 46.397788 
L 98.149396 46.105854 
L 98.266444 45.813919 
L 98.468707 45.558476 
L 98.888783 44.974607 
L 99.017417 44.682672 
L 99.633689 43.843359 
L 99.780382 43.6609 
L 99.89194 43.514933 
L 100.437405 42.748604 
L 100.542557 42.602637 
L 100.624911 42.420178 
L 100.726581 42.237718 
L 100.830443 41.982275 
L 101.321739 41.142963 
L 101.420971 40.741553 
L 101.727381 40.340142 
L 101.855501 40.0847 
L 102.300814 39.829257 
L 102.419482 39.683289 
L 102.754016 39.50083 
L 102.990633 39.09942 
L 103.253282 38.916961 
L 104.399301 38.11414 
L 104.589261 37.822205 
L 104.737638 37.676238 
L 104.904134 37.31132 
L 105.207455 37.055877 
L 105.319261 36.909909 
L 105.74413 36.544991 
L 105.876626 36.32604 
L 106.241166 36.180072 
L 107.198849 35.705678 
L 107.31327 35.559711 
L 107.471984 35.413744 
L 107.953432 35.085317 
L 107.992152 35.012333 
L 108.18164 34.866366 
L 108.217927 34.793382 
L 108.477892 34.610923 
L 108.590488 34.428464 
L 108.847812 34.027054 
L 109.204595 33.771611 
L 109.633401 33.479676 
L 109.998158 33.224233 
L 110.12566 33.078266 
L 110.40518 32.749839 
L 110.773943 32.530888 
L 111.061458 32.202462 
L 111.325589 32.020002 
L 111.477459 31.764559 
L 111.722904 31.436133 
L 112.260368 31.18069 
L 113.050181 30.706296 
L 113.12766 30.633312 
L 113.781738 30.268394 
L 113.944258 30.122426 
L 114.202985 29.976459 
L 114.589871 29.757508 
L 114.808286 29.575049 
L 115.067337 29.502065 
L 115.315172 29.356098 
L 116.164287 28.918196 
L 117.836235 28.334326 
L 118.080962 28.261342 
L 118.277907 28.115375 
L 118.315134 28.042391 
L 118.618484 27.859932 
L 122.384059 26.03534 
L 123.654986 25.706913 
L 123.979098 25.487962 
L 127.327434 24.575666 
L 129.612903 24.356715 
L 129.701702 24.283732 
L 136.266744 23.882321 
L 136.665511 23.809338 
L 158.220146 23.407927 
L 158.220146 23.407927 
" clip-path="url(#p23338f9425)" style="fill: none; stroke: #008a7a; stroke-width: 2; stroke-linecap: square"/>
   </g>
   <g id="line2d_17">
    <path d="M 81.27032 172.878516 
L 81.27032 20.418516 
" clip-path="url(#p23338f9425)" style="fill: none; stroke-dasharray: 3.7,1.6; stroke-dashoffset: 0; stroke: #008a7a; stroke-opacity: 0.7"/>
   </g>
   <g id="patch_3">
    <path d="M 39.148906 172.878516 
L 39.148906 20.418516 
" style="fill: none; stroke: #000000; stroke-width: 0.8; stroke-linejoin: miter; stroke-linecap: square"/>
   </g>
   <g id="patch_4">
    <path d="M 39.148906 172.878516 
L 237.238906 172.878516 
" style="fill: none; stroke: #000000; stroke-width: 0.8; stroke-linejoin: miter; stroke-linecap: square"/>
   </g>
   <g id="text_16">
    <text style="font-size: 9.5px; font-family: 'DejaVu Sans', 'Arial', 'Helvetica', sans-serif; text-anchor: middle" x="138.193906" y="14.418516" transform="rotate(-0 138.193906 14.418516)">Endpoint chord length</text>
   </g>
   <g id="legend_1">
    <g id="line2d_18">
     <path d="M 117.299844 150.935156 
L 124.799844 150.935156 
L 132.299844 150.935156 
" style="fill: none; stroke: #9a9a9a; stroke-width: 2; stroke-linecap: square"/>
    </g>
    <g id="text_17">
     <text style="font-size: 7.5px; font-family: 'DejaVu Sans', 'Arial', 'Helvetica', sans-serif; text-anchor: start" x="138.299844" y="153.560156" transform="rotate(-0 138.299844 153.560156)">Random CFM mean 5.98</text>
    </g>
    <g id="line2d_19">
     <path d="M 117.299844 161.94375 
L 124.799844 161.94375 
L 132.299844 161.94375 
" style="fill: none; stroke: #008a7a; stroke-width: 2; stroke-linecap: square"/>
    </g>
    <g id="text_18">
     <text style="font-size: 7.5px; font-family: 'DejaVu Sans', 'Arial', 'Helvetica', sans-serif; text-anchor: start" x="138.299844" y="164.56875" transform="rotate(-0 138.299844 164.56875)">OT-CFM mean 4.04</text>
    </g>
   </g>
  </g>
 </g>
 <defs>
  <clipPath id="p23338f9425">
   <rect x="39.148906" y="20.418516" width="198.09" height="152.46"/>
  </clipPath>
 </defs>
</svg>
