<?xml version="1.0" encoding="utf-8" standalone="no"?>
<!DOCTYPE svg PUBLIC "-//W3C//DTD SVG 1.1//EN"
  "http://www.w3.org/Graphics/SVG/1.1/DTD/svg11.dtd">
<svg xmlns:xlink="http://www.w3.org/1999/xlink" width="216.786406pt" height="194.821016pt" viewBox="0 0 216.786406 194.821016" xmlns="http://www.w3.org/2000/svg" version="1.1">
 <metadata>
  <rdf:RDF xmlns:dc="http://purl.org/dc/elements/1.1/" xmlns:cc="http://creativecommons.org/ns#" xmlns:rdf="http://www.w3.org/1999/02/22-rdf-syntax-ns#">
   <cc:Work>
    <dc:type rdf:resource="http://purl.org/dc/dcmitype/StillImage"/>
    <dc:date>2026-06-04T22:33:28.868633</dc:date>
    <dc:format>image/svg+xml</dc:format>
    <dc:creator>
     <cc:Agent>
      <dc:title>Matplotlib v3.10.0, https://matplotlib.org/</dc:title>
     </cc:Agent>
    </dc:creator>
   </cc:Work>
  </rdf:RDF>
 </metadata>
 <defs>
  <style type="text/css">*{stroke-linejoin: round; stroke-linecap: butt}</style>
 </defs>
 <g id="figure_1">
  <g id="patch_1">
   <path d="M 0 194.821016 
L 216.786406 194.821016 
L 216.786406 0 
L 0 0 
z
" style="fill: #ffffff"/>
  </g>
  <g id="axes_1">
   <g id="patch_2">
    <path d="M 36.606406 172.878516 
L 209.586406 172.878516 
L 209.586406 20.418516 
L 36.606406 20.418516 
z
" style="fill: #ffffff"/>
   </g>
   <g id="FillBetweenPolyCollection_1">
    <path d="M 80.108083 163.659189 
L 79.594729 163.659189 
L 79.438325 162.282313 
L 79.235525 160.905438 
L 78.997424 159.528562 
L 78.740695 158.151687 
L 78.47766 156.774811 
L 78.206299 155.397936 
L 77.907637 154.02106 
L 77.554739 152.644185 
L 77.128978 151.267309 
L 76.630245 149.890434 
L 76.068775 148.513558 
L 75.442179 147.136683 
L 74.719141 145.759807 
L 73.849544 144.382932 
L 72.796405 143.006056 
L 71.562819 141.629181 
L 70.190964 140.252305 
L 68.734 138.87543 
L 67.222085 137.498554 
L 65.648193 136.121679 
L 63.988214 134.744803 
L 62.245297 133.367928 
L 60.483517 131.991052 
L 58.816842 130.614177 
L 57.355175 129.237302 
L 56.148949 127.860426 
L 55.176935 126.483551 
L 54.385337 125.106675 
L 53.744564 123.7298 
L 53.277742 122.352924 
L 53.039506 120.976049 
L 53.064157 119.599173 
L 53.326133 118.222298 
L 53.744304 116.845422 
L 54.22671 115.468547 
L 54.723441 114.091671 
L 55.251534 112.714796 
L 55.876733 111.33792 
L 56.667709 109.961045 
L 57.657025 108.584169 
L 58.833071 107.207294 
L 60.15666 105.830418 
L 61.576774 104.453543 
L 63.031658 103.076667 
L 64.446496 101.699792 
L 65.745024 100.322916 
L 66.874459 98.946041 
L 67.825488 97.569165 
L 68.632031 96.19229 
L 69.352308 94.815414 
L 70.043861 93.438539 
L 70.743289 92.061663 
L 71.455628 90.684788 
L 72.156792 89.307912 
L 72.810481 87.931037 
L 73.392476 86.554161 
L 73.906982 85.177286 
L 74.383514 83.800411 
L 74.857256 82.423535 
L 75.347172 81.04666 
L 75.845451 79.669784 
L 76.322547 78.292909 
L 76.742791 76.916033 
L 77.081442 75.539158 
L 77.335484 74.162282 
L 77.524372 72.785407 
L 77.680784 71.408531 
L 77.834991 70.031656 
L 78.000677 68.65478 
L 78.171263 67.277905 
L 78.329675 65.901029 
L 78.463843 64.524154 
L 78.575553 63.147278 
L 78.676913 61.770403 
L 78.779617 60.393527 
L 78.886524 59.016652 
L 78.990963 57.639776 
L 79.082646 56.262901 
L 79.155394 54.886025 
L 79.211641 53.50915 
L 79.260896 52.132274 
L 79.313427 50.755399 
L 79.374022 49.378523 
L 79.440375 48.001648 
L 79.50633 46.624772 
L 79.566052 45.247897 
L 79.615528 43.871021 
L 79.651778 42.494146 
L 79.672926 41.11727 
L 79.680432 39.740395 
L 79.68091 38.36352 
L 79.684154 36.986644 
L 79.697703 35.609769 
L 79.722219 34.232893 
L 79.751641 32.856018 
L 79.777879 31.479142 
L 79.796073 30.102267 
L 79.806613 28.725391 
L 79.813263 27.348516 
L 79.88955 27.348516 
L 79.88955 27.348516 
L 79.896199 28.725391 
L 79.90674 30.102267 
L 79.924934 31.479142 
L 79.951172 32.856018 
L 79.980594 34.232893 
L 80.005109 35.609769 
L 80.018659 36.986644 
L 80.021903 38.36352 
L 80.02238 39.740395 
L 80.029886 41.11727 
L 80.051034 42.494146 
L 80.087284 43.871021 
L 80.13676 45.247897 
L 80.196483 46.624772 
L 80.262437 48.001648 
L 80.32879 49.378523 
L 80.389386 50.755399 
L 80.441917 52.132274 
L 80.491171 53.50915 
L 80.547419 54.886025 
L 80.620167 56.262901 
L 80.711849 57.639776 
L 80.816288 59.016652 
L 80.923196 60.393527 
L 81.0259 61.770403 
L 81.12726 63.147278 
L 81.238969 64.524154 
L 81.373138 65.901029 
L 81.531549 67.277905 
L 81.702135 68.65478 
L 81.867822 70.031656 
L 82.022029 71.408531 
L 82.17844 72.785407 
L 82.367329 74.162282 
L 82.62137 75.539158 
L 82.960022 76.916033 
L 83.380265 78.292909 
L 83.857362 79.669784 
L 84.35564 81.04666 
L 84.845557 82.423535 
L 85.319299 83.800411 
L 85.795831 85.177286 
L 86.310337 86.554161 
L 86.892332 87.931037 
L 87.54602 89.307912 
L 88.247184 90.684788 
L 88.959524 92.061663 
L 89.658951 93.438539 
L 90.350504 94.815414 
L 91.070781 96.19229 
L 91.877324 97.569165 
L 92.828353 98.946041 
L 93.957788 100.322916 
L 95.256317 101.699792 
L 96.671155 103.076667 
L 98.126039 104.453543 
L 99.546153 105.830418 
L 100.869742 107.207294 
L 102.045787 108.584169 
L 103.035103 109.961045 
L 103.826079 111.33792 
L 104.451279 112.714796 
L 104.979371 114.091671 
L 105.476102 115.468547 
L 105.958509 116.845422 
L 106.376679 118.222298 
L 106.638656 119.599173 
L 106.663306 120.976049 
L 106.42507 122.352924 
L 105.958249 123.7298 
L 105.317476 125.106675 
L 104.525878 126.483551 
L 103.553863 127.860426 
L 102.347637 129.237302 
L 100.88597 130.614177 
L 99.219295 131.991052 
L 97.457515 133.367928 
L 95.714598 134.744803 
L 94.054619 136.121679 
L 92.480728 137.498554 
L 90.968813 138.87543 
L 89.511849 140.252305 
L 88.139994 141.629181 
L 86.906407 143.006056 
L 85.853268 144.382932 
L 84.983672 145.759807 
L 84.260633 147.136683 
L 83.634037 148.513558 
L 83.072568 149.890434 
L 82.573834 151.267309 
L 82.148074 152.644185 
L 81.795176 154.02106 
L 81.496513 155.397936 
L 81.225153 156.774811 
L 80.962117 158.151687 
L 80.705388 159.528562 
L 80.467287 160.905438 
L 80.264488 162.282313 
L 80.108083 163.659189 
z
" clip-path="url(#pb80133a08b)" style="fill: #9a9a9a; fill-opacity: 0.35"/>
   </g>
   <g id="FillBetweenPolyCollection_2">
    <path d="M 166.510915 165.948516 
L 166.171898 165.948516 
L 166.071824 165.024581 
L 165.940613 164.100646 
L 165.793298 163.176712 
L 165.652953 162.252777 
L 165.532693 161.328842 
L 165.429897 160.404908 
L 165.336761 159.480973 
L 165.246861 158.557038 
L 165.149498 157.633104 
L 165.024078 156.709169 
L 164.841465 155.785234 
L 164.570677 154.8613 
L 164.192922 153.937365 
L 163.716651 153.013431 
L 163.173015 152.089496 
L 162.588054 151.165561 
L 161.959503 150.241627 
L 161.2583 149.317692 
L 160.440433 148.393757 
L 159.451714 147.469823 
L 158.236591 146.545888 
L 156.76857 145.621953 
L 155.082658 144.698019 
L 153.264667 143.774084 
L 151.399449 142.850149 
L 149.536655 141.926215 
L 147.700696 141.00228 
L 145.915624 140.078345 
L 144.22352 139.154411 
L 142.689704 138.230476 
L 141.386029 137.306541 
L 140.376813 136.382607 
L 139.734296 135.458672 
L 139.529506 134.534737 
L 139.743263 133.610803 
L 140.19436 132.686868 
L 140.632837 131.762934 
L 140.945375 130.838999 
L 141.244827 129.915064 
L 141.741924 128.99113 
L 142.558429 128.067195 
L 143.677794 127.14326 
L 145.017859 126.219326 
L 146.483717 125.295391 
L 147.966861 124.371456 
L 149.363143 123.447522 
L 150.628458 122.523587 
L 151.814596 121.599652 
L 153.037002 120.675718 
L 154.383179 119.751783 
L 155.835475 118.827848 
L 157.287951 117.903914 
L 158.632144 116.979979 
L 159.806642 116.056044 
L 160.784849 115.13211 
L 161.57094 114.208175 
L 162.217197 113.284241 
L 162.797839 112.360306 
L 163.343381 111.436371 
L 163.825565 110.512437 
L 164.213598 109.588502 
L 164.517131 108.664567 
L 164.767338 107.740633 
L 164.982836 106.816698 
L 165.167394 105.892763 
L 165.324803 104.968829 
L 165.461735 104.044894 
L 165.581461 103.120959 
L 165.684214 102.197025 
L 165.770998 101.27309 
L 165.840618 100.349155 
L 165.887748 99.425221 
L 165.912635 98.501286 
L 165.930253 97.577351 
L 165.961974 96.653417 
L 166.017864 95.729482 
L 166.090602 94.805547 
L 166.164681 93.881613 
L 166.227311 92.957678 
L 166.271938 92.033744 
L 166.297171 91.109809 
L 166.306217 90.185874 
L 166.306484 89.26194 
L 166.306586 88.338005 
L 166.31153 87.41407 
L 166.320561 86.490136 
L 166.329773 85.566201 
L 166.336237 84.642266 
L 166.33958 83.718332 
L 166.34089 82.794397 
L 166.34127 81.870462 
L 166.341266 80.946528 
L 166.340871 80.022593 
L 166.339521 79.098658 
L 166.336105 78.174724 
L 166.32956 77.250789 
L 166.320367 76.326854 
L 166.31171 75.40292 
L 166.308095 74.478985 
L 166.374718 74.478985 
L 166.374718 74.478985 
L 166.371103 75.40292 
L 166.362446 76.326854 
L 166.353253 77.250789 
L 166.346708 78.174724 
L 166.343292 79.098658 
L 166.341942 80.022593 
L 166.341546 80.946528 
L 166.341542 81.870462 
L 166.341922 82.794397 
L 166.343233 83.718332 
L 166.346575 84.642266 
L 166.35304 85.566201 
L 166.362252 86.490136 
L 166.371282 87.41407 
L 166.376226 88.338005 
L 166.376328 89.26194 
L 166.376596 90.185874 
L 166.385642 91.109809 
L 166.410875 92.033744 
L 166.455501 92.957678 
L 166.518132 93.881613 
L 166.59221 94.805547 
L 166.664949 95.729482 
L 166.720838 96.653417 
L 166.752559 97.577351 
L 166.770178 98.501286 
L 166.795065 99.425221 
L 166.842195 100.349155 
L 166.911815 101.27309 
L 166.998599 102.197025 
L 167.101352 103.120959 
L 167.221078 104.044894 
L 167.358009 104.968829 
L 167.515418 105.892763 
L 167.699976 106.816698 
L 167.915475 107.740633 
L 168.165682 108.664567 
L 168.469215 109.588502 
L 168.857247 110.512437 
L 169.339432 111.436371 
L 169.884973 112.360306 
L 170.465616 113.284241 
L 171.111873 114.208175 
L 171.897964 115.13211 
L 172.876171 116.056044 
L 174.050669 116.979979 
L 175.394862 117.903914 
L 176.847337 118.827848 
L 178.299634 119.751783 
L 179.645811 120.675718 
L 180.868216 121.599652 
L 182.054354 122.523587 
L 183.31967 123.447522 
L 184.715952 124.371456 
L 186.199096 125.295391 
L 187.664954 126.219326 
L 189.005019 127.14326 
L 190.124384 128.067195 
L 190.940889 128.99113 
L 191.437985 129.915064 
L 191.737438 130.838999 
L 192.049975 131.762934 
L 192.488452 132.686868 
L 192.93955 133.610803 
L 193.153306 134.534737 
L 192.948517 135.458672 
L 192.306 136.382607 
L 191.296783 137.306541 
L 189.993109 138.230476 
L 188.459292 139.154411 
L 186.767189 140.078345 
L 184.982116 141.00228 
L 183.146157 141.926215 
L 181.283363 142.850149 
L 179.418145 143.774084 
L 177.600154 144.698019 
L 175.914243 145.621953 
L 174.446222 146.545888 
L 173.231098 147.469823 
L 172.242379 148.393757 
L 171.424512 149.317692 
L 170.72331 150.241627 
L 170.094759 151.165561 
L 169.509798 152.089496 
L 168.966161 153.013431 
L 168.489891 153.937365 
L 168.112135 154.8613 
L 167.841348 155.785234 
L 167.658735 156.709169 
L 167.533314 157.633104 
L 167.435951 158.557038 
L 167.346052 159.480973 
L 167.252915 160.404908 
L 167.150119 161.328842 
L 167.029859 162.252777 
L 166.889515 163.176712 
L 166.7422 164.100646 
L 166.610989 165.024581 
L 166.510915 165.948516 
z
" clip-path="url(#pb80133a08b)" style="fill: #008a7a; fill-opacity: 0.35"/>
   </g>
   <g id="matplotlib.axis_1">
    <g id="xtick_1">
     <g id="line2d_1">
      <defs>
       <path id="m2e85ee6da7" d="M 0 0 
L 0 3.5 
" style="stroke: #000000; stroke-width: 0.8"/>
      </defs>
      <g>
       <use xlink:href="#m2e85ee6da7" x="79.851406" y="172.878516" style="stroke: #000000; stroke-width: 0.8"/>
      </g>
     </g>
     <g id="text_1">
      <text style="font-size: 8px; font-family: 'DejaVu Sans', 'Arial', 'Helvetica', sans-serif; text-anchor: middle" x="79.851406" y="185.957266" transform="rotate(-0 79.851406 185.957266)">Random CFM</text>
     </g>
    </g>
    <g id="xtick_2">
     <g id="line2d_2">
      <g>
       <use xlink:href="#m2e85ee6da7" x="166.341406" y="172.878516" style="stroke: #000000; stroke-width: 0.8"/>
      </g>
     </g>
     <g id="text_2">
      <text style="font-size: 8px; font-family: 'DejaVu Sans', 'Arial', 'Helvetica', sans-serif; text-anchor: middle" x="166.341406" y="185.957266" transform="rotate(-0 166.341406 185.957266)">OT-CFM</text>
     </g>
    </g>
   </g>
   <g id="matplotlib.axis_2">
    <g id="ytick_1">
     <g id="line2d_3">
      <defs>
       <path id="m308ee2b598" d="M 0 0 
L -3.5 0 
" style="stroke: #000000; stroke-width: 0.8"/>
      </defs>
      <g>
       <use xlink:href="#m308ee2b598" x="36.606406" y="159.793542" style="stroke: #000000; stroke-width: 0.8"/>
      </g>
     </g>
     <g id="text_3">
      <text style="font-size: 8px; font-family: 'DejaVu Sans', 'Arial', 'Helvetica', sans-serif; text-anchor: end" x="29.606406" y="162.832917" transform="rotate(-0 29.606406 162.832917)">5</text>
     </g>
    </g>
    <g id="ytick_2">
     <g id="line2d_4">
      <g>
       <use xlink:href="#m308ee2b598" x="36.606406" y="135.760474" style="stroke: #000000; stroke-width: 0.8"/>
      </g>
     </g>
     <g id="text_4">
      <text style="font-size: 8px; font-family: 'DejaVu Sans', 'Arial', 'Helvetica', sans-serif; text-anchor: end" x="29.606406" y="138.799849" transform="rotate(-0 29.606406 138.799849)">10</text>
     </g>
    </g>
    <g id="ytick_3">
     <g id="line2d_5">
      <g>
       <use xlink:href="#m308ee2b598" x="36.606406" y="111.727407" style="stroke: #000000; stroke-width: 0.8"/>
      </g>
     </g>
     <g id="text_5">
      <text style="font-size: 8px; font-family: 'DejaVu Sans', 'Arial', 'Helvetica', sans-serif; text-anchor: end" x="29.606406" y="114.766782" transform="rotate(-0 29.606406 114.766782)">15</text>
     </g>
    </g>
    <g id="ytick_4">
     <g id="line2d_6">
      <g>
       <use xlink:href="#m308ee2b598" x="36.606406" y="87.694339" style="stroke: #000000; stroke-width: 0.8"/>
      </g>
     </g>
     <g id="text_6">
      <text style="font-size: 8px; font-family: 'DejaVu Sans', 'Arial', 'Helvetica', sans-serif; text-anchor: end" x="29.606406" y="90.733714" transform="rotate(-0 29.606406 90.733714)">20</text>
     </g>
    </g>
    <g id="ytick_5">
     <g id="line2d_7">
      <g>
       <use xlink:href="#m308ee2b598" x="36.606406" y="63.661272" style="stroke: #000000; stroke-width: 0.8"/>
      </g>
     </g>
     <g id="text_7">
      <text style="font-size: 8px; font-family: 'DejaVu Sans', 'Arial', 'Helvetica', sans-serif; text-anchor: end" x="29.606406" y="66.700647" transform="rotate(-0 29.606406 66.700647)">25</text>
     </g>
    </g>
    <g id="ytick_6">
     <g id="line2d_8">
      <g>
       <use xlink:href="#m308ee2b598" x="36.606406" y="39.628204" style="stroke: #000000; stroke-width: 0.8"/>
      </g>
     </g>
     <g id="text_8">
      <text style="font-size: 8px; font-family: 'DejaVu Sans', 'Arial', 'Helvetica', sans-serif; text-anchor: end" x="29.606406" y="42.667579" transform="rotate(-0 29.606406 42.667579)">30</text>
     </g>
    </g>
    <g id="text_9">
     <text style="font-size: 8.5px; font-family: 'DejaVu Sans', 'Arial', 'Helvetica', sans-serif; text-anchor: middle" x="13.658672" y="96.648516" transform="rotate(-90 13.658672 96.648516)">Angular std of local chord directions (degrees)</text>
    </g>
   </g>
   <g id="patch_3">
    <path d="M 70.337506 127.553533 
L 89.365306 127.553533 
L 89.365306 104.504583 
L 70.337506 104.504583 
L 70.337506 127.553533 
z
" clip-path="url(#pb80133a08b)" style="fill: #9a9a9a; opacity: 0.85"/>
   </g>
   <g id="line2d_9">
    <path d="M 79.851406 127.553533 
L 79.851406 160.567908 
" clip-path="url(#pb80133a08b)" style="fill: none; stroke: #000000; stroke-width: 0.8; stroke-linecap: square"/>
   </g>
   <g id="line2d_10">
    <path d="M 79.851406 104.504583 
L 79.851406 69.939386 
" clip-path="url(#pb80133a08b)" style="fill: none; stroke: #000000; stroke-width: 0.8; stroke-linecap: square"/>
   </g>
   <g id="line2d_11">
    <path d="M 75.094456 160.567908 
L 84.608356 160.567908 
" clip-path="url(#pb80133a08b)" style="fill: none; stroke: #000000; stroke-width: 0.8; stroke-linecap: square"/>
   </g>
   <g id="line2d_12">
    <path d="M 75.094456 69.939386 
L 84.608356 69.939386 
" clip-path="url(#pb80133a08b)" style="fill: none; stroke: #000000; stroke-width: 0.8; stroke-linecap: square"/>
   </g>
   <g id="patch_4">
    <path d="M 156.827506 138.670067 
L 175.855306 138.670067 
L 175.855306 125.719774 
L 156.827506 125.719774 
L 156.827506 138.670067 
z
" clip-path="url(#pb80133a08b)" style="fill: #008a7a; opacity: 0.85"/>
   </g>
   <g id="line2d_13">
    <path d="M 166.341406 138.670067 
L 166.341406 158.022391 
" clip-path="url(#pb80133a08b)" style="fill: none; stroke: #000000; stroke-width: 0.8; stroke-linecap: square"/>
   </g>
   <g id="line2d_14">
    <path d="M 166.341406 125.719774 
L 166.341406 106.546459 
" clip-path="url(#pb80133a08b)" style="fill: none; stroke: #000000; stroke-width: 0.8; stroke-linecap: square"/>
   </g>
   <g id="line2d_15">
    <path d="M 161.584456 158.022391 
L 171.098356 158.022391 
" clip-path="url(#pb80133a08b)" style="fill: none; stroke: #000000; stroke-width: 0.8; stroke-linecap: square"/>
   </g>
   <g id="line2d_16">
    <path d="M 161.584456 106.546459 
L 171.098356 106.546459 
" clip-path="url(#pb80133a08b)" style="fill: none; stroke: #000000; stroke-width: 0.8; stroke-linecap: square"/>
   </g>
   <g id="line2d_17">
    <path d="M 70.337506 116.929574 
L 89.365306 116.929574 
" clip-path="url(#pb80133a08b)" style="fill: none; stroke: #ffffff; stroke-width: 1.1"/>
   </g>
   <g id="line2d_18">
    <path d="M 156.827506 132.443682 
L 175.855306 132.443682 
" clip-path="url(#pb80133a08b)" style="fill: none; stroke: #ffffff; stroke-width: 1.1"/>
   </g>
   <g id="patch_5">
    <path d="M 36.606406 172.878516 
L 36.606406 20.418516 
" style="fill: none; stroke: #000000; stroke-width: 0.8; stroke-linejoin: miter; stroke-linecap: square"/>
   </g>
   <g id="patch_6">
    <path d="M 36.606406 172.878516 
L 209.586406 172.878516 
" style="fill: none; stroke: #000000; stroke-width: 0.8; stroke-linejoin: miter; stroke-linecap: square"/>
   </g>
   <g id="text_10">
    <text style="font-size: 7.5px; font-family: 'DejaVu Sans', 'Arial', 'Helvetica', sans-serif; text-anchor: middle" x="79.851406" y="108.97272" transform="rotate(-0 79.851406 108.97272)">14.35°</text>
   </g>
   <g id="text_11">
    <text style="font-size: 7.5px; font-family: 'DejaVu Sans', 'Arial', 'Helvetica', sans-serif; text-anchor: middle" x="166.341406" y="126.175536" transform="rotate(-0 166.341406 126.175536)">10.77°</text>
   </g>
   <g id="text_12">
    <text style="font-size: 6.8px; font-family: 'DejaVu Sans', 'Arial', 'Helvetica', sans-serif; text-anchor: start; fill: #595959" x="38.336206" y="28.634653" transform="rotate(-0 38.336206 28.634653)">PC-20 neighborhood diagnostic</text>
   </g>
   <g id="text_13">
    <text style="font-size: 9.5px; font-family: 'DejaVu Sans', 'Arial', 'Helvetica', sans-serif; text-anchor: middle" x="123.096406" y="14.418516" transform="rotate(-0 123.096406 14.418516)">Local direction dispersion</text>
   </g>
   <g id="PathCollection_1">
    <defs>
     <path id="mf05d94ca7e" d="M 0 2.645751 
C 0.701661 2.645751 1.374679 2.366978 1.870829 1.870829 
C 2.366978 1.374679 2.645751 0.701661 2.645751 0 
C 2.645751 -0.701661 2.366978 -1.374679 1.870829 -1.870829 
C 1.374679 -2.366978 0.701661 -2.645751 0 -2.645751 
C -0.701661 -2.645751 -1.374679 -2.366978 -1.870829 -1.870829 
C -2.366978 -1.374679 -2.645751 -0.701661 -2.645751 0 
C -2.645751 0.701661 -2.366978 1.374679 -1.870829 1.870829 
C -1.374679 2.366978 -0.701661 2.645751 0 2.645751 
z
" style="stroke: #000000"/>
    </defs>
    <g clip-path="url(#pb80133a08b)">
     <use xlink:href="#mf05d94ca7e" x="79.851406" y="114.858438" style="stroke: #000000"/>
    </g>
   </g>
   <g id="PathCollection_2">
    <g clip-path="url(#pb80133a08b)">
     <use xlink:href="#mf05d94ca7e" x="166.341406" y="132.061253" style="stroke: #000000"/>
    </g>
   </g>
  </g>
 </g>
 <defs>
  <clipPath id="pb80133a08b">
   <rect x="36.606406" y="20.418516" width="172.98" height="152.46"/>
  </clipPath>
 </defs>
</svg>
