<?xml version="1.0" encoding="utf-8" standalone="no"?>
<!DOCTYPE svg PUBLIC "-//W3C//DTD SVG 1.1//EN"
  "http://www.w3.org/Graphics/SVG/1.1/DTD/svg11.dtd">
<svg xmlns:xlink="http://www.w3.org/1999/xlink" width="377.841294pt" height="223.113678pt" viewBox="0 0 377.841294 223.113678" xmlns="http://www.w3.org/2000/svg" version="1.1">
 <metadata>
  <rdf:RDF xmlns:dc="http://purl.org/dc/elements/1.1/" xmlns:cc="http://creativecommons.org/ns#" xmlns:rdf="http://www.w3.org/1999/02/22-rdf-syntax-ns#">
   <cc:Work>
    <dc:type rdf:resource="http://purl.org/dc/dcmitype/StillImage"/>
    <dc:date>2026-06-05T01:40:29.720421</dc:date>
    <dc:format>image/svg+xml</dc:format>
    <dc:creator>
     <cc:Agent>
      <dc:title>Matplotlib v3.10.0, https://matplotlib.org/</dc:title>
     </cc:Agent>
    </dc:creator>
   </cc:Work>
  </rdf:RDF>
 </metadata>
 <defs>
  <style type="text/css">*{stroke-linejoin: round; stroke-linecap: butt}</style>
 </defs>
 <g id="figure_1">
  <g id="patch_1">
   <path d="M 0 223.113678 
L 377.841294 223.113678 
L 377.841294 0 
L 0 0 
z
" style="fill: #ffffff"/>
  </g>
  <g id="axes_1">
   <g id="patch_2">
    <path d="M 44.390313 191.340865 
L 321.993143 191.340865 
L 321.993143 31.11625 
L 44.390313 31.11625 
z
" style="fill: #ffffff"/>
   </g>
   <g id="patch_3">
    <path d="M 57.534386 191.340865 
L 98.543895 191.340865 
L 98.543895 155.34563 
L 57.534386 155.34563 
z
" clip-path="url(#pbbb28bbfe8)" style="fill: #4e79a7"/>
   </g>
   <g id="patch_4">
    <path d="M 110.11068 191.340865 
L 151.120189 191.340865 
L 151.120189 190.461145 
L 110.11068 190.461145 
z
" clip-path="url(#pbbb28bbfe8)" style="fill: #4e79a7"/>
   </g>
   <g id="patch_5">
    <path d="M 162.686973 191.340865 
L 203.696482 191.340865 
L 203.696482 191.340865 
L 162.686973 191.340865 
z
" clip-path="url(#pbbb28bbfe8)" style="fill: #4e79a7"/>
   </g>
   <g id="patch_6">
    <path d="M 215.263267 191.340865 
L 256.272776 191.340865 
L 256.272776 191.340865 
L 215.263267 191.340865 
z
" clip-path="url(#pbbb28bbfe8)" style="fill: #4e79a7"/>
   </g>
   <g id="patch_7">
    <path d="M 267.839561 191.340865 
L 308.84907 191.340865 
L 308.84907 191.340865 
L 267.839561 191.340865 
z
" clip-path="url(#pbbb28bbfe8)" style="fill: #4e79a7"/>
   </g>
   <g id="patch_8">
    <path d="M 57.534386 155.34563 
L 98.543895 155.34563 
L 98.543895 155.308975 
L 57.534386 155.308975 
z
" clip-path="url(#pbbb28bbfe8)" style="fill: #f28e2b"/>
   </g>
   <g id="patch_9">
    <path d="M 110.11068 190.461145 
L 151.120189 190.461145 
L 151.120189 189.544769 
L 110.11068 189.544769 
z
" clip-path="url(#pbbb28bbfe8)" style="fill: #f28e2b"/>
   </g>
   <g id="patch_10">
    <path d="M 162.686973 191.340865 
L 203.696482 191.340865 
L 203.696482 183.386725 
L 162.686973 183.386725 
z
" clip-path="url(#pbbb28bbfe8)" style="fill: #f28e2b"/>
   </g>
   <g id="patch_11">
    <path d="M 215.263267 191.340865 
L 256.272776 191.340865 
L 256.272776 173.196628 
L 215.263267 173.196628 
z
" clip-path="url(#pbbb28bbfe8)" style="fill: #f28e2b"/>
   </g>
   <g id="patch_12">
    <path d="M 267.839561 191.340865 
L 308.84907 191.340865 
L 308.84907 91.675851 
L 267.839561 91.675851 
z
" clip-path="url(#pbbb28bbfe8)" style="fill: #f28e2b"/>
   </g>
   <g id="patch_13">
    <path d="M 57.534386 155.308975 
L 98.543895 155.308975 
L 98.543895 108.683783 
L 57.534386 108.683783 
z
" clip-path="url(#pbbb28bbfe8)" style="fill: #59a14f"/>
   </g>
   <g id="patch_14">
    <path d="M 110.11068 189.544769 
L 151.120189 189.544769 
L 151.120189 91.639196 
L 110.11068 91.639196 
z
" clip-path="url(#pbbb28bbfe8)" style="fill: #59a14f"/>
   </g>
   <g id="patch_15">
    <path d="M 162.686973 183.386725 
L 203.696482 183.386725 
L 203.696482 166.781998 
L 162.686973 166.781998 
z
" clip-path="url(#pbbb28bbfe8)" style="fill: #59a14f"/>
   </g>
   <g id="patch_16">
    <path d="M 215.263267 173.196628 
L 256.272776 173.196628 
L 256.272776 166.195518 
L 215.263267 166.195518 
z
" clip-path="url(#pbbb28bbfe8)" style="fill: #59a14f"/>
   </g>
   <g id="patch_17">
    <path d="M 267.839561 91.675851 
L 308.84907 91.675851 
L 308.84907 90.466235 
L 267.839561 90.466235 
z
" clip-path="url(#pbbb28bbfe8)" style="fill: #59a14f"/>
   </g>
   <g id="patch_18">
    <path d="M 57.534386 108.683783 
L 98.543895 108.683783 
L 98.543895 108.647128 
L 57.534386 108.647128 
z
" clip-path="url(#pbbb28bbfe8)" style="fill: #e15759"/>
   </g>
   <g id="patch_19">
    <path d="M 110.11068 91.639196 
L 151.120189 91.639196 
L 151.120189 89.329929 
L 110.11068 89.329929 
z
" clip-path="url(#pbbb28bbfe8)" style="fill: #e15759"/>
   </g>
   <g id="patch_20">
    <path d="M 162.686973 166.781998 
L 203.696482 166.781998 
L 203.696482 148.857691 
L 162.686973 148.857691 
z
" clip-path="url(#pbbb28bbfe8)" style="fill: #e15759"/>
   </g>
   <g id="patch_21">
    <path d="M 215.263267 166.195518 
L 256.272776 166.195518 
L 256.272776 142.369751 
L 215.263267 142.369751 
z
" clip-path="url(#pbbb28bbfe8)" style="fill: #e15759"/>
   </g>
   <g id="patch_22">
    <path d="M 267.839561 90.466235 
L 308.84907 90.466235 
L 308.84907 85.407841 
L 267.839561 85.407841 
z
" clip-path="url(#pbbb28bbfe8)" style="fill: #e15759"/>
   </g>
   <g id="patch_23">
    <path d="M 57.534386 108.647128 
L 98.543895 108.647128 
L 98.543895 108.317232 
L 57.534386 108.317232 
z
" clip-path="url(#pbbb28bbfe8)" style="fill: #76b7b2"/>
   </g>
   <g id="patch_24">
    <path d="M 110.11068 89.329929 
L 151.120189 89.329929 
L 151.120189 59.895943 
L 110.11068 59.895943 
z
" clip-path="url(#pbbb28bbfe8)" style="fill: #76b7b2"/>
   </g>
   <g id="patch_25">
    <path d="M 162.686973 148.857691 
L 203.696482 148.857691 
L 203.696482 75.474329 
L 162.686973 75.474329 
z
" clip-path="url(#pbbb28bbfe8)" style="fill: #76b7b2"/>
   </g>
   <g id="patch_26">
    <path d="M 215.263267 142.369751 
L 256.272776 142.369751 
L 256.272776 63.304861 
L 215.263267 63.304861 
z
" clip-path="url(#pbbb28bbfe8)" style="fill: #76b7b2"/>
   </g>
   <g id="patch_27">
    <path d="M 267.839561 85.407841 
L 308.84907 85.407841 
L 308.84907 71.185691 
L 267.839561 71.185691 
z
" clip-path="url(#pbbb28bbfe8)" style="fill: #76b7b2"/>
   </g>
   <g id="patch_28">
    <path d="M 57.534386 108.317232 
L 98.543895 108.317232 
L 98.543895 104.065249 
L 57.534386 104.065249 
z
" clip-path="url(#pbbb28bbfe8)" style="fill: #b07aa1"/>
   </g>
   <g id="patch_29">
    <path d="M 110.11068 59.895943 
L 151.120189 59.895943 
L 151.120189 38.745994 
L 110.11068 38.745994 
z
" clip-path="url(#pbbb28bbfe8)" style="fill: #b07aa1"/>
   </g>
   <g id="patch_30">
    <path d="M 162.686973 75.474329 
L 203.696482 75.474329 
L 203.696482 71.185691 
L 162.686973 71.185691 
z
" clip-path="url(#pbbb28bbfe8)" style="fill: #b07aa1"/>
   </g>
   <g id="patch_31">
    <path d="M 215.263267 63.304861 
L 256.272776 63.304861 
L 256.272776 57.000196 
L 215.263267 57.000196 
z
" clip-path="url(#pbbb28bbfe8)" style="fill: #b07aa1"/>
   </g>
   <g id="patch_32">
    <path d="M 267.839561 71.185691 
L 308.84907 71.185691 
L 308.84907 69.20632 
L 267.839561 69.20632 
z
" clip-path="url(#pbbb28bbfe8)" style="fill: #b07aa1"/>
   </g>
   <g id="matplotlib.axis_1">
    <g id="xtick_1">
     <g id="line2d_1">
      <defs>
       <path id="m7f5392acb3" d="M 0 0 
L 0 3.5 
" style="stroke: #000000; stroke-width: 0.8"/>
      </defs>
      <g>
       <use xlink:href="#m7f5392acb3" x="78.03914" y="191.340865" style="stroke: #000000; stroke-width: 0.8"/>
      </g>
     </g>
     <g id="text_1">
      <text style="font-size: 8px; font-family: 'Arial', 'Helvetica', 'DejaVu Sans', sans-serif; text-anchor: middle" x="78.03914" y="204.419615" transform="rotate(-0 78.03914 204.419615)">0</text>
     </g>
    </g>
    <g id="xtick_2">
     <g id="line2d_2">
      <g>
       <use xlink:href="#m7f5392acb3" x="130.615434" y="191.340865" style="stroke: #000000; stroke-width: 0.8"/>
      </g>
     </g>
     <g id="text_2">
      <text style="font-size: 8px; font-family: 'Arial', 'Helvetica', 'DejaVu Sans', sans-serif; text-anchor: middle" x="130.615434" y="204.419615" transform="rotate(-0 130.615434 204.419615)">1</text>
     </g>
    </g>
    <g id="xtick_3">
     <g id="line2d_3">
      <g>
       <use xlink:href="#m7f5392acb3" x="183.191728" y="191.340865" style="stroke: #000000; stroke-width: 0.8"/>
      </g>
     </g>
     <g id="text_3">
      <text style="font-size: 8px; font-family: 'Arial', 'Helvetica', 'DejaVu Sans', sans-serif; text-anchor: middle" x="183.191728" y="204.419615" transform="rotate(-0 183.191728 204.419615)">2</text>
     </g>
    </g>
    <g id="xtick_4">
     <g id="line2d_4">
      <g>
       <use xlink:href="#m7f5392acb3" x="235.768022" y="191.340865" style="stroke: #000000; stroke-width: 0.8"/>
      </g>
     </g>
     <g id="text_4">
      <text style="font-size: 8px; font-family: 'Arial', 'Helvetica', 'DejaVu Sans', sans-serif; text-anchor: middle" x="235.768022" y="204.419615" transform="rotate(-0 235.768022 204.419615)">3</text>
     </g>
    </g>
    <g id="xtick_5">
     <g id="line2d_5">
      <g>
       <use xlink:href="#m7f5392acb3" x="288.344315" y="191.340865" style="stroke: #000000; stroke-width: 0.8"/>
      </g>
     </g>
     <g id="text_5">
      <text style="font-size: 8px; font-family: 'Arial', 'Helvetica', 'DejaVu Sans', sans-serif; text-anchor: middle" x="288.344315" y="204.419615" transform="rotate(-0 288.344315 204.419615)">4</text>
     </g>
    </g>
    <g id="text_6">
     <text style="font-size: 9px; font-family: 'Arial', 'Helvetica', 'DejaVu Sans', sans-serif; text-anchor: middle" x="183.191728" y="216.921959" transform="rotate(-0 183.191728 216.921959)">time label</text>
    </g>
   </g>
   <g id="matplotlib.axis_2">
    <g id="ytick_1">
     <g id="line2d_6">
      <defs>
       <path id="m81900df13c" d="M 0 0 
L -3.5 0 
" style="stroke: #000000; stroke-width: 0.8"/>
      </defs>
      <g>
       <use xlink:href="#m81900df13c" x="44.390313" y="191.340865" style="stroke: #000000; stroke-width: 0.8"/>
      </g>
     </g>
     <g id="text_7">
      <text style="font-size: 8px; font-family: 'Arial', 'Helvetica', 'DejaVu Sans', sans-serif; text-anchor: end" x="37.390313" y="194.38024" transform="rotate(-0 37.390313 194.38024)">0</text>
     </g>
    </g>
    <g id="ytick_2">
     <g id="line2d_7">
      <g>
       <use xlink:href="#m81900df13c" x="44.390313" y="173.013353" style="stroke: #000000; stroke-width: 0.8"/>
      </g>
     </g>
     <g id="text_8">
      <text style="font-size: 8px; font-family: 'Arial', 'Helvetica', 'DejaVu Sans', sans-serif; text-anchor: end" x="37.390313" y="176.052728" transform="rotate(-0 37.390313 176.052728)">500</text>
     </g>
    </g>
    <g id="ytick_3">
     <g id="line2d_8">
      <g>
       <use xlink:href="#m81900df13c" x="44.390313" y="154.68584" style="stroke: #000000; stroke-width: 0.8"/>
      </g>
     </g>
     <g id="text_9">
      <text style="font-size: 8px; font-family: 'Arial', 'Helvetica', 'DejaVu Sans', sans-serif; text-anchor: end" x="37.390313" y="157.725215" transform="rotate(-0 37.390313 157.725215)">1000</text>
     </g>
    </g>
    <g id="ytick_4">
     <g id="line2d_9">
      <g>
       <use xlink:href="#m81900df13c" x="44.390313" y="136.358327" style="stroke: #000000; stroke-width: 0.8"/>
      </g>
     </g>
     <g id="text_10">
      <text style="font-size: 8px; font-family: 'Arial', 'Helvetica', 'DejaVu Sans', sans-serif; text-anchor: end" x="37.390313" y="139.397702" transform="rotate(-0 37.390313 139.397702)">1500</text>
     </g>
    </g>
    <g id="ytick_5">
     <g id="line2d_10">
      <g>
       <use xlink:href="#m81900df13c" x="44.390313" y="118.030814" style="stroke: #000000; stroke-width: 0.8"/>
      </g>
     </g>
     <g id="text_11">
      <text style="font-size: 8px; font-family: 'Arial', 'Helvetica', 'DejaVu Sans', sans-serif; text-anchor: end" x="37.390313" y="121.070189" transform="rotate(-0 37.390313 121.070189)">2000</text>
     </g>
    </g>
    <g id="ytick_6">
     <g id="line2d_11">
      <g>
       <use xlink:href="#m81900df13c" x="44.390313" y="99.703301" style="stroke: #000000; stroke-width: 0.8"/>
      </g>
     </g>
     <g id="text_12">
      <text style="font-size: 8px; font-family: 'Arial', 'Helvetica', 'DejaVu Sans', sans-serif; text-anchor: end" x="37.390313" y="102.742676" transform="rotate(-0 37.390313 102.742676)">2500</text>
     </g>
    </g>
    <g id="ytick_7">
     <g id="line2d_12">
      <g>
       <use xlink:href="#m81900df13c" x="44.390313" y="81.375788" style="stroke: #000000; stroke-width: 0.8"/>
      </g>
     </g>
     <g id="text_13">
      <text style="font-size: 8px; font-family: 'Arial', 'Helvetica', 'DejaVu Sans', sans-serif; text-anchor: end" x="37.390313" y="84.415163" transform="rotate(-0 37.390313 84.415163)">3000</text>
     </g>
    </g>
    <g id="ytick_8">
     <g id="line2d_13">
      <g>
       <use xlink:href="#m81900df13c" x="44.390313" y="63.048276" style="stroke: #000000; stroke-width: 0.8"/>
      </g>
     </g>
     <g id="text_14">
      <text style="font-size: 8px; font-family: 'Arial', 'Helvetica', 'DejaVu Sans', sans-serif; text-anchor: end" x="37.390313" y="66.087651" transform="rotate(-0 37.390313 66.087651)">3500</text>
     </g>
    </g>
    <g id="ytick_9">
     <g id="line2d_14">
      <g>
       <use xlink:href="#m81900df13c" x="44.390313" y="44.720763" style="stroke: #000000; stroke-width: 0.8"/>
      </g>
     </g>
     <g id="text_15">
      <text style="font-size: 8px; font-family: 'Arial', 'Helvetica', 'DejaVu Sans', sans-serif; text-anchor: end" x="37.390313" y="47.760138" transform="rotate(-0 37.390313 47.760138)">4000</text>
     </g>
    </g>
    <g id="text_16">
     <text style="font-size: 9px; font-family: 'Arial', 'Helvetica', 'DejaVu Sans', sans-serif; text-anchor: middle" x="11.158594" y="111.228558" transform="rotate(-90 11.158594 111.228558)">observed/sample cells</text>
    </g>
   </g>
   <g id="patch_33">
    <path d="M 44.390313 191.340865 
L 44.390313 31.11625 
" style="fill: none; stroke: #000000; stroke-width: 0.8; stroke-linejoin: miter; stroke-linecap: square"/>
   </g>
   <g id="patch_34">
    <path d="M 44.390312 191.340865 
L 321.993143 191.340865 
" style="fill: none; stroke: #000000; stroke-width: 0.8; stroke-linejoin: miter; stroke-linecap: square"/>
   </g>
   <g id="text_17">
    <text style="font-size: 10px; font-family: 'Arial', 'Helvetica', 'DejaVu Sans', sans-serif" transform="translate(44.390313 11.918437)">Raw observed EB counts</text>
    <text style="font-size: 10px; font-family: 'Arial', 'Helvetica', 'DejaVu Sans', sans-serif" transform="translate(44.390313 23.11625)">sampling-depth proxy, not calibrated abundance</text>
   </g>
   <g id="legend_1">
    <g id="text_18">
     <text style="font-size: 9px; font-family: 'Arial', 'Helvetica', 'DejaVu Sans', sans-serif; text-anchor: start" x="330.7452" y="41.154844" transform="rotate(-0 330.7452 41.154844)">state bin</text>
    </g>
    <g id="patch_35">
     <path d="M 336.788247 53.105312 
L 352.788247 53.105312 
L 352.788247 47.505312 
L 336.788247 47.505312 
z
" style="fill: #4e79a7"/>
    </g>
    <g id="text_19">
     <text style="font-size: 8px; font-family: 'Arial', 'Helvetica', 'DejaVu Sans', sans-serif; text-anchor: start" x="359.188247" y="53.105312" transform="rotate(-0 359.188247 53.105312)">0</text>
    </g>
    <g id="patch_36">
     <path d="M 336.788247 64.847813 
L 352.788247 64.847813 
L 352.788247 59.247813 
L 336.788247 59.247813 
z
" style="fill: #f28e2b"/>
    </g>
    <g id="text_20">
     <text style="font-size: 8px; font-family: 'Arial', 'Helvetica', 'DejaVu Sans', sans-serif; text-anchor: start" x="359.188247" y="64.847813" transform="rotate(-0 359.188247 64.847813)">1</text>
    </g>
    <g id="patch_37">
     <path d="M 336.788247 76.590312 
L 352.788247 76.590312 
L 352.788247 70.990312 
L 336.788247 70.990312 
z
" style="fill: #59a14f"/>
    </g>
    <g id="text_21">
     <text style="font-size: 8px; font-family: 'Arial', 'Helvetica', 'DejaVu Sans', sans-serif; text-anchor: start" x="359.188247" y="76.590312" transform="rotate(-0 359.188247 76.590312)">2</text>
    </g>
    <g id="patch_38">
     <path d="M 336.788247 88.332812 
L 352.788247 88.332812 
L 352.788247 82.732812 
L 336.788247 82.732812 
z
" style="fill: #e15759"/>
    </g>
    <g id="text_22">
     <text style="font-size: 8px; font-family: 'Arial', 'Helvetica', 'DejaVu Sans', sans-serif; text-anchor: start" x="359.188247" y="88.332812" transform="rotate(-0 359.188247 88.332812)">3</text>
    </g>
    <g id="patch_39">
     <path d="M 336.788247 100.075312 
L 352.788247 100.075312 
L 352.788247 94.475313 
L 336.788247 94.475313 
z
" style="fill: #76b7b2"/>
    </g>
    <g id="text_23">
     <text style="font-size: 8px; font-family: 'Arial', 'Helvetica', 'DejaVu Sans', sans-serif; text-anchor: start" x="359.188247" y="100.075312" transform="rotate(-0 359.188247 100.075312)">4</text>
    </g>
    <g id="patch_40">
     <path d="M 336.788247 111.817813 
L 352.788247 111.817813 
L 352.788247 106.217813 
L 336.788247 106.217813 
z
" style="fill: #b07aa1"/>
    </g>
    <g id="text_24">
     <text style="font-size: 8px; font-family: 'Arial', 'Helvetica', 'DejaVu Sans', sans-serif; text-anchor: start" x="359.188247" y="111.817813" transform="rotate(-0 359.188247 111.817813)">5</text>
    </g>
   </g>
  </g>
 </g>
 <defs>
  <clipPath id="pbbb28bbfe8">
   <rect x="44.390313" y="31.11625" width="277.602831" height="160.224615"/>
  </clipPath>
 </defs>
</svg>
