<?xml version="1.0" encoding="utf-8" standalone="no"?>
<!DOCTYPE svg PUBLIC "-//W3C//DTD SVG 1.1//EN"
  "http://www.w3.org/Graphics/SVG/1.1/DTD/svg11.dtd">
<svg xmlns:xlink="http://www.w3.org/1999/xlink" width="378.042101pt" height="223.113678pt" viewBox="0 0 378.042101 223.113678" xmlns="http://www.w3.org/2000/svg" version="1.1">
 <metadata>
  <rdf:RDF xmlns:dc="http://purl.org/dc/elements/1.1/" xmlns:cc="http://creativecommons.org/ns#" xmlns:rdf="http://www.w3.org/1999/02/22-rdf-syntax-ns#">
   <cc:Work>
    <dc:type rdf:resource="http://purl.org/dc/dcmitype/StillImage"/>
    <dc:date>2026-06-05T01:40:30.691334</dc:date>
    <dc:format>image/svg+xml</dc:format>
    <dc:creator>
     <cc:Agent>
      <dc:title>Matplotlib v3.10.0, https://matplotlib.org/</dc:title>
     </cc:Agent>
    </dc:creator>
   </cc:Work>
  </rdf:RDF>
 </metadata>
 <defs>
  <style type="text/css">*{stroke-linejoin: round; stroke-linecap: butt}</style>
 </defs>
 <g id="figure_1">
  <g id="patch_1">
   <path d="M 0 223.113678 
L 378.042101 223.113678 
L 378.042101 0 
L 0 0 
z
" style="fill: #ffffff"/>
  </g>
  <g id="axes_1">
   <g id="patch_2">
    <path d="M 36.752813 191.340865 
L 322.040259 191.340865 
L 322.040259 31.11625 
L 36.752813 31.11625 
z
" style="fill: #ffffff"/>
   </g>
   <g id="patch_3">
    <path d="M 50.260741 191.340865 
L 92.405477 191.340865 
L 92.405477 125.259147 
L 50.260741 125.259147 
z
" clip-path="url(#p9d0748e7dc)" style="fill: #4e79a7"/>
   </g>
   <g id="patch_4">
    <path d="M 104.292454 191.340865 
L 146.43719 191.340865 
L 146.43719 190.533349 
L 104.292454 190.533349 
z
" clip-path="url(#p9d0748e7dc)" style="fill: #4e79a7"/>
   </g>
   <g id="patch_5">
    <path d="M 158.324167 191.340865 
L 200.468904 191.340865 
L 200.468904 191.340865 
L 158.324167 191.340865 
z
" clip-path="url(#p9d0748e7dc)" style="fill: #4e79a7"/>
   </g>
   <g id="patch_6">
    <path d="M 212.355881 191.340865 
L 254.500617 191.340865 
L 254.500617 191.340865 
L 212.355881 191.340865 
z
" clip-path="url(#p9d0748e7dc)" style="fill: #4e79a7"/>
   </g>
   <g id="patch_7">
    <path d="M 266.387594 191.340865 
L 308.53233 191.340865 
L 308.53233 191.340865 
L 266.387594 191.340865 
z
" clip-path="url(#p9d0748e7dc)" style="fill: #4e79a7"/>
   </g>
   <g id="patch_8">
    <path d="M 50.260741 125.259147 
L 92.405477 125.259147 
L 92.405477 125.191854 
L 50.260741 125.191854 
z
" clip-path="url(#p9d0748e7dc)" style="fill: #f28e2b"/>
   </g>
   <g id="patch_9">
    <path d="M 104.292454 190.533349 
L 146.43719 190.533349 
L 146.43719 189.523955 
L 104.292454 189.523955 
z
" clip-path="url(#p9d0748e7dc)" style="fill: #f28e2b"/>
   </g>
   <g id="patch_10">
    <path d="M 158.324167 191.340865 
L 200.468904 191.340865 
L 200.468904 181.045038 
L 158.324167 181.045038 
z
" clip-path="url(#p9d0748e7dc)" style="fill: #f28e2b"/>
   </g>
   <g id="patch_11">
    <path d="M 212.355881 191.340865 
L 254.500617 191.340865 
L 254.500617 168.461248 
L 212.355881 168.461248 
z
" clip-path="url(#p9d0748e7dc)" style="fill: #f28e2b"/>
   </g>
   <g id="patch_12">
    <path d="M 266.387594 191.340865 
L 308.53233 191.340865 
L 308.53233 61.667269 
L 266.387594 61.667269 
z
" clip-path="url(#p9d0748e7dc)" style="fill: #f28e2b"/>
   </g>
   <g id="patch_13">
    <path d="M 50.260741 125.191854 
L 92.405477 125.191854 
L 92.405477 39.595167 
L 50.260741 39.595167 
z
" clip-path="url(#p9d0748e7dc)" style="fill: #59a14f"/>
   </g>
   <g id="patch_14">
    <path d="M 104.292454 189.523955 
L 146.43719 189.523955 
L 146.43719 84.4123 
L 104.292454 84.4123 
z
" clip-path="url(#p9d0748e7dc)" style="fill: #59a14f"/>
   </g>
   <g id="patch_15">
    <path d="M 158.324167 181.045038 
L 200.468904 181.045038 
L 200.468904 159.578573 
L 158.324167 159.578573 
z
" clip-path="url(#p9d0748e7dc)" style="fill: #59a14f"/>
   </g>
   <g id="patch_16">
    <path d="M 212.355881 168.461248 
L 254.500617 168.461248 
L 254.500617 159.713159 
L 212.355881 159.713159 
z
" clip-path="url(#p9d0748e7dc)" style="fill: #59a14f"/>
   </g>
   <g id="patch_17">
    <path d="M 266.387594 61.667269 
L 308.53233 61.667269 
L 308.53233 59.984944 
L 266.387594 59.984944 
z
" clip-path="url(#p9d0748e7dc)" style="fill: #59a14f"/>
   </g>
   <g id="patch_18">
    <path d="M 50.260741 39.595167 
L 92.405477 39.595167 
L 92.405477 39.527874 
L 50.260741 39.527874 
z
" clip-path="url(#p9d0748e7dc)" style="fill: #e15759"/>
   </g>
   <g id="patch_19">
    <path d="M 104.292454 84.4123 
L 146.43719 84.4123 
L 146.43719 82.191631 
L 104.292454 82.191631 
z
" clip-path="url(#p9d0748e7dc)" style="fill: #e15759"/>
   </g>
   <g id="patch_20">
    <path d="M 158.324167 159.578573 
L 200.468904 159.578573 
L 200.468904 134.882045 
L 158.324167 134.882045 
z
" clip-path="url(#p9d0748e7dc)" style="fill: #e15759"/>
   </g>
   <g id="patch_21">
    <path d="M 212.355881 159.713159 
L 254.500617 159.713159 
L 254.500617 132.190325 
L 212.355881 132.190325 
z
" clip-path="url(#p9d0748e7dc)" style="fill: #e15759"/>
   </g>
   <g id="patch_22">
    <path d="M 266.387594 59.984944 
L 308.53233 59.984944 
L 308.53233 53.457524 
L 266.387594 53.457524 
z
" clip-path="url(#p9d0748e7dc)" style="fill: #e15759"/>
   </g>
   <g id="patch_23">
    <path d="M 50.260741 39.527874 
L 92.405477 39.527874 
L 92.405477 38.922237 
L 50.260741 38.922237 
z
" clip-path="url(#p9d0748e7dc)" style="fill: #76b7b2"/>
   </g>
   <g id="patch_24">
    <path d="M 104.292454 82.191631 
L 146.43719 82.191631 
L 146.43719 52.515422 
L 104.292454 52.515422 
z
" clip-path="url(#p9d0748e7dc)" style="fill: #76b7b2"/>
   </g>
   <g id="patch_25">
    <path d="M 158.324167 134.882045 
L 200.468904 134.882045 
L 200.468904 37.307205 
L 158.324167 37.307205 
z
" clip-path="url(#p9d0748e7dc)" style="fill: #76b7b2"/>
   </g>
   <g id="patch_26">
    <path d="M 212.355881 132.190325 
L 254.500617 132.190325 
L 254.500617 38.720358 
L 212.355881 38.720358 
z
" clip-path="url(#p9d0748e7dc)" style="fill: #76b7b2"/>
   </g>
   <g id="patch_27">
    <path d="M 266.387594 53.457524 
L 308.53233 53.457524 
L 308.53233 33.80797 
L 266.387594 33.80797 
z
" clip-path="url(#p9d0748e7dc)" style="fill: #76b7b2"/>
   </g>
   <g id="patch_28">
    <path d="M 50.260741 38.922237 
L 92.405477 38.922237 
L 92.405477 31.11625 
L 50.260741 31.11625 
z
" clip-path="url(#p9d0748e7dc)" style="fill: #b07aa1"/>
   </g>
   <g id="patch_29">
    <path d="M 104.292454 52.515422 
L 146.43719 52.515422 
L 146.43719 31.11625 
L 104.292454 31.11625 
z
" clip-path="url(#p9d0748e7dc)" style="fill: #b07aa1"/>
   </g>
   <g id="patch_30">
    <path d="M 158.324167 37.307205 
L 200.468904 37.307205 
L 200.468904 31.11625 
L 158.324167 31.11625 
z
" clip-path="url(#p9d0748e7dc)" style="fill: #b07aa1"/>
   </g>
   <g id="patch_31">
    <path d="M 212.355881 38.720358 
L 254.500617 38.720358 
L 254.500617 31.11625 
L 212.355881 31.11625 
z
" clip-path="url(#p9d0748e7dc)" style="fill: #b07aa1"/>
   </g>
   <g id="patch_32">
    <path d="M 266.387594 33.80797 
L 308.53233 33.80797 
L 308.53233 31.11625 
L 266.387594 31.11625 
z
" clip-path="url(#p9d0748e7dc)" style="fill: #b07aa1"/>
   </g>
   <g id="matplotlib.axis_1">
    <g id="xtick_1">
     <g id="line2d_1">
      <defs>
       <path id="m9807e88689" d="M 0 0 
L 0 3.5 
" style="stroke: #000000; stroke-width: 0.8"/>
      </defs>
      <g>
       <use xlink:href="#m9807e88689" x="71.333109" y="191.340865" style="stroke: #000000; stroke-width: 0.8"/>
      </g>
     </g>
     <g id="text_1">
      <text style="font-size: 8px; font-family: 'Arial', 'Helvetica', 'DejaVu Sans', sans-serif; text-anchor: middle" x="71.333109" y="204.419615" transform="rotate(-0 71.333109 204.419615)">0</text>
     </g>
    </g>
    <g id="xtick_2">
     <g id="line2d_2">
      <g>
       <use xlink:href="#m9807e88689" x="125.364822" y="191.340865" style="stroke: #000000; stroke-width: 0.8"/>
      </g>
     </g>
     <g id="text_2">
      <text style="font-size: 8px; font-family: 'Arial', 'Helvetica', 'DejaVu Sans', sans-serif; text-anchor: middle" x="125.364822" y="204.419615" transform="rotate(-0 125.364822 204.419615)">1</text>
     </g>
    </g>
    <g id="xtick_3">
     <g id="line2d_3">
      <g>
       <use xlink:href="#m9807e88689" x="179.396536" y="191.340865" style="stroke: #000000; stroke-width: 0.8"/>
      </g>
     </g>
     <g id="text_3">
      <text style="font-size: 8px; font-family: 'Arial', 'Helvetica', 'DejaVu Sans', sans-serif; text-anchor: middle" x="179.396536" y="204.419615" transform="rotate(-0 179.396536 204.419615)">2</text>
     </g>
    </g>
    <g id="xtick_4">
     <g id="line2d_4">
      <g>
       <use xlink:href="#m9807e88689" x="233.428249" y="191.340865" style="stroke: #000000; stroke-width: 0.8"/>
      </g>
     </g>
     <g id="text_4">
      <text style="font-size: 8px; font-family: 'Arial', 'Helvetica', 'DejaVu Sans', sans-serif; text-anchor: middle" x="233.428249" y="204.419615" transform="rotate(-0 233.428249 204.419615)">3</text>
     </g>
    </g>
    <g id="xtick_5">
     <g id="line2d_5">
      <g>
       <use xlink:href="#m9807e88689" x="287.459962" y="191.340865" style="stroke: #000000; stroke-width: 0.8"/>
      </g>
     </g>
     <g id="text_5">
      <text style="font-size: 8px; font-family: 'Arial', 'Helvetica', 'DejaVu Sans', sans-serif; text-anchor: middle" x="287.459962" y="204.419615" transform="rotate(-0 287.459962 204.419615)">4</text>
     </g>
    </g>
    <g id="text_6">
     <text style="font-size: 9px; font-family: 'Arial', 'Helvetica', 'DejaVu Sans', sans-serif; text-anchor: middle" x="179.396536" y="216.921959" transform="rotate(-0 179.396536 216.921959)">time label</text>
    </g>
   </g>
   <g id="matplotlib.axis_2">
    <g id="ytick_1">
     <g id="line2d_6">
      <defs>
       <path id="mcc38a0291d" d="M 0 0 
L -3.5 0 
" style="stroke: #000000; stroke-width: 0.8"/>
      </defs>
      <g>
       <use xlink:href="#mcc38a0291d" x="36.752813" y="191.340865" style="stroke: #000000; stroke-width: 0.8"/>
      </g>
     </g>
     <g id="text_7">
      <text style="font-size: 8px; font-family: 'Arial', 'Helvetica', 'DejaVu Sans', sans-serif; text-anchor: end" x="29.752813" y="194.38024" transform="rotate(-0 29.752813 194.38024)">0.0</text>
     </g>
    </g>
    <g id="ytick_2">
     <g id="line2d_7">
      <g>
       <use xlink:href="#mcc38a0291d" x="36.752813" y="159.295942" style="stroke: #000000; stroke-width: 0.8"/>
      </g>
     </g>
     <g id="text_8">
      <text style="font-size: 8px; font-family: 'Arial', 'Helvetica', 'DejaVu Sans', sans-serif; text-anchor: end" x="29.752813" y="162.335317" transform="rotate(-0 29.752813 162.335317)">0.2</text>
     </g>
    </g>
    <g id="ytick_3">
     <g id="line2d_8">
      <g>
       <use xlink:href="#mcc38a0291d" x="36.752813" y="127.251019" style="stroke: #000000; stroke-width: 0.8"/>
      </g>
     </g>
     <g id="text_9">
      <text style="font-size: 8px; font-family: 'Arial', 'Helvetica', 'DejaVu Sans', sans-serif; text-anchor: end" x="29.752813" y="130.290394" transform="rotate(-0 29.752813 130.290394)">0.4</text>
     </g>
    </g>
    <g id="ytick_4">
     <g id="line2d_9">
      <g>
       <use xlink:href="#mcc38a0291d" x="36.752813" y="95.206096" style="stroke: #000000; stroke-width: 0.8"/>
      </g>
     </g>
     <g id="text_10">
      <text style="font-size: 8px; font-family: 'Arial', 'Helvetica', 'DejaVu Sans', sans-serif; text-anchor: end" x="29.752813" y="98.245471" transform="rotate(-0 29.752813 98.245471)">0.6</text>
     </g>
    </g>
    <g id="ytick_5">
     <g id="line2d_10">
      <g>
       <use xlink:href="#mcc38a0291d" x="36.752813" y="63.161173" style="stroke: #000000; stroke-width: 0.8"/>
      </g>
     </g>
     <g id="text_11">
      <text style="font-size: 8px; font-family: 'Arial', 'Helvetica', 'DejaVu Sans', sans-serif; text-anchor: end" x="29.752813" y="66.200548" transform="rotate(-0 29.752813 66.200548)">0.8</text>
     </g>
    </g>
    <g id="ytick_6">
     <g id="line2d_11">
      <g>
       <use xlink:href="#mcc38a0291d" x="36.752813" y="31.11625" style="stroke: #000000; stroke-width: 0.8"/>
      </g>
     </g>
     <g id="text_12">
      <text style="font-size: 8px; font-family: 'Arial', 'Helvetica', 'DejaVu Sans', sans-serif; text-anchor: end" x="29.752813" y="34.155625" transform="rotate(-0 29.752813 34.155625)">1.0</text>
     </g>
    </g>
    <g id="text_13">
     <text style="font-size: 9px; font-family: 'Arial', 'Helvetica', 'DejaVu Sans', sans-serif; text-anchor: middle" x="11.158594" y="111.228558" transform="rotate(-90 11.158594 111.228558)">state-bin proportion</text>
    </g>
   </g>
   <g id="patch_33">
    <path d="M 36.752813 191.340865 
L 36.752813 31.11625 
" style="fill: none; stroke: #000000; stroke-width: 0.8; stroke-linejoin: miter; stroke-linecap: square"/>
   </g>
   <g id="patch_34">
    <path d="M 36.752813 191.340865 
L 322.040259 191.340865 
" style="fill: none; stroke: #000000; stroke-width: 0.8; stroke-linejoin: miter; stroke-linecap: square"/>
   </g>
   <g id="text_14">
    <text style="font-size: 10px; font-family: 'Arial', 'Helvetica', 'DejaVu Sans', sans-serif" transform="translate(36.752813 11.918437)">Equal-depth EB composition</text>
    <text style="font-size: 10px; font-family: 'Arial', 'Helvetica', 'DejaVu Sans', sans-serif" transform="translate(36.752813 23.11625)">equal-depth: n = 2381 per time point</text>
   </g>
   <g id="legend_1">
    <g id="text_15">
     <text style="font-size: 9px; font-family: 'Arial', 'Helvetica', 'DejaVu Sans', sans-serif; text-anchor: start" x="330.946008" y="41.154844" transform="rotate(-0 330.946008 41.154844)">state bin</text>
    </g>
    <g id="patch_35">
     <path d="M 336.989054 53.105312 
L 352.989054 53.105312 
L 352.989054 47.505312 
L 336.989054 47.505312 
z
" style="fill: #4e79a7"/>
    </g>
    <g id="text_16">
     <text style="font-size: 8px; font-family: 'Arial', 'Helvetica', 'DejaVu Sans', sans-serif; text-anchor: start" x="359.389054" y="53.105312" transform="rotate(-0 359.389054 53.105312)">0</text>
    </g>
    <g id="patch_36">
     <path d="M 336.989054 64.847813 
L 352.989054 64.847813 
L 352.989054 59.247813 
L 336.989054 59.247813 
z
" style="fill: #f28e2b"/>
    </g>
    <g id="text_17">
     <text style="font-size: 8px; font-family: 'Arial', 'Helvetica', 'DejaVu Sans', sans-serif; text-anchor: start" x="359.389054" y="64.847813" transform="rotate(-0 359.389054 64.847813)">1</text>
    </g>
    <g id="patch_37">
     <path d="M 336.989054 76.590312 
L 352.989054 76.590312 
L 352.989054 70.990312 
L 336.989054 70.990312 
z
" style="fill: #59a14f"/>
    </g>
    <g id="text_18">
     <text style="font-size: 8px; font-family: 'Arial', 'Helvetica', 'DejaVu Sans', sans-serif; text-anchor: start" x="359.389054" y="76.590312" transform="rotate(-0 359.389054 76.590312)">2</text>
    </g>
    <g id="patch_38">
     <path d="M 336.989054 88.332812 
L 352.989054 88.332812 
L 352.989054 82.732812 
L 336.989054 82.732812 
z
" style="fill: #e15759"/>
    </g>
    <g id="text_19">
     <text style="font-size: 8px; font-family: 'Arial', 'Helvetica', 'DejaVu Sans', sans-serif; text-anchor: start" x="359.389054" y="88.332812" transform="rotate(-0 359.389054 88.332812)">3</text>
    </g>
    <g id="patch_39">
     <path d="M 336.989054 100.075312 
L 352.989054 100.075312 
L 352.989054 94.475313 
L 336.989054 94.475313 
z
" style="fill: #76b7b2"/>
    </g>
    <g id="text_20">
     <text style="font-size: 8px; font-family: 'Arial', 'Helvetica', 'DejaVu Sans', sans-serif; text-anchor: start" x="359.389054" y="100.075312" transform="rotate(-0 359.389054 100.075312)">4</text>
    </g>
    <g id="patch_40">
     <path d="M 336.989054 111.817813 
L 352.989054 111.817813 
L 352.989054 106.217813 
L 336.989054 106.217813 
z
" style="fill: #b07aa1"/>
    </g>
    <g id="text_21">
     <text style="font-size: 8px; font-family: 'Arial', 'Helvetica', 'DejaVu Sans', sans-serif; text-anchor: start" x="359.389054" y="111.817813" transform="rotate(-0 359.389054 111.817813)">5</text>
    </g>
   </g>
  </g>
 </g>
 <defs>
  <clipPath id="p9d0748e7dc">
   <rect x="36.752813" y="31.11625" width="285.287446" height="160.224615"/>
  </clipPath>
 </defs>
</svg>
