<?xml version="1.0" encoding="utf-8" standalone="no"?>
<!DOCTYPE svg PUBLIC "-//W3C//DTD SVG 1.1//EN"
  "http://www.w3.org/Graphics/SVG/1.1/DTD/svg11.dtd">
<svg xmlns:xlink="http://www.w3.org/1999/xlink" width="340.202812pt" height="259.97125pt" viewBox="0 0 340.202812 259.97125" xmlns="http://www.w3.org/2000/svg" version="1.1">
 <metadata>
  <rdf:RDF xmlns:dc="http://purl.org/dc/elements/1.1/" xmlns:cc="http://creativecommons.org/ns#" xmlns:rdf="http://www.w3.org/1999/02/22-rdf-syntax-ns#">
   <cc:Work>
    <dc:type rdf:resource="http://purl.org/dc/dcmitype/StillImage"/>
    <dc:date>2026-06-04T18:48:40.758672</dc:date>
    <dc:format>image/svg+xml</dc:format>
    <dc:creator>
     <cc:Agent>
      <dc:title>Matplotlib v3.10.0, https://matplotlib.org/</dc:title>
     </cc:Agent>
    </dc:creator>
   </cc:Work>
  </rdf:RDF>
 </metadata>
 <defs>
  <style type="text/css">*{stroke-linejoin: round; stroke-linecap: butt}</style>
 </defs>
 <g id="figure_1">
  <g id="patch_1">
   <path d="M 0 259.97125 
L 340.202812 259.97125 
L 340.202812 0 
L 0 0 
z
" style="fill: #ffffff"/>
  </g>
  <g id="axes_1">
   <g id="patch_2">
    <path d="M 44.722813 225.318437 
L 333.002813 225.318437 
L 333.002813 20.798437 
L 44.722813 20.798437 
z
" style="fill: #ffffff"/>
   </g>
   <g id="line2d_1">
    <path d="M 44.722813 211.90729 
L 333.002813 211.90729 
" clip-path="url(#p25b492eb53)" style="fill: none; stroke: #777777; stroke-opacity: 0.3; stroke-width: 0.7; stroke-linecap: square"/>
   </g>
   <g id="line2d_2">
    <path d="M 52.88168 211.90729 
L 59.680737 203.863232 
L 66.479794 195.868768 
L 73.27885 187.973187 
L 80.077907 180.225168 
L 86.876963 172.67248 
L 93.67602 165.361687 
L 100.475077 158.337864 
L 107.274133 151.644314 
L 114.07319 145.322305 
L 120.872246 139.410814 
L 127.671303 133.946289 
L 134.47036 128.962419 
L 141.269416 124.489931 
L 148.068473 120.556401 
L 154.867529 117.18608 
L 161.666586 114.399746 
L 168.465643 112.214578 
L 175.264699 110.64405 
L 182.063756 109.697843 
L 188.862812 109.381791 
L 195.661869 109.697843 
L 202.460926 110.64405 
L 209.259982 112.214578 
L 216.059039 114.399746 
L 222.858096 117.18608 
L 229.657152 120.556401 
L 236.456209 124.489931 
L 243.255265 128.962419 
L 250.054322 133.946289 
L 256.853379 139.410814 
L 263.652435 145.322305 
L 270.451492 151.644314 
L 277.250548 158.337864 
L 284.049605 165.361687 
L 290.848662 172.67248 
L 297.647718 180.225168 
L 304.446775 187.973187 
L 311.245831 195.868768 
L 318.044888 203.863232 
L 324.843945 211.90729 
" clip-path="url(#p25b492eb53)" style="fill: none; stroke: #d55e00; stroke-opacity: 0.1; stroke-width: 0.8; stroke-linecap: square"/>
   </g>
   <g id="line2d_3">
    <path d="M 52.88168 211.90729 
L 59.680737 198.754459 
L 66.479794 185.682719 
L 73.27885 172.772662 
L 80.077907 160.103884 
L 86.876963 147.75449 
L 93.67602 135.80062 
L 100.475077 124.315973 
L 107.274133 113.371356 
L 114.07319 103.034245 
L 120.872246 93.368373 
L 127.671303 84.433333 
L 134.47036 76.284212 
L 141.269416 68.971252 
L 148.068473 62.539541 
L 154.867529 57.028731 
L 161.666586 52.472799 
L 168.465643 48.899834 
L 175.264699 46.331864 
L 182.063756 44.784722 
L 188.862812 44.267946 
L 195.661869 44.784722 
L 202.460926 46.331864 
L 209.259982 48.899834 
L 216.059039 52.472799 
L 222.858096 57.028731 
L 229.657152 62.539541 
L 236.456209 68.971252 
L 243.255265 76.284212 
L 250.054322 84.433333 
L 256.853379 93.368373 
L 263.652435 103.034245 
L 270.451492 113.371356 
L 277.250548 124.315973 
L 284.049605 135.80062 
L 290.848662 147.75449 
L 297.647718 160.103884 
L 304.446775 172.772662 
L 311.245831 185.682719 
L 318.044888 198.754459 
L 324.843945 211.90729 
" clip-path="url(#p25b492eb53)" style="fill: none; stroke: #d55e00; stroke-opacity: 0.1; stroke-width: 0.8; stroke-linecap: square"/>
   </g>
   <g id="line2d_4">
    <path d="M 52.88168 211.90729 
L 59.680737 204.416644 
L 66.479794 196.97218 
L 73.27885 189.619796 
L 80.077907 182.404822 
L 86.876963 175.371741 
L 93.67602 168.563913 
L 100.475077 162.023311 
L 107.274133 155.790261 
L 114.07319 149.903191 
L 120.872246 144.398397 
L 127.671303 139.309818 
L 134.47036 134.668826 
L 141.269416 130.504035 
L 148.068473 126.841123 
L 154.867529 123.702671 
L 161.666586 121.10803 
L 168.465643 119.073197 
L 175.264699 117.610717 
L 182.063756 116.729607 
L 188.862812 116.435298 
L 195.661869 116.729607 
L 202.460926 117.610717 
L 209.259982 119.073197 
L 216.059039 121.10803 
L 222.858096 123.702671 
L 229.657152 126.841123 
L 236.456209 130.504035 
L 243.255265 134.668826 
L 250.054322 139.309818 
L 256.853379 144.398397 
L 263.652435 149.903191 
L 270.451492 155.790261 
L 277.250548 162.023311 
L 284.049605 168.563913 
L 290.848662 175.371741 
L 297.647718 182.404822 
L 304.446775 189.619796 
L 311.245831 196.97218 
L 318.044888 204.416644 
L 324.843945 211.90729 
" clip-path="url(#p25b492eb53)" style="fill: none; stroke: #d55e00; stroke-opacity: 0.1; stroke-width: 0.8; stroke-linecap: square"/>
   </g>
   <g id="line2d_5">
    <path d="M 52.88168 211.90729 
L 59.680737 207.842033 
L 66.479794 203.801839 
L 73.27885 199.811618 
L 80.077907 195.895971 
L 86.876963 192.079039 
L 93.67602 188.384355 
L 100.475077 184.834697 
L 107.274133 181.451951 
L 114.07319 178.256973 
L 120.872246 175.269459 
L 127.671303 172.507831 
L 134.47036 169.989113 
L 141.269416 167.728834 
L 148.068473 165.74093 
L 154.867529 164.037657 
L 161.666586 162.629517 
L 168.465643 161.52519 
L 175.264699 160.731486 
L 182.063756 160.253298 
L 188.862812 160.093573 
L 195.661869 160.253298 
L 202.460926 160.731486 
L 209.259982 161.52519 
L 216.059039 162.629517 
L 222.858096 164.037657 
L 229.657152 165.74093 
L 236.456209 167.728834 
L 243.255265 169.989113 
L 250.054322 172.507831 
L 256.853379 175.269459 
L 263.652435 178.256973 
L 270.451492 181.451951 
L 277.250548 184.834697 
L 284.049605 188.384355 
L 290.848662 192.079039 
L 297.647718 195.895971 
L 304.446775 199.811618 
L 311.245831 203.801839 
L 318.044888 207.842033 
L 324.843945 211.90729 
" clip-path="url(#p25b492eb53)" style="fill: none; stroke: #d55e00; stroke-opacity: 0.1; stroke-width: 0.8; stroke-linecap: square"/>
   </g>
   <g id="line2d_6">
    <path d="M 52.88168 211.90729 
L 59.680737 209.144068 
L 66.479794 206.397882 
L 73.27885 203.685663 
L 80.077907 201.024133 
L 86.876963 198.429702 
L 93.67602 195.918364 
L 100.475077 193.505604 
L 107.274133 191.206296 
L 114.07319 189.034616 
L 120.872246 187.003954 
L 127.671303 185.12683 
L 134.47036 183.414816 
L 141.269416 181.878467 
L 148.068473 180.527256 
L 154.867529 179.369514 
L 161.666586 178.412378 
L 168.465643 177.661749 
L 175.264699 177.122255 
L 182.063756 176.797222 
L 188.862812 176.688655 
L 195.661869 176.797222 
L 202.460926 177.122255 
L 209.259982 177.661749 
L 216.059039 178.412378 
L 222.858096 179.369514 
L 229.657152 180.527256 
L 236.456209 181.878467 
L 243.255265 183.414816 
L 250.054322 185.12683 
L 256.853379 187.003954 
L 263.652435 189.034616 
L 270.451492 191.206296 
L 277.250548 193.505604 
L 284.049605 195.918364 
L 290.848662 198.429702 
L 297.647718 201.024133 
L 304.446775 203.685663 
L 311.245831 206.397882 
L 318.044888 209.144068 
L 324.843945 211.90729 
" clip-path="url(#p25b492eb53)" style="fill: none; stroke: #d55e00; stroke-opacity: 0.1; stroke-width: 0.8; stroke-linecap: square"/>
   </g>
   <g id="line2d_7">
    <path d="M 52.88168 211.90729 
L 59.680737 204.932822 
L 66.479794 198.001355 
L 73.27885 191.155622 
L 80.077907 184.43783 
L 86.876963 177.889396 
L 93.67602 171.550694 
L 100.475077 165.460804 
L 107.274133 159.657272 
L 114.07319 154.175879 
L 120.872246 149.050419 
L 127.671303 144.312492 
L 134.47036 139.99131 
L 141.269416 136.113514 
L 148.068473 132.703011 
L 154.867529 129.78083 
L 161.666586 127.364985 
L 168.465643 125.470372 
L 175.264699 124.108671 
L 182.063756 123.288277 
L 188.862812 123.01425 
L 195.661869 123.288277 
L 202.460926 124.108671 
L 209.259982 125.470372 
L 216.059039 127.364985 
L 222.858096 129.78083 
L 229.657152 132.703011 
L 236.456209 136.113514 
L 243.255265 139.99131 
L 250.054322 144.312492 
L 256.853379 149.050419 
L 263.652435 154.175879 
L 270.451492 159.657272 
L 277.250548 165.460804 
L 284.049605 171.550694 
L 290.848662 177.889396 
L 297.647718 184.43783 
L 304.446775 191.155622 
L 311.245831 198.001355 
L 318.044888 204.932822 
L 324.843945 211.90729 
" clip-path="url(#p25b492eb53)" style="fill: none; stroke: #d55e00; stroke-opacity: 0.1; stroke-width: 0.8; stroke-linecap: square"/>
   </g>
   <g id="line2d_8">
    <path d="M 52.88168 211.90729 
L 59.680737 204.422029 
L 66.479794 196.982917 
L 73.27885 189.635818 
L 80.077907 182.426031 
L 86.876963 175.398005 
L 93.67602 168.595072 
L 100.475077 162.059172 
L 107.274133 155.830603 
L 114.07319 149.947765 
L 120.872246 144.446928 
L 127.671303 139.362007 
L 134.47036 134.724352 
L 141.269416 130.562555 
L 148.068473 126.902275 
L 154.867529 123.76608 
L 161.666586 121.173304 
L 168.465643 119.139934 
L 175.264699 117.678505 
L 182.063756 116.798028 
L 188.862812 116.503931 
L 195.661869 116.798028 
L 202.460926 117.678505 
L 209.259982 119.139934 
L 216.059039 121.173304 
L 222.858096 123.76608 
L 229.657152 126.902275 
L 236.456209 130.562555 
L 243.255265 134.724352 
L 250.054322 139.362007 
L 256.853379 144.446928 
L 263.652435 149.947765 
L 270.451492 155.830603 
L 277.250548 162.059172 
L 284.049605 168.595072 
L 290.848662 175.398005 
L 297.647718 182.426031 
L 304.446775 189.635818 
L 311.245831 196.982917 
L 318.044888 204.422029 
L 324.843945 211.90729 
" clip-path="url(#p25b492eb53)" style="fill: none; stroke: #d55e00; stroke-opacity: 0.1; stroke-width: 0.8; stroke-linecap: square"/>
   </g>
   <g id="line2d_9">
    <path d="M 52.88168 211.90729 
L 59.680737 199.353797 
L 66.479794 186.877701 
L 73.27885 174.555921 
L 80.077907 162.464425 
L 86.876963 150.67776 
L 93.67602 139.268595 
L 100.475077 128.307272 
L 107.274133 117.861371 
L 114.07319 107.995295 
L 120.872246 98.76987 
L 127.671303 90.241975 
L 134.47036 82.464188 
L 141.269416 75.48446 
L 148.068473 69.345824 
L 154.867529 64.086127 
L 161.666586 59.737797 
L 168.465643 56.327642 
L 175.264699 53.876688 
L 182.063756 52.400045 
L 188.862812 51.906816 
L 195.661869 52.400045 
L 202.460926 53.876688 
L 209.259982 56.327642 
L 216.059039 59.737797 
L 222.858096 64.086127 
L 229.657152 69.345824 
L 236.456209 75.48446 
L 243.255265 82.464188 
L 250.054322 90.241975 
L 256.853379 98.76987 
L 263.652435 107.995295 
L 270.451492 117.861371 
L 277.250548 128.307272 
L 284.049605 139.268595 
L 290.848662 150.67776 
L 297.647718 162.464425 
L 304.446775 174.555921 
L 311.245831 186.877701 
L 318.044888 199.353797 
L 324.843945 211.90729 
" clip-path="url(#p25b492eb53)" style="fill: none; stroke: #d55e00; stroke-opacity: 0.1; stroke-width: 0.8; stroke-linecap: square"/>
   </g>
   <g id="line2d_10">
    <path d="M 52.88168 211.90729 
L 59.680737 207.142885 
L 66.479794 202.407854 
L 73.27885 197.73139 
L 80.077907 193.142326 
L 86.876963 188.668953 
L 93.67602 184.338853 
L 100.475077 180.178721 
L 107.274133 176.214207 
L 114.07319 172.469752 
L 120.872246 168.968443 
L 127.671303 165.731866 
L 134.47036 162.779976 
L 141.269416 160.130972 
L 148.068473 157.801186 
L 154.867529 155.804982 
L 161.666586 154.154668 
L 168.465643 152.860418 
L 175.264699 151.930212 
L 182.063756 151.369784 
L 188.862812 151.18259 
L 195.661869 151.369784 
L 202.460926 151.930212 
L 209.259982 152.860418 
L 216.059039 154.154668 
L 222.858096 155.804982 
L 229.657152 157.801186 
L 236.456209 160.130972 
L 243.255265 162.779976 
L 250.054322 165.731866 
L 256.853379 168.968443 
L 263.652435 172.469752 
L 270.451492 176.214207 
L 277.250548 180.178721 
L 284.049605 184.338853 
L 290.848662 188.668953 
L 297.647718 193.142326 
L 304.446775 197.73139 
L 311.245831 202.407854 
L 318.044888 207.142885 
L 324.843945 211.90729 
" clip-path="url(#p25b492eb53)" style="fill: none; stroke: #d55e00; stroke-opacity: 0.1; stroke-width: 0.8; stroke-linecap: square"/>
   </g>
   <g id="line2d_11">
    <path d="M 52.88168 211.90729 
L 59.680737 205.060127 
L 66.479794 198.255178 
L 73.27885 191.5344 
L 80.077907 184.939227 
L 86.876963 178.510321 
L 93.67602 172.287318 
L 100.475077 166.308586 
L 107.274133 160.610985 
L 114.07319 155.229643 
L 120.872246 150.197737 
L 127.671303 145.546292 
L 134.47036 141.303983 
L 141.269416 137.496968 
L 148.068473 134.148717 
L 154.867529 131.279874 
L 161.666586 128.908125 
L 168.465643 127.048094 
L 175.264699 125.711248 
L 182.063756 124.905829 
L 188.862812 124.636804 
L 195.661869 124.905829 
L 202.460926 125.711248 
L 209.259982 127.048094 
L 216.059039 128.908125 
L 222.858096 131.279874 
L 229.657152 134.148717 
L 236.456209 137.496968 
L 243.255265 141.303983 
L 250.054322 145.546292 
L 256.853379 150.197737 
L 263.652435 155.229643 
L 270.451492 160.610985 
L 277.250548 166.308586 
L 284.049605 172.287318 
L 290.848662 178.510321 
L 297.647718 184.939227 
L 304.446775 191.5344 
L 311.245831 198.255178 
L 318.044888 205.060127 
L 324.843945 211.90729 
" clip-path="url(#p25b492eb53)" style="fill: none; stroke: #d55e00; stroke-opacity: 0.1; stroke-width: 0.8; stroke-linecap: square"/>
   </g>
   <g id="line2d_12">
    <path d="M 52.88168 211.90729 
L 59.680737 206.162478 
L 66.479794 200.453084 
L 73.27885 194.81431 
L 80.077907 189.280919 
L 86.876963 183.887027 
L 93.67602 178.66589 
L 100.475077 173.649697 
L 107.274133 168.869375 
L 114.07319 164.354396 
L 120.872246 160.132596 
L 127.671303 156.230004 
L 134.47036 152.670682 
L 141.269416 149.476572 
L 148.068473 146.667369 
L 154.867529 144.260392 
L 161.666586 142.27048 
L 168.465643 140.709903 
L 175.264699 139.588281 
L 182.063756 138.91253 
L 188.862812 138.686815 
L 195.661869 138.91253 
L 202.460926 139.588281 
L 209.259982 140.709903 
L 216.059039 142.27048 
L 222.858096 144.260392 
L 229.657152 146.667369 
L 236.456209 149.476572 
L 243.255265 152.670682 
L 250.054322 156.230004 
L 256.853379 160.132596 
L 263.652435 164.354396 
L 270.451492 168.869375 
L 277.250548 173.649697 
L 284.049605 178.66589 
L 290.848662 183.887027 
L 297.647718 189.280919 
L 304.446775 194.81431 
L 311.245831 200.453084 
L 318.044888 206.162478 
L 324.843945 211.90729 
" clip-path="url(#p25b492eb53)" style="fill: none; stroke: #d55e00; stroke-opacity: 0.1; stroke-width: 0.8; stroke-linecap: square"/>
   </g>
   <g id="line2d_13">
    <path d="M 52.88168 211.90729 
L 59.680737 201.094554 
L 66.479794 190.348483 
L 73.27885 179.735329 
L 80.077907 169.320526 
L 86.876963 159.168284 
L 93.67602 149.341196 
L 100.475077 139.899848 
L 107.274133 130.90245 
L 114.07319 122.404475 
L 120.872246 114.458313 
L 127.671303 107.112957 
L 134.47036 100.413693 
L 141.269416 94.401824 
L 148.068473 89.114416 
L 154.867529 84.584066 
L 161.666586 80.838706 
L 168.465643 77.901428 
L 175.264699 75.79034 
L 182.063756 74.518459 
L 188.862812 74.093626 
L 195.661869 74.518459 
L 202.460926 75.79034 
L 209.259982 77.901428 
L 216.059039 80.838706 
L 222.858096 84.584066 
L 229.657152 89.114416 
L 236.456209 94.401824 
L 243.255265 100.413693 
L 250.054322 107.112957 
L 256.853379 114.458313 
L 263.652435 122.404475 
L 270.451492 130.90245 
L 277.250548 139.899848 
L 284.049605 149.341196 
L 290.848662 159.168284 
L 297.647718 169.320526 
L 304.446775 179.735329 
L 311.245831 190.348483 
L 318.044888 201.094554 
L 324.843945 211.90729 
" clip-path="url(#p25b492eb53)" style="fill: none; stroke: #d55e00; stroke-opacity: 0.1; stroke-width: 0.8; stroke-linecap: square"/>
   </g>
   <g id="line2d_14">
    <path d="M 52.88168 211.90729 
L 59.680737 205.920513 
L 66.479794 199.970647 
L 73.27885 194.094374 
L 80.077907 188.327924 
L 86.876963 182.706848 
L 93.67602 177.265803 
L 100.475077 172.038334 
L 107.274133 167.056671 
L 114.07319 162.351526 
L 120.872246 157.951909 
L 127.671303 153.884945 
L 134.47036 150.175709 
L 141.269416 146.847067 
L 148.068473 143.919544 
L 154.867529 141.411188 
L 161.666586 139.337464 
L 168.465643 137.711157 
L 175.264699 136.542293 
L 182.063756 135.83808 
L 188.862812 135.602859 
L 195.661869 135.83808 
L 202.460926 136.542293 
L 209.259982 137.711157 
L 216.059039 139.337464 
L 222.858096 141.411188 
L 229.657152 143.919544 
L 236.456209 146.847067 
L 243.255265 150.175709 
L 250.054322 153.884945 
L 256.853379 157.951909 
L 263.652435 162.351526 
L 270.451492 167.056671 
L 277.250548 172.038334 
L 284.049605 177.265803 
L 290.848662 182.706848 
L 297.647718 188.327924 
L 304.446775 194.094374 
L 311.245831 199.970647 
L 318.044888 205.920513 
L 324.843945 211.90729 
" clip-path="url(#p25b492eb53)" style="fill: none; stroke: #d55e00; stroke-opacity: 0.1; stroke-width: 0.8; stroke-linecap: square"/>
   </g>
   <g id="line2d_15">
    <path d="M 52.88168 211.90729 
L 59.680737 202.262832 
L 66.479794 192.677834 
L 73.27885 183.211393 
L 80.077907 173.921872 
L 86.876963 164.866543 
L 93.67602 156.101237 
L 100.475077 147.679993 
L 107.274133 139.654731 
L 114.07319 132.074931 
L 120.872246 124.987324 
L 127.671303 118.435607 
L 134.47036 112.460175 
L 141.269416 107.097866 
L 148.068473 102.381743 
L 154.867529 98.340882 
L 161.666586 95.000194 
L 168.465643 92.380278 
L 175.264699 90.497286 
L 182.063756 89.362827 
L 188.862812 88.983895 
L 195.661869 89.362827 
L 202.460926 90.497286 
L 209.259982 92.380278 
L 216.059039 95.000194 
L 222.858096 98.340882 
L 229.657152 102.381743 
L 236.456209 107.097866 
L 243.255265 112.460175 
L 250.054322 118.435607 
L 256.853379 124.987324 
L 263.652435 132.074931 
L 270.451492 139.654731 
L 277.250548 147.679993 
L 284.049605 156.101237 
L 290.848662 164.866543 
L 297.647718 173.921872 
L 304.446775 183.211393 
L 311.245831 192.677834 
L 318.044888 202.262832 
L 324.843945 211.90729 
" clip-path="url(#p25b492eb53)" style="fill: none; stroke: #d55e00; stroke-opacity: 0.1; stroke-width: 0.8; stroke-linecap: square"/>
   </g>
   <g id="line2d_16">
    <path d="M 52.88168 211.90729 
L 59.680737 202.068918 
L 66.479794 192.291202 
L 73.27885 182.634426 
L 80.077907 173.158127 
L 86.876963 163.92073 
L 93.67602 154.979186 
L 100.475077 146.388622 
L 107.274133 138.202003 
L 114.07319 130.469801 
L 120.872246 123.239689 
L 127.671303 116.556241 
L 134.47036 110.460665 
L 141.269416 104.990541 
L 148.068473 100.179594 
L 154.867529 96.057486 
L 161.666586 92.64963 
L 168.465643 89.977037 
L 175.264699 88.056185 
L 182.063756 86.898916 
L 188.862812 86.512365 
L 195.661869 86.898916 
L 202.460926 88.056185 
L 209.259982 89.977037 
L 216.059039 92.64963 
L 222.858096 96.057486 
L 229.657152 100.179594 
L 236.456209 104.990541 
L 243.255265 110.460665 
L 250.054322 116.556241 
L 256.853379 123.239689 
L 263.652435 130.469801 
L 270.451492 138.202003 
L 277.250548 146.388622 
L 284.049605 154.979186 
L 290.848662 163.92073 
L 297.647718 173.158127 
L 304.446775 182.634426 
L 311.245831 192.291202 
L 318.044888 202.068918 
L 324.843945 211.90729 
" clip-path="url(#p25b492eb53)" style="fill: none; stroke: #d55e00; stroke-opacity: 0.1; stroke-width: 0.8; stroke-linecap: square"/>
   </g>
   <g id="line2d_17">
    <path d="M 52.88168 211.90729 
L 59.680737 205.535242 
L 66.479794 199.20248 
L 73.27885 192.948048 
L 80.077907 186.810506 
L 86.876963 180.827693 
L 93.67602 175.036497 
L 100.475077 169.472621 
L 107.274133 164.170369 
L 114.07319 159.162431 
L 120.872246 154.479683 
L 127.671303 150.150995 
L 134.47036 146.203055 
L 141.269416 142.660204 
L 148.068473 139.544284 
L 154.867529 136.874506 
L 161.666586 134.66733 
L 168.465643 132.936364 
L 175.264699 131.69228 
L 182.063756 130.942748 
L 188.862812 130.69239 
L 195.661869 130.942748 
L 202.460926 131.69228 
L 209.259982 132.936364 
L 216.059039 134.66733 
L 222.858096 136.874506 
L 229.657152 139.544284 
L 236.456209 142.660204 
L 243.255265 146.203055 
L 250.054322 150.150995 
L 256.853379 154.479683 
L 263.652435 159.162431 
L 270.451492 164.170369 
L 277.250548 169.472621 
L 284.049605 175.036497 
L 290.848662 180.827693 
L 297.647718 186.810506 
L 304.446775 192.948048 
L 311.245831 199.20248 
L 318.044888 205.535242 
L 324.843945 211.90729 
" clip-path="url(#p25b492eb53)" style="fill: none; stroke: #d55e00; stroke-opacity: 0.1; stroke-width: 0.8; stroke-linecap: square"/>
   </g>
   <g id="line2d_18">
    <path d="M 52.88168 211.90729 
L 59.680737 204.733777 
L 66.479794 197.604491 
L 73.27885 190.563387 
L 80.077907 183.653875 
L 86.876963 176.918554 
L 93.67602 170.398951 
L 100.475077 164.13526 
L 107.274133 158.1661 
L 114.07319 152.528273 
L 120.872246 147.256536 
L 127.671303 142.383393 
L 134.47036 137.938888 
L 141.269416 133.950423 
L 148.068473 130.442588 
L 154.867529 127.437009 
L 161.666586 124.952218 
L 168.465643 123.003534 
L 175.264699 121.602972 
L 182.063756 120.759165 
L 188.862812 120.477317 
L 195.661869 120.759165 
L 202.460926 121.602972 
L 209.259982 123.003534 
L 216.059039 124.952218 
L 222.858096 127.437009 
L 229.657152 130.442588 
L 236.456209 133.950423 
L 243.255265 137.938888 
L 250.054322 142.383393 
L 256.853379 147.256536 
L 263.652435 152.528273 
L 270.451492 158.1661 
L 277.250548 164.13526 
L 284.049605 170.398951 
L 290.848662 176.918554 
L 297.647718 183.653875 
L 304.446775 190.563387 
L 311.245831 197.604491 
L 318.044888 204.733777 
L 324.843945 211.90729 
" clip-path="url(#p25b492eb53)" style="fill: none; stroke: #d55e00; stroke-opacity: 0.1; stroke-width: 0.8; stroke-linecap: square"/>
   </g>
   <g id="line2d_19">
    <path d="M 52.88168 211.90729 
L 59.680737 206.777099 
L 66.479794 201.678538 
L 73.27885 196.643041 
L 80.077907 191.701652 
L 86.876963 186.884838 
L 93.67602 182.222296 
L 100.475077 177.742772 
L 107.274133 173.473883 
L 114.07319 169.441949 
L 120.872246 165.671828 
L 127.671303 162.186764 
L 134.47036 159.008244 
L 141.269416 156.155864 
L 148.068473 153.647209 
L 154.867529 151.497748 
L 161.666586 149.720732 
L 168.465643 148.327116 
L 175.264699 147.325493 
L 182.063756 146.722039 
L 188.862812 146.520473 
L 195.661869 146.722039 
L 202.460926 147.325493 
L 209.259982 148.327116 
L 216.059039 149.720732 
L 222.858096 151.497748 
L 229.657152 153.647209 
L 236.456209 156.155864 
L 243.255265 159.008244 
L 250.054322 162.186764 
L 256.853379 165.671828 
L 263.652435 169.441949 
L 270.451492 173.473883 
L 277.250548 177.742772 
L 284.049605 182.222296 
L 290.848662 186.884838 
L 297.647718 191.701652 
L 304.446775 196.643041 
L 311.245831 201.678538 
L 318.044888 206.777099 
L 324.843945 211.90729 
" clip-path="url(#p25b492eb53)" style="fill: none; stroke: #d55e00; stroke-opacity: 0.1; stroke-width: 0.8; stroke-linecap: square"/>
   </g>
   <g id="line2d_20">
    <path d="M 52.88168 211.90729 
L 59.680737 206.928205 
L 66.479794 201.979819 
L 73.27885 197.092638 
L 80.077907 192.296795 
L 86.876963 187.621856 
L 93.67602 183.096646 
L 100.475077 178.749063 
L 107.274133 174.605911 
L 114.07319 170.692735 
L 120.872246 167.03366 
L 127.671303 163.651246 
L 134.47036 160.566346 
L 141.269416 157.797981 
L 148.068473 155.363217 
L 154.867529 153.277067 
L 161.666586 151.552391 
L 168.465643 150.199823 
L 175.264699 149.227703 
L 182.063756 148.642023 
L 188.862812 148.446394 
L 195.661869 148.642023 
L 202.460926 149.227703 
L 209.259982 150.199823 
L 216.059039 151.552391 
L 222.858096 153.277067 
L 229.657152 155.363217 
L 236.456209 157.797981 
L 243.255265 160.566346 
L 250.054322 163.651246 
L 256.853379 167.03366 
L 263.652435 170.692735 
L 270.451492 174.605911 
L 277.250548 178.749063 
L 284.049605 183.096646 
L 290.848662 187.621856 
L 297.647718 192.296795 
L 304.446775 197.092638 
L 311.245831 201.979819 
L 318.044888 206.928205 
L 324.843945 211.90729 
" clip-path="url(#p25b492eb53)" style="fill: none; stroke: #d55e00; stroke-opacity: 0.1; stroke-width: 0.8; stroke-linecap: square"/>
   </g>
   <g id="line2d_21">
    <path d="M 52.88168 211.90729 
L 59.680737 204.620695 
L 66.479794 197.379025 
L 73.27885 190.226926 
L 80.077907 183.208494 
L 86.876963 176.366999 
L 93.67602 169.744623 
L 100.475077 163.382193 
L 107.274133 157.318936 
L 114.07319 151.592235 
L 120.872246 146.237396 
L 127.671303 141.287434 
L 134.47036 136.772867 
L 141.269416 132.721528 
L 148.068473 129.158396 
L 154.867529 126.105438 
L 161.666586 123.581478 
L 168.465643 121.602075 
L 175.264699 120.179434 
L 182.063756 119.322326 
L 188.862812 119.036035 
L 195.661869 119.322326 
L 202.460926 120.179434 
L 209.259982 121.602075 
L 216.059039 123.581478 
L 222.858096 126.105438 
L 229.657152 129.158396 
L 236.456209 132.721528 
L 243.255265 136.772867 
L 250.054322 141.287434 
L 256.853379 146.237396 
L 263.652435 151.592235 
L 270.451492 157.318936 
L 277.250548 163.382193 
L 284.049605 169.744623 
L 290.848662 176.366999 
L 297.647718 183.208494 
L 304.446775 190.226926 
L 311.245831 197.379025 
L 318.044888 204.620695 
L 324.843945 211.90729 
" clip-path="url(#p25b492eb53)" style="fill: none; stroke: #d55e00; stroke-opacity: 0.1; stroke-width: 0.8; stroke-linecap: square"/>
   </g>
   <g id="matplotlib.axis_1">
    <g id="xtick_1">
     <g id="line2d_22">
      <defs>
       <path id="ma36678fd85" d="M 0 0 
L 0 3.5 
" style="stroke: #000000; stroke-width: 0.8"/>
      </defs>
      <g>
       <use xlink:href="#ma36678fd85" x="52.88168" y="225.318437" style="stroke: #000000; stroke-width: 0.8"/>
      </g>
     </g>
     <g id="text_1">
      <text style="font-size: 8px; font-family: 'DejaVu Sans', 'Bitstream Vera Sans', 'Computer Modern Sans Serif', 'Lucida Grande', 'Verdana', 'Geneva', 'Lucid', 'Arial', 'Helvetica', 'Avant Garde', sans-serif; text-anchor: middle" x="52.88168" y="238.397188" transform="rotate(-0 52.88168 238.397188)">0.0</text>
     </g>
    </g>
    <g id="xtick_2">
     <g id="line2d_23">
      <g>
       <use xlink:href="#ma36678fd85" x="107.274133" y="225.318437" style="stroke: #000000; stroke-width: 0.8"/>
      </g>
     </g>
     <g id="text_2">
      <text style="font-size: 8px; font-family: 'DejaVu Sans', 'Bitstream Vera Sans', 'Computer Modern Sans Serif', 'Lucida Grande', 'Verdana', 'Geneva', 'Lucid', 'Arial', 'Helvetica', 'Avant Garde', sans-serif; text-anchor: middle" x="107.274133" y="238.397188" transform="rotate(-0 107.274133 238.397188)">0.2</text>
     </g>
    </g>
    <g id="xtick_3">
     <g id="line2d_24">
      <g>
       <use xlink:href="#ma36678fd85" x="161.666586" y="225.318437" style="stroke: #000000; stroke-width: 0.8"/>
      </g>
     </g>
     <g id="text_3">
      <text style="font-size: 8px; font-family: 'DejaVu Sans', 'Bitstream Vera Sans', 'Computer Modern Sans Serif', 'Lucida Grande', 'Verdana', 'Geneva', 'Lucid', 'Arial', 'Helvetica', 'Avant Garde', sans-serif; text-anchor: middle" x="161.666586" y="238.397188" transform="rotate(-0 161.666586 238.397188)">0.4</text>
     </g>
    </g>
    <g id="xtick_4">
     <g id="line2d_25">
      <g>
       <use xlink:href="#ma36678fd85" x="216.059039" y="225.318437" style="stroke: #000000; stroke-width: 0.8"/>
      </g>
     </g>
     <g id="text_4">
      <text style="font-size: 8px; font-family: 'DejaVu Sans', 'Bitstream Vera Sans', 'Computer Modern Sans Serif', 'Lucida Grande', 'Verdana', 'Geneva', 'Lucid', 'Arial', 'Helvetica', 'Avant Garde', sans-serif; text-anchor: middle" x="216.059039" y="238.397188" transform="rotate(-0 216.059039 238.397188)">0.6</text>
     </g>
    </g>
    <g id="xtick_5">
     <g id="line2d_26">
      <g>
       <use xlink:href="#ma36678fd85" x="270.451492" y="225.318437" style="stroke: #000000; stroke-width: 0.8"/>
      </g>
     </g>
     <g id="text_5">
      <text style="font-size: 8px; font-family: 'DejaVu Sans', 'Bitstream Vera Sans', 'Computer Modern Sans Serif', 'Lucida Grande', 'Verdana', 'Geneva', 'Lucid', 'Arial', 'Helvetica', 'Avant Garde', sans-serif; text-anchor: middle" x="270.451492" y="238.397188" transform="rotate(-0 270.451492 238.397188)">0.8</text>
     </g>
    </g>
    <g id="xtick_6">
     <g id="line2d_27">
      <g>
       <use xlink:href="#ma36678fd85" x="324.843945" y="225.318437" style="stroke: #000000; stroke-width: 0.8"/>
      </g>
     </g>
     <g id="text_6">
      <text style="font-size: 8px; font-family: 'DejaVu Sans', 'Bitstream Vera Sans', 'Computer Modern Sans Serif', 'Lucida Grande', 'Verdana', 'Geneva', 'Lucid', 'Arial', 'Helvetica', 'Avant Garde', sans-serif; text-anchor: middle" x="324.843945" y="238.397188" transform="rotate(-0 324.843945 238.397188)">1.0</text>
     </g>
    </g>
    <g id="text_7">
     <text style="font-size: 9px; font-family: 'DejaVu Sans', 'Bitstream Vera Sans', 'Computer Modern Sans Serif', 'Lucida Grande', 'Verdana', 'Geneva', 'Lucid', 'Arial', 'Helvetica', 'Avant Garde', sans-serif; text-anchor: middle" x="188.862812" y="250.899531" transform="rotate(-0 188.862812 250.899531)">normalized chord progress</text>
    </g>
   </g>
   <g id="matplotlib.axis_2">
    <g id="ytick_1">
     <g id="line2d_28">
      <defs>
       <path id="mb6b12ea4d6" d="M 0 0 
L -3.5 0 
" style="stroke: #000000; stroke-width: 0.8"/>
      </defs>
      <g>
       <use xlink:href="#mb6b12ea4d6" x="44.722813" y="211.90729" style="stroke: #000000; stroke-width: 0.8"/>
      </g>
     </g>
     <g id="text_8">
      <text style="font-size: 8px; font-family: 'DejaVu Sans', 'Bitstream Vera Sans', 'Computer Modern Sans Serif', 'Lucida Grande', 'Verdana', 'Geneva', 'Lucid', 'Arial', 'Helvetica', 'Avant Garde', sans-serif; text-anchor: end" x="37.722813" y="214.946665" transform="rotate(-0 37.722813 214.946665)">0.0</text>
     </g>
    </g>
    <g id="ytick_2">
     <g id="line2d_29">
      <g>
       <use xlink:href="#mb6b12ea4d6" x="44.722813" y="188.695148" style="stroke: #000000; stroke-width: 0.8"/>
      </g>
     </g>
     <g id="text_9">
      <text style="font-size: 8px; font-family: 'DejaVu Sans', 'Bitstream Vera Sans', 'Computer Modern Sans Serif', 'Lucida Grande', 'Verdana', 'Geneva', 'Lucid', 'Arial', 'Helvetica', 'Avant Garde', sans-serif; text-anchor: end" x="37.722813" y="191.734523" transform="rotate(-0 37.722813 191.734523)">2.5</text>
     </g>
    </g>
    <g id="ytick_3">
     <g id="line2d_30">
      <g>
       <use xlink:href="#mb6b12ea4d6" x="44.722813" y="165.483006" style="stroke: #000000; stroke-width: 0.8"/>
      </g>
     </g>
     <g id="text_10">
      <text style="font-size: 8px; font-family: 'DejaVu Sans', 'Bitstream Vera Sans', 'Computer Modern Sans Serif', 'Lucida Grande', 'Verdana', 'Geneva', 'Lucid', 'Arial', 'Helvetica', 'Avant Garde', sans-serif; text-anchor: end" x="37.722813" y="168.522381" transform="rotate(-0 37.722813 168.522381)">5.0</text>
     </g>
    </g>
    <g id="ytick_4">
     <g id="line2d_31">
      <g>
       <use xlink:href="#mb6b12ea4d6" x="44.722813" y="142.270865" style="stroke: #000000; stroke-width: 0.8"/>
      </g>
     </g>
     <g id="text_11">
      <text style="font-size: 8px; font-family: 'DejaVu Sans', 'Bitstream Vera Sans', 'Computer Modern Sans Serif', 'Lucida Grande', 'Verdana', 'Geneva', 'Lucid', 'Arial', 'Helvetica', 'Avant Garde', sans-serif; text-anchor: end" x="37.722813" y="145.31024" transform="rotate(-0 37.722813 145.31024)">7.5</text>
     </g>
    </g>
    <g id="ytick_5">
     <g id="line2d_32">
      <g>
       <use xlink:href="#mb6b12ea4d6" x="44.722813" y="119.058723" style="stroke: #000000; stroke-width: 0.8"/>
      </g>
     </g>
     <g id="text_12">
      <text style="font-size: 8px; font-family: 'DejaVu Sans', 'Bitstream Vera Sans', 'Computer Modern Sans Serif', 'Lucida Grande', 'Verdana', 'Geneva', 'Lucid', 'Arial', 'Helvetica', 'Avant Garde', sans-serif; text-anchor: end" x="37.722813" y="122.098098" transform="rotate(-0 37.722813 122.098098)">10.0</text>
     </g>
    </g>
    <g id="ytick_6">
     <g id="line2d_33">
      <g>
       <use xlink:href="#mb6b12ea4d6" x="44.722813" y="95.846581" style="stroke: #000000; stroke-width: 0.8"/>
      </g>
     </g>
     <g id="text_13">
      <text style="font-size: 8px; font-family: 'DejaVu Sans', 'Bitstream Vera Sans', 'Computer Modern Sans Serif', 'Lucida Grande', 'Verdana', 'Geneva', 'Lucid', 'Arial', 'Helvetica', 'Avant Garde', sans-serif; text-anchor: end" x="37.722813" y="98.885956" transform="rotate(-0 37.722813 98.885956)">12.5</text>
     </g>
    </g>
    <g id="ytick_7">
     <g id="line2d_34">
      <g>
       <use xlink:href="#mb6b12ea4d6" x="44.722813" y="72.634439" style="stroke: #000000; stroke-width: 0.8"/>
      </g>
     </g>
     <g id="text_14">
      <text style="font-size: 8px; font-family: 'DejaVu Sans', 'Bitstream Vera Sans', 'Computer Modern Sans Serif', 'Lucida Grande', 'Verdana', 'Geneva', 'Lucid', 'Arial', 'Helvetica', 'Avant Garde', sans-serif; text-anchor: end" x="37.722813" y="75.673814" transform="rotate(-0 37.722813 75.673814)">15.0</text>
     </g>
    </g>
    <g id="ytick_8">
     <g id="line2d_35">
      <g>
       <use xlink:href="#mb6b12ea4d6" x="44.722813" y="49.422298" style="stroke: #000000; stroke-width: 0.8"/>
      </g>
     </g>
     <g id="text_15">
      <text style="font-size: 8px; font-family: 'DejaVu Sans', 'Bitstream Vera Sans', 'Computer Modern Sans Serif', 'Lucida Grande', 'Verdana', 'Geneva', 'Lucid', 'Arial', 'Helvetica', 'Avant Garde', sans-serif; text-anchor: end" x="37.722813" y="52.461673" transform="rotate(-0 37.722813 52.461673)">17.5</text>
     </g>
    </g>
    <g id="ytick_9">
     <g id="line2d_36">
      <g>
       <use xlink:href="#mb6b12ea4d6" x="44.722813" y="26.210156" style="stroke: #000000; stroke-width: 0.8"/>
      </g>
     </g>
     <g id="text_16">
      <text style="font-size: 8px; font-family: 'DejaVu Sans', 'Bitstream Vera Sans', 'Computer Modern Sans Serif', 'Lucida Grande', 'Verdana', 'Geneva', 'Lucid', 'Arial', 'Helvetica', 'Avant Garde', sans-serif; text-anchor: end" x="37.722813" y="29.249531" transform="rotate(-0 37.722813 29.249531)">20.0</text>
     </g>
    </g>
    <g id="text_17">
     <text style="font-size: 9px; font-family: 'DejaVu Sans', 'Bitstream Vera Sans', 'Computer Modern Sans Serif', 'Lucida Grande', 'Verdana', 'Geneva', 'Lucid', 'Arial', 'Helvetica', 'Avant Garde', sans-serif; text-anchor: middle" x="14.038594" y="123.058437" transform="rotate(-90 14.038594 123.058437)">perpendicular detour (PC-20 units)</text>
    </g>
   </g>
   <g id="line2d_37">
    <path d="M 52.88168 211.90729 
L 59.680737 211.90729 
L 66.479794 211.90729 
L 73.27885 211.90729 
L 80.077907 211.90729 
L 86.876963 211.90729 
L 93.67602 211.90729 
L 100.475077 211.90729 
L 107.274133 211.90729 
L 114.07319 211.90729 
L 120.872246 211.90729 
L 127.671303 211.90729 
L 134.47036 211.90729 
L 141.269416 211.90729 
L 148.068473 211.90729 
L 154.867529 211.90729 
L 161.666586 211.90729 
L 168.465643 211.90729 
L 175.264699 211.90729 
L 182.063756 211.90729 
L 188.862812 211.90729 
L 195.661869 211.90729 
L 202.460926 211.90729 
L 209.259982 211.90729 
L 216.059039 211.90729 
L 222.858096 211.90729 
L 229.657152 211.90729 
L 236.456209 211.90729 
L 243.255265 211.90729 
L 250.054322 211.90729 
L 256.853379 211.90729 
L 263.652435 211.90729 
L 270.451492 211.90729 
L 277.250548 211.90729 
L 284.049605 211.90729 
L 290.848662 211.90729 
L 297.647718 211.90729 
L 304.446775 211.90729 
L 311.245831 211.90729 
L 318.044888 211.90729 
L 324.843945 211.90729 
" clip-path="url(#p25b492eb53)" style="fill: none; stroke: #0072b2; stroke-opacity: 0.28; stroke-width: 2; stroke-linecap: square"/>
   </g>
   <g id="patch_3">
    <path d="M 44.722813 225.318438 
L 44.722813 20.798437 
" style="fill: none; stroke: #000000; stroke-width: 0.8; stroke-linejoin: miter; stroke-linecap: square"/>
   </g>
   <g id="patch_4">
    <path d="M 44.722813 225.318437 
L 333.002812 225.318437 
" style="fill: none; stroke: #000000; stroke-width: 0.8; stroke-linejoin: miter; stroke-linecap: square"/>
   </g>
   <g id="line2d_38">
    <path d="M 52.88168 211.90729 
L 59.680737 211.90729 
L 66.479794 211.90729 
L 73.27885 211.90729 
L 80.077907 211.90729 
L 86.876963 211.90729 
L 93.67602 211.90729 
L 100.475077 211.90729 
L 107.274133 211.90729 
L 114.07319 211.90729 
L 120.872246 211.90729 
L 127.671303 211.90729 
L 134.47036 211.90729 
L 141.269416 211.90729 
L 148.068473 211.90729 
L 154.867529 211.90729 
L 161.666586 211.90729 
L 168.465643 211.90729 
L 175.264699 211.90729 
L 182.063756 211.90729 
L 188.862812 211.90729 
L 195.661869 211.90729 
L 202.460926 211.90729 
L 209.259982 211.90729 
L 216.059039 211.90729 
L 222.858096 211.90729 
L 229.657152 211.90729 
L 236.456209 211.90729 
L 243.255265 211.90729 
L 250.054322 211.90729 
L 256.853379 211.90729 
L 263.652435 211.90729 
L 270.451492 211.90729 
L 277.250548 211.90729 
L 284.049605 211.90729 
L 290.848662 211.90729 
L 297.647718 211.90729 
L 304.446775 211.90729 
L 311.245831 211.90729 
L 318.044888 211.90729 
L 324.843945 211.90729 
" clip-path="url(#p25b492eb53)" style="fill: none; stroke: #0072b2; stroke-opacity: 0.88; stroke-width: 1.05; stroke-linecap: square"/>
   </g>
   <g id="line2d_39">
    <path d="M 52.88168 211.90729 
L 59.680737 211.90729 
L 66.479794 211.90729 
L 73.27885 211.90729 
L 80.077907 211.90729 
L 86.876963 211.90729 
L 93.67602 211.90729 
L 100.475077 211.90729 
L 107.274133 211.90729 
L 114.07319 211.90729 
L 120.872246 211.90729 
L 127.671303 211.90729 
L 134.47036 211.90729 
L 141.269416 211.90729 
L 148.068473 211.90729 
L 154.867529 211.90729 
L 161.666586 211.90729 
L 168.465643 211.90729 
L 175.264699 211.90729 
L 182.063756 211.90729 
L 188.862812 211.90729 
L 195.661869 211.90729 
L 202.460926 211.90729 
L 209.259982 211.90729 
L 216.059039 211.90729 
L 222.858096 211.90729 
L 229.657152 211.90729 
L 236.456209 211.90729 
L 243.255265 211.90729 
L 250.054322 211.90729 
L 256.853379 211.90729 
L 263.652435 211.90729 
L 270.451492 211.90729 
L 277.250548 211.90729 
L 284.049605 211.90729 
L 290.848662 211.90729 
L 297.647718 211.90729 
L 304.446775 211.90729 
L 311.245831 211.90729 
L 318.044888 211.90729 
L 324.843945 211.90729 
" clip-path="url(#p25b492eb53)" style="fill: none; stroke: #0072b2; stroke-opacity: 0.88; stroke-width: 1.05; stroke-linecap: square"/>
   </g>
   <g id="line2d_40">
    <path d="M 52.88168 211.90729 
L 59.680737 211.90729 
L 66.479794 211.90729 
L 73.27885 211.90729 
L 80.077907 211.90729 
L 86.876963 211.90729 
L 93.67602 211.90729 
L 100.475077 211.90729 
L 107.274133 211.90729 
L 114.07319 211.90729 
L 120.872246 211.90729 
L 127.671303 211.90729 
L 134.47036 211.90729 
L 141.269416 211.90729 
L 148.068473 211.90729 
L 154.867529 211.90729 
L 161.666586 211.90729 
L 168.465643 211.90729 
L 175.264699 211.90729 
L 182.063756 211.90729 
L 188.862812 211.90729 
L 195.661869 211.90729 
L 202.460926 211.90729 
L 209.259982 211.90729 
L 216.059039 211.90729 
L 222.858096 211.90729 
L 229.657152 211.90729 
L 236.456209 211.90729 
L 243.255265 211.90729 
L 250.054322 211.90729 
L 256.853379 211.90729 
L 263.652435 211.90729 
L 270.451492 211.90729 
L 277.250548 211.90729 
L 284.049605 211.90729 
L 290.848662 211.90729 
L 297.647718 211.90729 
L 304.446775 211.90729 
L 311.245831 211.90729 
L 318.044888 211.90729 
L 324.843945 211.90729 
" clip-path="url(#p25b492eb53)" style="fill: none; stroke: #0072b2; stroke-opacity: 0.88; stroke-width: 1.05; stroke-linecap: square"/>
   </g>
   <g id="line2d_41">
    <path d="M 52.88168 211.90729 
L 59.680737 211.90729 
L 66.479794 211.90729 
L 73.27885 211.90729 
L 80.077907 211.90729 
L 86.876963 211.90729 
L 93.67602 211.90729 
L 100.475077 211.90729 
L 107.274133 211.90729 
L 114.07319 211.90729 
L 120.872246 211.90729 
L 127.671303 211.90729 
L 134.47036 211.90729 
L 141.269416 211.90729 
L 148.068473 211.90729 
L 154.867529 211.90729 
L 161.666586 211.90729 
L 168.465643 211.90729 
L 175.264699 211.90729 
L 182.063756 211.90729 
L 188.862812 211.90729 
L 195.661869 211.90729 
L 202.460926 211.90729 
L 209.259982 211.90729 
L 216.059039 211.90729 
L 222.858096 211.90729 
L 229.657152 211.90729 
L 236.456209 211.90729 
L 243.255265 211.90729 
L 250.054322 211.90729 
L 256.853379 211.90729 
L 263.652435 211.90729 
L 270.451492 211.90729 
L 277.250548 211.90729 
L 284.049605 211.90729 
L 290.848662 211.90729 
L 297.647718 211.90729 
L 304.446775 211.90729 
L 311.245831 211.90729 
L 318.044888 211.90729 
L 324.843945 211.90729 
" clip-path="url(#p25b492eb53)" style="fill: none; stroke: #0072b2; stroke-opacity: 0.88; stroke-width: 1.05; stroke-linecap: square"/>
   </g>
   <g id="line2d_42">
    <path d="M 52.88168 211.90729 
L 59.680737 211.90729 
L 66.479794 211.90729 
L 73.27885 211.90729 
L 80.077907 211.90729 
L 86.876963 211.90729 
L 93.67602 211.90729 
L 100.475077 211.90729 
L 107.274133 211.90729 
L 114.07319 211.90729 
L 120.872246 211.90729 
L 127.671303 211.90729 
L 134.47036 211.90729 
L 141.269416 211.90729 
L 148.068473 211.90729 
L 154.867529 211.90729 
L 161.666586 211.90729 
L 168.465643 211.90729 
L 175.264699 211.90729 
L 182.063756 211.90729 
L 188.862812 211.90729 
L 195.661869 211.90729 
L 202.460926 211.90729 
L 209.259982 211.90729 
L 216.059039 211.90729 
L 222.858096 211.90729 
L 229.657152 211.90729 
L 236.456209 211.90729 
L 243.255265 211.90729 
L 250.054322 211.90729 
L 256.853379 211.90729 
L 263.652435 211.90729 
L 270.451492 211.90729 
L 277.250548 211.90729 
L 284.049605 211.90729 
L 290.848662 211.90729 
L 297.647718 211.90729 
L 304.446775 211.90729 
L 311.245831 211.90729 
L 318.044888 211.90729 
L 324.843945 211.90729 
" clip-path="url(#p25b492eb53)" style="fill: none; stroke: #0072b2; stroke-opacity: 0.88; stroke-width: 1.05; stroke-linecap: square"/>
   </g>
   <g id="text_18">
    <text style="font-size: 10px; font-family: 'DejaVu Sans', 'Bitstream Vera Sans', 'Computer Modern Sans Serif', 'Lucida Grande', 'Verdana', 'Geneva', 'Lucid', 'Arial', 'Helvetica', 'Avant Garde', sans-serif; text-anchor: middle" x="188.862812" y="14.798437" transform="rotate(-0 188.862812 14.798437)">B. Same endpoints, different paths</text>
   </g>
   <g id="line2d_43">
    <path d="M 52.88168 211.90729 
L 59.680737 203.863232 
L 66.479794 195.868768 
L 73.27885 187.973187 
L 80.077907 180.225168 
L 86.876963 172.67248 
L 93.67602 165.361687 
L 100.475077 158.337864 
L 107.274133 151.644314 
L 114.07319 145.322305 
L 120.872246 139.410814 
L 127.671303 133.946289 
L 134.47036 128.962419 
L 141.269416 124.489931 
L 148.068473 120.556401 
L 154.867529 117.18608 
L 161.666586 114.399746 
L 168.465643 112.214578 
L 175.264699 110.64405 
L 182.063756 109.697843 
L 188.862812 109.381791 
L 195.661869 109.697843 
L 202.460926 110.64405 
L 209.259982 112.214578 
L 216.059039 114.399746 
L 222.858096 117.18608 
L 229.657152 120.556401 
L 236.456209 124.489931 
L 243.255265 128.962419 
L 250.054322 133.946289 
L 256.853379 139.410814 
L 263.652435 145.322305 
L 270.451492 151.644314 
L 277.250548 158.337864 
L 284.049605 165.361687 
L 290.848662 172.67248 
L 297.647718 180.225168 
L 304.446775 187.973187 
L 311.245831 195.868768 
L 318.044888 203.863232 
L 324.843945 211.90729 
" clip-path="url(#p25b492eb53)" style="fill: none; stroke: #d55e00; stroke-opacity: 0.82; stroke-width: 1.05; stroke-linecap: square"/>
   </g>
   <g id="line2d_44">
    <path d="M 52.88168 211.90729 
L 59.680737 209.144068 
L 66.479794 206.397882 
L 73.27885 203.685663 
L 80.077907 201.024133 
L 86.876963 198.429702 
L 93.67602 195.918364 
L 100.475077 193.505604 
L 107.274133 191.206296 
L 114.07319 189.034616 
L 120.872246 187.003954 
L 127.671303 185.12683 
L 134.47036 183.414816 
L 141.269416 181.878467 
L 148.068473 180.527256 
L 154.867529 179.369514 
L 161.666586 178.412378 
L 168.465643 177.661749 
L 175.264699 177.122255 
L 182.063756 176.797222 
L 188.862812 176.688655 
L 195.661869 176.797222 
L 202.460926 177.122255 
L 209.259982 177.661749 
L 216.059039 178.412378 
L 222.858096 179.369514 
L 229.657152 180.527256 
L 236.456209 181.878467 
L 243.255265 183.414816 
L 250.054322 185.12683 
L 256.853379 187.003954 
L 263.652435 189.034616 
L 270.451492 191.206296 
L 277.250548 193.505604 
L 284.049605 195.918364 
L 290.848662 198.429702 
L 297.647718 201.024133 
L 304.446775 203.685663 
L 311.245831 206.397882 
L 318.044888 209.144068 
L 324.843945 211.90729 
" clip-path="url(#p25b492eb53)" style="fill: none; stroke: #d55e00; stroke-opacity: 0.82; stroke-width: 1.05; stroke-linecap: square"/>
   </g>
   <g id="line2d_45">
    <path d="M 52.88168 211.90729 
L 59.680737 205.060127 
L 66.479794 198.255178 
L 73.27885 191.5344 
L 80.077907 184.939227 
L 86.876963 178.510321 
L 93.67602 172.287318 
L 100.475077 166.308586 
L 107.274133 160.610985 
L 114.07319 155.229643 
L 120.872246 150.197737 
L 127.671303 145.546292 
L 134.47036 141.303983 
L 141.269416 137.496968 
L 148.068473 134.148717 
L 154.867529 131.279874 
L 161.666586 128.908125 
L 168.465643 127.048094 
L 175.264699 125.711248 
L 182.063756 124.905829 
L 188.862812 124.636804 
L 195.661869 124.905829 
L 202.460926 125.711248 
L 209.259982 127.048094 
L 216.059039 128.908125 
L 222.858096 131.279874 
L 229.657152 134.148717 
L 236.456209 137.496968 
L 243.255265 141.303983 
L 250.054322 145.546292 
L 256.853379 150.197737 
L 263.652435 155.229643 
L 270.451492 160.610985 
L 277.250548 166.308586 
L 284.049605 172.287318 
L 290.848662 178.510321 
L 297.647718 184.939227 
L 304.446775 191.5344 
L 311.245831 198.255178 
L 318.044888 205.060127 
L 324.843945 211.90729 
" clip-path="url(#p25b492eb53)" style="fill: none; stroke: #d55e00; stroke-opacity: 0.82; stroke-width: 1.05; stroke-linecap: square"/>
   </g>
   <g id="line2d_46">
    <path d="M 52.88168 211.90729 
L 59.680737 202.068918 
L 66.479794 192.291202 
L 73.27885 182.634426 
L 80.077907 173.158127 
L 86.876963 163.92073 
L 93.67602 154.979186 
L 100.475077 146.388622 
L 107.274133 138.202003 
L 114.07319 130.469801 
L 120.872246 123.239689 
L 127.671303 116.556241 
L 134.47036 110.460665 
L 141.269416 104.990541 
L 148.068473 100.179594 
L 154.867529 96.057486 
L 161.666586 92.64963 
L 168.465643 89.977037 
L 175.264699 88.056185 
L 182.063756 86.898916 
L 188.862812 86.512365 
L 195.661869 86.898916 
L 202.460926 88.056185 
L 209.259982 89.977037 
L 216.059039 92.64963 
L 222.858096 96.057486 
L 229.657152 100.179594 
L 236.456209 104.990541 
L 243.255265 110.460665 
L 250.054322 116.556241 
L 256.853379 123.239689 
L 263.652435 130.469801 
L 270.451492 138.202003 
L 277.250548 146.388622 
L 284.049605 154.979186 
L 290.848662 163.92073 
L 297.647718 173.158127 
L 304.446775 182.634426 
L 311.245831 192.291202 
L 318.044888 202.068918 
L 324.843945 211.90729 
" clip-path="url(#p25b492eb53)" style="fill: none; stroke: #d55e00; stroke-opacity: 0.82; stroke-width: 1.05; stroke-linecap: square"/>
   </g>
   <g id="line2d_47">
    <path d="M 52.88168 211.90729 
L 59.680737 204.620695 
L 66.479794 197.379025 
L 73.27885 190.226926 
L 80.077907 183.208494 
L 86.876963 176.366999 
L 93.67602 169.744623 
L 100.475077 163.382193 
L 107.274133 157.318936 
L 114.07319 151.592235 
L 120.872246 146.237396 
L 127.671303 141.287434 
L 134.47036 136.772867 
L 141.269416 132.721528 
L 148.068473 129.158396 
L 154.867529 126.105438 
L 161.666586 123.581478 
L 168.465643 121.602075 
L 175.264699 120.179434 
L 182.063756 119.322326 
L 188.862812 119.036035 
L 195.661869 119.322326 
L 202.460926 120.179434 
L 209.259982 121.602075 
L 216.059039 123.581478 
L 222.858096 126.105438 
L 229.657152 129.158396 
L 236.456209 132.721528 
L 243.255265 136.772867 
L 250.054322 141.287434 
L 256.853379 146.237396 
L 263.652435 151.592235 
L 270.451492 157.318936 
L 277.250548 163.382193 
L 284.049605 169.744623 
L 290.848662 176.366999 
L 297.647718 183.208494 
L 304.446775 190.226926 
L 311.245831 197.379025 
L 318.044888 204.620695 
L 324.843945 211.90729 
" clip-path="url(#p25b492eb53)" style="fill: none; stroke: #d55e00; stroke-opacity: 0.82; stroke-width: 1.05; stroke-linecap: square"/>
   </g>
   <g id="PathCollection_1">
    <defs>
     <path id="m981c78abbb" d="M 0 2.828427 
C 0.750108 2.828427 1.469594 2.530406 2 2 
C 2.530406 1.469594 2.828427 0.750108 2.828427 0 
C 2.828427 -0.750108 2.530406 -1.469594 2 -2 
C 1.469594 -2.530406 0.750108 -2.828427 0 -2.828427 
C -0.750108 -2.828427 -1.469594 -2.530406 -2 -2 
C -2.530406 -1.469594 -2.828427 -0.750108 -2.828427 0 
C -2.828427 0.750108 -2.530406 1.469594 -2 2 
C -1.469594 2.530406 -0.750108 2.828427 0 2.828427 
z
"/>
    </defs>
    <g clip-path="url(#p25b492eb53)">
     <use xlink:href="#m981c78abbb" x="52.88168" y="211.90729" style="fill: #0072b2"/>
    </g>
   </g>
   <g id="PathCollection_2">
    <defs>
     <path id="m6b91a21604" d="M 0 2.828427 
C 0.750108 2.828427 1.469594 2.530406 2 2 
C 2.530406 1.469594 2.828427 0.750108 2.828427 0 
C 2.828427 -0.750108 2.530406 -1.469594 2 -2 
C 1.469594 -2.530406 0.750108 -2.828427 0 -2.828427 
C -0.750108 -2.828427 -1.469594 -2.530406 -2 -2 
C -2.530406 -1.469594 -2.828427 -0.750108 -2.828427 0 
C -2.828427 0.750108 -2.530406 1.469594 -2 2 
C -1.469594 2.530406 -0.750108 2.828427 0 2.828427 
z
"/>
    </defs>
    <g clip-path="url(#p25b492eb53)">
     <use xlink:href="#m6b91a21604" x="324.843945" y="211.90729" style="fill: #d55e00"/>
    </g>
   </g>
   <g id="legend_1">
    <g id="line2d_48">
     <path d="M 272.400312 31.277187 
L 280.400312 31.277187 
L 288.400312 31.277187 
" style="fill: none; stroke: #0072b2; stroke-width: 1.4; stroke-linecap: square"/>
    </g>
    <g id="text_19">
     <text style="font-size: 8px; font-family: 'DejaVu Sans', 'Bitstream Vera Sans', 'Computer Modern Sans Serif', 'Lucida Grande', 'Verdana', 'Geneva', 'Lucid', 'Arial', 'Helvetica', 'Avant Garde', sans-serif; text-anchor: start" x="294.800312" y="34.077187" transform="rotate(-0 294.800312 34.077187)">straight</text>
    </g>
    <g id="line2d_49">
     <path d="M 272.400312 43.019687 
L 280.400312 43.019687 
L 288.400312 43.019687 
" style="fill: none; stroke: #d55e00; stroke-width: 1.4; stroke-linecap: square"/>
    </g>
    <g id="text_20">
     <text style="font-size: 8px; font-family: 'DejaVu Sans', 'Bitstream Vera Sans', 'Computer Modern Sans Serif', 'Lucida Grande', 'Verdana', 'Geneva', 'Lucid', 'Arial', 'Helvetica', 'Avant Garde', sans-serif; text-anchor: start" x="294.800312" y="45.819687" transform="rotate(-0 294.800312 45.819687)">detour</text>
    </g>
   </g>
  </g>
 </g>
 <defs>
  <clipPath id="p25b492eb53">
   <rect x="44.722813" y="20.798437" width="288.28" height="204.52"/>
  </clipPath>
 </defs>
</svg>
