<?xml version="1.0" encoding="utf-8" standalone="no"?>
<!DOCTYPE svg PUBLIC "-//W3C//DTD SVG 1.1//EN"
  "http://www.w3.org/Graphics/SVG/1.1/DTD/svg11.dtd">
<svg xmlns:xlink="http://www.w3.org/1999/xlink" width="340.306562pt" height="288.77125pt" viewBox="0 0 340.306562 288.77125" xmlns="http://www.w3.org/2000/svg" version="1.1">
 <metadata>
  <rdf:RDF xmlns:dc="http://purl.org/dc/elements/1.1/" xmlns:cc="http://creativecommons.org/ns#" xmlns:rdf="http://www.w3.org/1999/02/22-rdf-syntax-ns#">
   <cc:Work>
    <dc:type rdf:resource="http://purl.org/dc/dcmitype/StillImage"/>
    <dc:date>2026-06-04T18:08:12.517518</dc:date>
    <dc:format>image/svg+xml</dc:format>
    <dc:creator>
     <cc:Agent>
      <dc:title>Matplotlib v3.10.0, https://matplotlib.org/</dc:title>
     </cc:Agent>
    </dc:creator>
   </cc:Work>
  </rdf:RDF>
 </metadata>
 <defs>
  <style type="text/css">*{stroke-linejoin: round; stroke-linecap: butt}</style>
 </defs>
 <g id="figure_1">
  <g id="patch_1">
   <path d="M -0 288.77125 
L 340.306562 288.77125 
L 340.306562 0 
L -0 0 
z
" style="fill: #ffffff"/>
  </g>
  <g id="axes_1">
   <g id="patch_2">
    <path d="M 51.426563 254.118437 
L 333.106562 254.118437 
L 333.106562 20.798437 
L 51.426563 20.798437 
z
" style="fill: #ffffff"/>
   </g>
   <g id="PathCollection_1">
    <defs>
     <path id="m565d5c36aa" d="M 0 1.802776 
C 0.478102 1.802776 0.936686 1.612824 1.274755 1.274755 
C 1.612824 0.936686 1.802776 0.478102 1.802776 0 
C 1.802776 -0.478102 1.612824 -0.936686 1.274755 -1.274755 
C 0.936686 -1.612824 0.478102 -1.802776 0 -1.802776 
C -0.478102 -1.802776 -0.936686 -1.612824 -1.274755 -1.274755 
C -1.612824 -0.936686 -1.802776 -0.478102 -1.802776 0 
C -1.802776 0.478102 -1.612824 0.936686 -1.274755 1.274755 
C -0.936686 1.612824 -0.478102 1.802776 0 1.802776 
z
"/>
    </defs>
    <g clip-path="url(#p0e4be5d671)">
     <use xlink:href="#m565d5c36aa" x="255.691457" y="102.408858" style="fill: #4267b2; fill-opacity: 0.7"/>
     <use xlink:href="#m565d5c36aa" x="208.009871" y="63.9867" style="fill: #4267b2; fill-opacity: 0.7"/>
     <use xlink:href="#m565d5c36aa" x="112.494526" y="57.393878" style="fill: #4267b2; fill-opacity: 0.7"/>
     <use xlink:href="#m565d5c36aa" x="107.283194" y="37.627287" style="fill: #4267b2; fill-opacity: 0.7"/>
     <use xlink:href="#m565d5c36aa" x="169.515484" y="70.223826" style="fill: #4267b2; fill-opacity: 0.7"/>
     <use xlink:href="#m565d5c36aa" x="102.870578" y="49.281072" style="fill: #4267b2; fill-opacity: 0.7"/>
     <use xlink:href="#m565d5c36aa" x="64.230199" y="90.147691" style="fill: #4267b2; fill-opacity: 0.7"/>
     <use xlink:href="#m565d5c36aa" x="204.690509" y="110.769534" style="fill: #4267b2; fill-opacity: 0.7"/>
     <use xlink:href="#m565d5c36aa" x="106.458136" y="36.448918" style="fill: #4267b2; fill-opacity: 0.7"/>
     <use xlink:href="#m565d5c36aa" x="161.025213" y="63.44494" style="fill: #4267b2; fill-opacity: 0.7"/>
     <use xlink:href="#m565d5c36aa" x="88.857938" y="65.556965" style="fill: #4267b2; fill-opacity: 0.7"/>
     <use xlink:href="#m565d5c36aa" x="166.462566" y="106.214832" style="fill: #4267b2; fill-opacity: 0.7"/>
    </g>
   </g>
   <g id="PathCollection_2">
    <defs>
     <path id="md7fb88388e" d="M 0 1.802776 
C 0.478102 1.802776 0.936686 1.612824 1.274755 1.274755 
C 1.612824 0.936686 1.802776 0.478102 1.802776 0 
C 1.802776 -0.478102 1.612824 -0.936686 1.274755 -1.274755 
C 0.936686 -1.612824 0.478102 -1.802776 0 -1.802776 
C -0.478102 -1.802776 -0.936686 -1.612824 -1.274755 -1.274755 
C -1.612824 -0.936686 -1.802776 -0.478102 -1.802776 0 
C -1.802776 0.478102 -1.612824 0.936686 -1.274755 1.274755 
C -0.936686 1.612824 -0.478102 1.802776 0 1.802776 
z
"/>
    </defs>
    <g clip-path="url(#p0e4be5d671)">
     <use xlink:href="#md7fb88388e" x="313.621221" y="176.155839" style="fill: #d55e00; fill-opacity: 0.7"/>
     <use xlink:href="#md7fb88388e" x="172.071482" y="221.378491" style="fill: #d55e00; fill-opacity: 0.7"/>
     <use xlink:href="#md7fb88388e" x="196.006348" y="155.530113" style="fill: #d55e00; fill-opacity: 0.7"/>
     <use xlink:href="#md7fb88388e" x="161.051469" y="31.535816" style="fill: #d55e00; fill-opacity: 0.7"/>
     <use xlink:href="#md7fb88388e" x="182.572352" y="70.186273" style="fill: #d55e00; fill-opacity: 0.7"/>
     <use xlink:href="#md7fb88388e" x="203.037194" y="44.870399" style="fill: #d55e00; fill-opacity: 0.7"/>
     <use xlink:href="#md7fb88388e" x="213.924144" y="106.529633" style="fill: #d55e00; fill-opacity: 0.7"/>
     <use xlink:href="#md7fb88388e" x="320.112354" y="243.512983" style="fill: #d55e00; fill-opacity: 0.7"/>
     <use xlink:href="#md7fb88388e" x="161.770431" y="35.229544" style="fill: #d55e00; fill-opacity: 0.7"/>
     <use xlink:href="#md7fb88388e" x="237.832931" y="103.516309" style="fill: #d55e00; fill-opacity: 0.7"/>
     <use xlink:href="#md7fb88388e" x="183.621403" y="32.813326" style="fill: #d55e00; fill-opacity: 0.7"/>
     <use xlink:href="#md7fb88388e" x="290.110155" y="188.986113" style="fill: #d55e00; fill-opacity: 0.7"/>
    </g>
   </g>
   <g id="matplotlib.axis_1">
    <g id="xtick_1">
     <g id="line2d_1">
      <defs>
       <path id="m48019f3168" d="M 0 0 
L 0 3.5 
" style="stroke: #000000; stroke-width: 0.8"/>
      </defs>
      <g>
       <use xlink:href="#m48019f3168" x="64.50022" y="254.118437" style="stroke: #000000; stroke-width: 0.8"/>
      </g>
     </g>
     <g id="text_1">
      <text style="font-size: 8px; font-family: 'DejaVu Sans', 'Bitstream Vera Sans', 'Computer Modern Sans Serif', 'Lucida Grande', 'Verdana', 'Geneva', 'Lucid', 'Arial', 'Helvetica', 'Avant Garde', sans-serif; text-anchor: middle" x="64.50022" y="267.197187" transform="rotate(-0 64.50022 267.197187)">−0.015</text>
     </g>
    </g>
    <g id="xtick_2">
     <g id="line2d_2">
      <g>
       <use xlink:href="#m48019f3168" x="99.033571" y="254.118437" style="stroke: #000000; stroke-width: 0.8"/>
      </g>
     </g>
     <g id="text_2">
      <text style="font-size: 8px; font-family: 'DejaVu Sans', 'Bitstream Vera Sans', 'Computer Modern Sans Serif', 'Lucida Grande', 'Verdana', 'Geneva', 'Lucid', 'Arial', 'Helvetica', 'Avant Garde', sans-serif; text-anchor: middle" x="99.033571" y="267.197187" transform="rotate(-0 99.033571 267.197187)">−0.010</text>
     </g>
    </g>
    <g id="xtick_3">
     <g id="line2d_3">
      <g>
       <use xlink:href="#m48019f3168" x="133.566922" y="254.118437" style="stroke: #000000; stroke-width: 0.8"/>
      </g>
     </g>
     <g id="text_3">
      <text style="font-size: 8px; font-family: 'DejaVu Sans', 'Bitstream Vera Sans', 'Computer Modern Sans Serif', 'Lucida Grande', 'Verdana', 'Geneva', 'Lucid', 'Arial', 'Helvetica', 'Avant Garde', sans-serif; text-anchor: middle" x="133.566922" y="267.197187" transform="rotate(-0 133.566922 267.197187)">−0.005</text>
     </g>
    </g>
    <g id="xtick_4">
     <g id="line2d_4">
      <g>
       <use xlink:href="#m48019f3168" x="168.100273" y="254.118437" style="stroke: #000000; stroke-width: 0.8"/>
      </g>
     </g>
     <g id="text_4">
      <text style="font-size: 8px; font-family: 'DejaVu Sans', 'Bitstream Vera Sans', 'Computer Modern Sans Serif', 'Lucida Grande', 'Verdana', 'Geneva', 'Lucid', 'Arial', 'Helvetica', 'Avant Garde', sans-serif; text-anchor: middle" x="168.100273" y="267.197187" transform="rotate(-0 168.100273 267.197187)">0.000</text>
     </g>
    </g>
    <g id="xtick_5">
     <g id="line2d_5">
      <g>
       <use xlink:href="#m48019f3168" x="202.633624" y="254.118437" style="stroke: #000000; stroke-width: 0.8"/>
      </g>
     </g>
     <g id="text_5">
      <text style="font-size: 8px; font-family: 'DejaVu Sans', 'Bitstream Vera Sans', 'Computer Modern Sans Serif', 'Lucida Grande', 'Verdana', 'Geneva', 'Lucid', 'Arial', 'Helvetica', 'Avant Garde', sans-serif; text-anchor: middle" x="202.633624" y="267.197187" transform="rotate(-0 202.633624 267.197187)">0.005</text>
     </g>
    </g>
    <g id="xtick_6">
     <g id="line2d_6">
      <g>
       <use xlink:href="#m48019f3168" x="237.166975" y="254.118437" style="stroke: #000000; stroke-width: 0.8"/>
      </g>
     </g>
     <g id="text_6">
      <text style="font-size: 8px; font-family: 'DejaVu Sans', 'Bitstream Vera Sans', 'Computer Modern Sans Serif', 'Lucida Grande', 'Verdana', 'Geneva', 'Lucid', 'Arial', 'Helvetica', 'Avant Garde', sans-serif; text-anchor: middle" x="237.166975" y="267.197187" transform="rotate(-0 237.166975 267.197187)">0.010</text>
     </g>
    </g>
    <g id="xtick_7">
     <g id="line2d_7">
      <g>
       <use xlink:href="#m48019f3168" x="271.700326" y="254.118437" style="stroke: #000000; stroke-width: 0.8"/>
      </g>
     </g>
     <g id="text_7">
      <text style="font-size: 8px; font-family: 'DejaVu Sans', 'Bitstream Vera Sans', 'Computer Modern Sans Serif', 'Lucida Grande', 'Verdana', 'Geneva', 'Lucid', 'Arial', 'Helvetica', 'Avant Garde', sans-serif; text-anchor: middle" x="271.700326" y="267.197187" transform="rotate(-0 271.700326 267.197187)">0.015</text>
     </g>
    </g>
    <g id="xtick_8">
     <g id="line2d_8">
      <g>
       <use xlink:href="#m48019f3168" x="306.233678" y="254.118437" style="stroke: #000000; stroke-width: 0.8"/>
      </g>
     </g>
     <g id="text_8">
      <text style="font-size: 8px; font-family: 'DejaVu Sans', 'Bitstream Vera Sans', 'Computer Modern Sans Serif', 'Lucida Grande', 'Verdana', 'Geneva', 'Lucid', 'Arial', 'Helvetica', 'Avant Garde', sans-serif; text-anchor: middle" x="306.233678" y="267.197187" transform="rotate(-0 306.233678 267.197187)">0.020</text>
     </g>
    </g>
    <g id="text_9">
     <text style="font-size: 9px; font-family: 'DejaVu Sans', 'Bitstream Vera Sans', 'Computer Modern Sans Serif', 'Lucida Grande', 'Verdana', 'Geneva', 'Lucid', 'Arial', 'Helvetica', 'Avant Garde', sans-serif; text-anchor: middle" x="192.266563" y="279.699531" transform="rotate(-0 192.266563 279.699531)">fitted PHATE 1</text>
    </g>
   </g>
   <g id="matplotlib.axis_2">
    <g id="ytick_1">
     <g id="line2d_9">
      <defs>
       <path id="m3af31c2a0d" d="M 0 0 
L -3.5 0 
" style="stroke: #000000; stroke-width: 0.8"/>
      </defs>
      <g>
       <use xlink:href="#m3af31c2a0d" x="51.426563" y="235.24829" style="stroke: #000000; stroke-width: 0.8"/>
      </g>
     </g>
     <g id="text_10">
      <text style="font-size: 8px; font-family: 'DejaVu Sans', 'Bitstream Vera Sans', 'Computer Modern Sans Serif', 'Lucida Grande', 'Verdana', 'Geneva', 'Lucid', 'Arial', 'Helvetica', 'Avant Garde', sans-serif; text-anchor: end" x="44.426563" y="238.287665" transform="rotate(-0 44.426563 238.287665)">−0.03</text>
     </g>
    </g>
    <g id="ytick_2">
     <g id="line2d_10">
      <g>
       <use xlink:href="#m3af31c2a0d" x="51.426563" y="190.918466" style="stroke: #000000; stroke-width: 0.8"/>
      </g>
     </g>
     <g id="text_11">
      <text style="font-size: 8px; font-family: 'DejaVu Sans', 'Bitstream Vera Sans', 'Computer Modern Sans Serif', 'Lucida Grande', 'Verdana', 'Geneva', 'Lucid', 'Arial', 'Helvetica', 'Avant Garde', sans-serif; text-anchor: end" x="44.426563" y="193.957841" transform="rotate(-0 44.426563 193.957841)">−0.02</text>
     </g>
    </g>
    <g id="ytick_3">
     <g id="line2d_11">
      <g>
       <use xlink:href="#m3af31c2a0d" x="51.426563" y="146.588642" style="stroke: #000000; stroke-width: 0.8"/>
      </g>
     </g>
     <g id="text_12">
      <text style="font-size: 8px; font-family: 'DejaVu Sans', 'Bitstream Vera Sans', 'Computer Modern Sans Serif', 'Lucida Grande', 'Verdana', 'Geneva', 'Lucid', 'Arial', 'Helvetica', 'Avant Garde', sans-serif; text-anchor: end" x="44.426563" y="149.628017" transform="rotate(-0 44.426563 149.628017)">−0.01</text>
     </g>
    </g>
    <g id="ytick_4">
     <g id="line2d_12">
      <g>
       <use xlink:href="#m3af31c2a0d" x="51.426563" y="102.258818" style="stroke: #000000; stroke-width: 0.8"/>
      </g>
     </g>
     <g id="text_13">
      <text style="font-size: 8px; font-family: 'DejaVu Sans', 'Bitstream Vera Sans', 'Computer Modern Sans Serif', 'Lucida Grande', 'Verdana', 'Geneva', 'Lucid', 'Arial', 'Helvetica', 'Avant Garde', sans-serif; text-anchor: end" x="44.426563" y="105.298193" transform="rotate(-0 44.426563 105.298193)">0.00</text>
     </g>
    </g>
    <g id="ytick_5">
     <g id="line2d_13">
      <g>
       <use xlink:href="#m3af31c2a0d" x="51.426563" y="57.928994" style="stroke: #000000; stroke-width: 0.8"/>
      </g>
     </g>
     <g id="text_14">
      <text style="font-size: 8px; font-family: 'DejaVu Sans', 'Bitstream Vera Sans', 'Computer Modern Sans Serif', 'Lucida Grande', 'Verdana', 'Geneva', 'Lucid', 'Arial', 'Helvetica', 'Avant Garde', sans-serif; text-anchor: end" x="44.426563" y="60.968369" transform="rotate(-0 44.426563 60.968369)">0.01</text>
     </g>
    </g>
    <g id="text_15">
     <text style="font-size: 9px; font-family: 'DejaVu Sans', 'Bitstream Vera Sans', 'Computer Modern Sans Serif', 'Lucida Grande', 'Verdana', 'Geneva', 'Lucid', 'Arial', 'Helvetica', 'Avant Garde', sans-serif; text-anchor: middle" x="14.038594" y="137.458437" transform="rotate(-90 14.038594 137.458437)">fitted PHATE 2</text>
    </g>
   </g>
   <g id="line2d_14">
    <path d="M 255.691457 102.408858 
L 259.505732 105.240561 
L 263.433082 107.568869 
L 264.937147 108.821478 
L 265.532606 109.965791 
L 264.43709 110.245911 
L 263.803809 110.444618 
L 263.725393 110.540437 
L 263.781989 110.618893 
L 263.853447 110.708152 
L 263.947302 110.81947 
L 263.974985 110.835221 
L 264.106877 110.912484 
L 266.937534 113.919552 
L 270.393675 117.429849 
L 276.834987 124.641537 
L 283.060199 131.438639 
L 290.319823 138.705015 
L 290.65256 139.23213 
L 293.883946 143.635867 
L 294.726536 145.109151 
L 298.117122 148.330575 
L 298.66413 148.90689 
L 300.386083 151.46241 
L 304.076092 157.158248 
L 305.753737 159.335588 
L 305.817749 158.863627 
L 305.708693 158.636416 
L 306.752245 159.696151 
L 307.373453 159.926846 
L 307.342191 159.76682 
L 307.214695 159.612773 
L 307.149437 159.521464 
L 307.361192 159.98684 
L 308.394445 161.289294 
L 308.906439 162.006839 
L 309.619576 163.820231 
L 311.110944 168.908589 
L 312.051127 171.269116 
L 313.138002 175.144454 
L 313.621221 176.155839 
" clip-path="url(#p0e4be5d671)" style="fill: none; stroke: #0072b2; stroke-opacity: 0.45; stroke-linecap: square"/>
   </g>
   <g id="line2d_15">
    <path d="M 255.691457 102.408858 
L 256.819774 104.526986 
L 256.296676 104.731712 
L 255.897964 105.426834 
L 255.365321 106.492274 
L 254.988102 105.644664 
L 255.129231 105.258675 
L 255.525629 105.5365 
L 256.632357 107.613294 
L 257.366105 108.165933 
L 258.377685 109.715006 
L 259.570384 111.184539 
L 261.111365 112.994153 
L 265.013051 117.486726 
L 270.806881 124.324907 
L 275.672684 130.140737 
L 280.675994 135.644251 
L 285.195494 140.892377 
L 286.633423 142.586731 
L 287.083816 142.735941 
L 287.955621 142.918141 
L 289.825569 144.20158 
L 295.375503 151.700162 
L 298.45367 155.675063 
L 300.480642 157.66634 
L 303.299887 161.171452 
L 306.110783 164.434424 
L 308.585252 167.323683 
L 310.828468 169.363128 
L 311.849818 170.080598 
L 312.890548 170.956398 
L 313.669713 171.71264 
L 314.015141 172.602454 
L 314.034595 172.454299 
L 313.824108 171.879271 
L 313.609411 171.561222 
L 313.324602 171.315385 
L 313.276607 172.489121 
L 313.312225 174.356633 
L 313.557936 176.068946 
L 313.621221 176.155839 
" clip-path="url(#p0e4be5d671)" style="fill: none; stroke: #d55e00; stroke-opacity: 0.4; stroke-linecap: square"/>
   </g>
   <g id="line2d_16">
    <path d="M 208.009871 63.9867 
L 206.576792 60.684705 
L 204.067555 52.784357 
L 201.702896 49.364607 
L 198.982674 56.95673 
L 195.687432 70.979812 
L 192.294037 70.887095 
L 189.785709 73.474299 
L 190.152671 71.495535 
L 189.808415 84.016448 
L 189.710154 94.549512 
L 188.204696 110.092455 
L 187.541228 119.426296 
L 186.25473 133.414963 
L 185.114076 141.53506 
L 183.546227 156.510445 
L 183.600883 155.955298 
L 180.234223 172.654207 
L 177.054444 191.385761 
L 176.913114 192.599389 
L 176.978064 195.939406 
L 177.20081 198.917259 
L 177.089776 199.395056 
L 177.117021 203.095224 
L 176.765734 204.109809 
L 176.320788 206.786569 
L 175.54361 210.037841 
L 174.899977 212.313248 
L 174.85201 212.090555 
L 174.404741 213.540761 
L 174.233962 214.31455 
L 174.172898 214.7245 
L 173.959131 215.598 
L 173.575426 217.21398 
L 172.930368 219.392938 
L 172.558994 220.267326 
L 172.082254 221.615382 
L 171.959385 221.960151 
L 171.961771 221.938903 
L 171.975792 221.867283 
L 172.071482 221.378491 
" clip-path="url(#p0e4be5d671)" style="fill: none; stroke: #0072b2; stroke-opacity: 0.45; stroke-linecap: square"/>
   </g>
   <g id="line2d_17">
    <path d="M 208.009871 63.9867 
L 205.119314 56.608273 
L 197.893953 50.26642 
L 187.439472 45.213055 
L 183.27738 44.337532 
L 179.654256 51.017343 
L 177.79044 56.591054 
L 176.813387 61.766305 
L 177.780797 65.767771 
L 181.788625 66.890621 
L 181.736871 68.266571 
L 183.06725 72.08387 
L 184.925442 82.482817 
L 186.374798 95.543283 
L 188.481904 103.664753 
L 189.775697 107.925606 
L 188.505397 118.766001 
L 186.561385 132.22449 
L 184.655694 144.929332 
L 183.276258 156.347369 
L 181.01094 171.205459 
L 178.239221 190.156236 
L 176.35314 200.872918 
L 174.575064 212.197173 
L 174.442506 213.053563 
L 174.420764 213.146056 
L 174.400964 213.216634 
L 174.38144 213.276123 
L 174.35921 213.336015 
L 174.329133 213.416236 
L 174.279047 213.560316 
L 174.198687 213.808911 
L 174.075108 214.206717 
L 173.878925 214.815835 
L 173.583918 215.775427 
L 173.323526 216.644709 
L 172.965709 217.846084 
L 172.845314 218.279613 
L 172.326053 220.235686 
L 172.104271 221.210999 
L 172.071482 221.378491 
" clip-path="url(#p0e4be5d671)" style="fill: none; stroke: #d55e00; stroke-opacity: 0.4; stroke-linecap: square"/>
   </g>
   <g id="line2d_18">
    <path d="M 112.494526 57.393878 
L 113.360489 57.819154 
L 115.063197 58.643544 
L 116.670141 59.428913 
L 118.54368 60.151404 
L 125.971853 61.744156 
L 130.972759 62.800305 
L 139.3276 64.390931 
L 141.064877 64.784969 
L 141.763783 64.911337 
L 142.345426 64.920828 
L 142.946536 64.893224 
L 143.694759 64.876974 
L 145.075828 65.03534 
L 146.73283 65.3841 
L 157.510779 82.139963 
L 167.630751 98.022788 
L 172.462396 104.233822 
L 175.593157 114.156723 
L 175.501575 114.606879 
L 174.800849 116.201605 
L 174.055314 122.939565 
L 177.792258 127.801402 
L 182.400408 132.776857 
L 190.488093 142.099426 
L 195.249345 147.902506 
L 195.823679 148.666132 
L 195.829047 148.694588 
L 195.829005 148.697723 
L 195.828999 148.698133 
L 195.828998 148.698183 
L 195.843767 148.668016 
L 196.190372 148.317278 
L 196.028517 154.525373 
L 196.006348 155.530113 
L 196.006348 155.530113 
L 196.006348 155.530113 
L 196.006348 155.530113 
L 196.006348 155.530113 
L 196.006348 155.530113 
L 196.006348 155.530113 
" clip-path="url(#p0e4be5d671)" style="fill: none; stroke: #0072b2; stroke-opacity: 0.45; stroke-linecap: square"/>
   </g>
   <g id="line2d_19">
    <path d="M 112.494526 57.393878 
L 115.174422 58.528592 
L 117.729286 59.010502 
L 108.744733 55.513434 
L 100.1522 51.686257 
L 94.174596 48.455295 
L 94.334411 48.083388 
L 98.133772 49.450689 
L 97.664122 49.05786 
L 97.70101 48.921855 
L 100.035072 48.928677 
L 108.747783 48.03937 
L 103.721879 46.447914 
L 106.200379 47.724787 
L 113.320232 50.951426 
L 128.725572 59.144362 
L 142.48669 67.450287 
L 157.546738 77.197076 
L 167.690186 86.664428 
L 173.304375 93.564749 
L 177.82421 100.814721 
L 186.868688 110.498922 
L 196.049812 117.623333 
L 204.829941 124.68805 
L 208.38709 128.430617 
L 207.664263 130.167574 
L 205.989437 133.84108 
L 202.578216 141.301447 
L 200.916531 144.742645 
L 200.3757 145.818059 
L 200.200008 146.167391 
L 200.155023 146.258381 
L 200.062114 146.521058 
L 198.573626 149.913909 
L 196.070107 155.390643 
L 196.006349 155.530115 
L 196.006348 155.530114 
L 196.006348 155.530113 
L 196.006348 155.530113 
L 196.006348 155.530113 
L 196.006348 155.530113 
" clip-path="url(#p0e4be5d671)" style="fill: none; stroke: #d55e00; stroke-opacity: 0.4; stroke-linecap: square"/>
   </g>
   <g id="line2d_20">
    <path d="M 107.283194 37.627287 
L 107.30627 37.661111 
L 106.887231 37.69779 
L 105.535868 37.722653 
L 103.962146 37.727338 
L 104.310007 37.745153 
L 105.126852 37.738982 
L 105.312293 37.620369 
L 110.615691 37.096661 
L 115.759874 36.567511 
L 118.076849 36.296073 
L 118.865527 36.204637 
L 119.109645 36.175917 
L 119.20803 36.163452 
L 119.293205 36.152528 
L 119.468083 36.147097 
L 120.117005 36.194487 
L 121.663875 36.349554 
L 123.805236 36.549502 
L 126.889666 36.470912 
L 128.614111 36.606432 
L 131.969042 36.465303 
L 132.666892 36.364784 
L 132.247326 36.25771 
L 132.258482 36.220014 
L 132.391724 36.198206 
L 132.538153 36.174765 
L 132.731921 36.143927 
L 133.185422 36.058044 
L 134.400227 35.801399 
L 136.548065 35.342664 
L 137.957827 34.844288 
L 140.10382 34.050637 
L 146.751234 33.07801 
L 151.606578 32.865589 
L 154.690297 32.813357 
L 158.650663 32.239138 
L 160.375632 31.912401 
L 160.878957 31.726539 
L 160.954851 31.592573 
L 161.051469 31.535816 
" clip-path="url(#p0e4be5d671)" style="fill: none; stroke: #0072b2; stroke-opacity: 0.45; stroke-linecap: square"/>
   </g>
   <g id="line2d_21">
    <path d="M 107.283194 37.627287 
L 106.412484 37.755686 
L 104.853909 37.867446 
L 104.006558 37.928201 
L 103.586077 37.958342 
L 103.378448 37.973214 
L 103.566216 37.959343 
L 111.319157 37.8421 
L 111.718494 37.747576 
L 110.206821 37.661808 
L 113.725853 37.346718 
L 122.14648 36.633038 
L 126.99891 36.109073 
L 129.550925 35.766149 
L 130.749183 35.536825 
L 132.141002 35.300428 
L 134.990925 34.914487 
L 139.15164 34.386801 
L 140.924161 34.184212 
L 141.723744 34.115799 
L 142.20683 34.092457 
L 142.628275 34.069084 
L 143.046871 34.02119 
L 143.409171 33.944758 
L 143.618423 33.859096 
L 143.633371 33.794284 
L 143.55677 33.770583 
L 143.534789 33.799733 
L 143.64628 33.885749 
L 143.906754 34.015868 
L 144.365455 34.151088 
L 146.402383 34.008644 
L 150.419254 33.510113 
L 155.145157 32.809701 
L 159.042472 32.149763 
L 161.173445 31.731439 
L 162.12964 31.516439 
L 162.494008 31.42019 
L 162.408007 31.403892 
L 161.892973 31.449494 
L 161.051469 31.535816 
" clip-path="url(#p0e4be5d671)" style="fill: none; stroke: #d55e00; stroke-opacity: 0.4; stroke-linecap: square"/>
   </g>
   <g id="line2d_22">
    <path d="M 169.515484 70.223826 
L 170.376992 70.213123 
L 170.826719 70.225072 
L 170.670318 70.245147 
L 170.515129 70.265572 
L 170.890607 70.265134 
L 172.119562 70.266371 
L 174.272327 70.294395 
L 174.779636 70.278512 
L 175.933656 70.296947 
L 176.50768 70.339302 
L 176.798492 70.41325 
L 177.954384 70.472848 
L 179.218686 70.520111 
L 180.951357 70.471312 
L 181.508261 70.440592 
L 181.506588 70.433479 
L 181.463655 70.434389 
L 181.431334 70.438335 
L 181.403752 70.443288 
L 181.379107 70.448708 
L 181.355221 70.453962 
L 181.332005 70.459068 
L 181.309329 70.464055 
L 181.287018 70.468962 
L 181.264848 70.473838 
L 181.242548 70.478742 
L 181.219792 70.483747 
L 181.196208 70.488934 
L 181.17139 70.494392 
L 181.144972 70.500203 
L 181.116877 70.506382 
L 181.088132 70.512704 
L 181.063347 70.518155 
L 181.057479 70.519445 
L 181.11182 70.507494 
L 181.319012 70.461925 
L 181.792883 70.357705 
L 182.26015 70.254937 
L 182.477932 70.207039 
L 182.572352 70.186273 
" clip-path="url(#p0e4be5d671)" style="fill: none; stroke: #0072b2; stroke-opacity: 0.45; stroke-linecap: square"/>
   </g>
   <g id="line2d_23">
    <path d="M 169.515484 70.223826 
L 170.370802 70.217136 
L 170.578648 70.217018 
L 170.878757 70.202851 
L 173.083333 70.18366 
L 174.516584 70.143754 
L 175.32066 70.129623 
L 175.818318 70.132627 
L 176.20256 70.143003 
L 176.552982 70.156605 
L 176.891498 70.172143 
L 177.142554 70.19653 
L 176.485458 70.273718 
L 174.904879 70.440885 
L 176.31098 70.504447 
L 178.168934 70.513774 
L 178.900009 70.530902 
L 179.136845 70.54771 
L 179.167233 70.566548 
L 179.136905 70.587317 
L 179.102632 70.610344 
L 179.079355 70.636108 
L 179.077729 70.665581 
L 179.110318 70.700882 
L 179.195316 70.745562 
L 179.361428 70.803867 
L 179.653944 70.877884 
L 180.124009 70.964089 
L 180.778057 71.056588 
L 181.347102 71.018851 
L 181.61759 70.791547 
L 181.524869 70.608165 
L 181.27739 70.515946 
L 181.201732 70.491188 
L 181.207495 70.486451 
L 181.244601 70.478291 
L 181.357045 70.45356 
L 181.67889 70.382776 
L 182.232789 70.260954 
L 182.482516 70.206031 
L 182.572352 70.186273 
" clip-path="url(#p0e4be5d671)" style="fill: none; stroke: #d55e00; stroke-opacity: 0.4; stroke-linecap: square"/>
   </g>
   <g id="line2d_24">
    <path d="M 102.870578 49.281072 
L 102.715091 49.238471 
L 102.426089 49.187925 
L 102.043309 49.111823 
L 101.566341 49.009589 
L 101.022805 48.871121 
L 103.93518 48.271381 
L 112.108033 47.806425 
L 116.663509 47.859292 
L 124.527058 46.958137 
L 128.802919 46.221005 
L 131.985538 45.854215 
L 133.400343 45.589668 
L 133.324989 45.20838 
L 138.3526 44.743364 
L 137.311476 44.117663 
L 138.178733 43.995966 
L 143.546295 43.55873 
L 146.018302 43.461677 
L 147.143262 43.428772 
L 161.072066 43.31953 
L 172.178104 43.49458 
L 175.935313 43.796454 
L 177.955775 43.861716 
L 178.383661 43.773581 
L 178.380438 43.673426 
L 181.067196 43.769624 
L 179.877047 43.601344 
L 182.352323 43.493585 
L 182.563782 43.377019 
L 182.313536 43.320234 
L 182.755758 43.33163 
L 184.084236 43.423361 
L 187.228572 43.721813 
L 193.563903 44.337795 
L 196.32329 44.455117 
L 200.305153 44.698036 
L 202.427747 44.822592 
L 202.974696 44.859709 
L 203.034363 44.86779 
L 203.037194 44.870399 
" clip-path="url(#p0e4be5d671)" style="fill: none; stroke: #0072b2; stroke-opacity: 0.45; stroke-linecap: square"/>
   </g>
   <g id="line2d_25">
    <path d="M 102.870578 49.281072 
L 102.872947 49.273027 
L 102.628869 49.230021 
L 102.387069 49.107091 
L 103.818316 48.271884 
L 107.776028 46.506719 
L 109.761672 44.937745 
L 110.724592 43.725672 
L 113.393455 43.880152 
L 113.114174 43.696025 
L 114.695992 42.587839 
L 115.352562 41.315843 
L 118.634849 40.782175 
L 123.288585 40.487763 
L 127.634168 39.310568 
L 131.682451 38.712566 
L 133.264479 39.054343 
L 134.866481 39.583574 
L 137.08228 40.146681 
L 140.608895 40.704167 
L 146.154122 41.219771 
L 150.786736 41.726362 
L 151.118395 42.224932 
L 148.446398 42.220106 
L 148.18412 42.169751 
L 152.230207 42.336938 
L 155.313291 42.490277 
L 154.499194 42.367377 
L 158.35178 42.563245 
L 166.447823 43.184632 
L 173.553961 43.72517 
L 177.811346 44.070942 
L 180.787544 44.257014 
L 183.887358 44.399295 
L 184.451098 44.426235 
L 186.714149 44.542559 
L 194.685539 44.954826 
L 195.109791 45.015722 
L 195.21569 45.031093 
L 196.054184 44.724061 
L 203.037194 44.870399 
" clip-path="url(#p0e4be5d671)" style="fill: none; stroke: #d55e00; stroke-opacity: 0.4; stroke-linecap: square"/>
   </g>
   <g id="line2d_26">
    <path d="M 64.230199 90.147691 
L 69.643701 87.302901 
L 74.289693 84.938252 
L 77.981959 83.232354 
L 82.101016 81.907827 
L 85.753846 80.913212 
L 87.260643 80.408302 
L 91.480858 82.17652 
L 98.857454 86.507072 
L 106.172395 90.096861 
L 110.963451 91.78722 
L 113.650357 92.673081 
L 119.000377 94.49851 
L 120.272536 94.974072 
L 119.693415 94.799894 
L 121.216214 94.445589 
L 133.939226 96.930108 
L 134.919785 97.311256 
L 145.634051 96.942533 
L 147.6258 97.270723 
L 146.80306 97.583866 
L 151.006866 98.379192 
L 153.208929 100.30618 
L 170.146839 104.290291 
L 186.341273 107.536633 
L 190.036655 107.61383 
L 192.551473 107.620362 
L 196.769588 107.636925 
L 202.567918 107.293009 
L 210.870836 107.170233 
L 213.55232 106.483314 
L 217.185115 106.354774 
L 217.128916 106.375551 
L 216.920436 106.376887 
L 216.628955 106.382969 
L 216.226028 106.399345 
L 215.735868 106.420779 
L 215.165141 106.438672 
L 214.699817 106.464501 
L 214.248661 106.497021 
L 213.924144 106.529633 
" clip-path="url(#p0e4be5d671)" style="fill: none; stroke: #0072b2; stroke-opacity: 0.45; stroke-linecap: square"/>
   </g>
   <g id="line2d_27">
    <path d="M 64.230199 90.147691 
L 70.510893 85.331001 
L 71.083912 85.854654 
L 76.016298 85.340616 
L 79.588586 84.630234 
L 83.965404 84.257465 
L 89.261817 84.164005 
L 92.563565 83.064563 
L 90.494897 83.282506 
L 89.296597 82.92197 
L 89.256015 82.621563 
L 89.754362 82.259294 
L 95.968487 82.075984 
L 113.155862 81.702663 
L 127.957783 80.782572 
L 137.92888 82.44983 
L 146.846127 86.341275 
L 159.156586 90.434385 
L 169.214211 94.549329 
L 181.495414 99.127913 
L 187.953391 102.730486 
L 188.914185 105.202453 
L 188.093197 107.085856 
L 190.380355 109.858469 
L 191.81185 111.612069 
L 192.180674 111.989203 
L 192.405126 112.006369 
L 193.369507 111.885352 
L 197.298267 111.156162 
L 204.39158 110.702745 
L 211.48399 109.861458 
L 217.778797 108.845954 
L 221.605055 107.590208 
L 223.131874 106.56922 
L 222.099475 106.456782 
L 219.440858 106.552464 
L 218.806357 106.450724 
L 218.887184 106.468304 
L 218.364188 106.638822 
L 215.627742 107.050862 
L 213.924144 106.529633 
" clip-path="url(#p0e4be5d671)" style="fill: none; stroke: #d55e00; stroke-opacity: 0.4; stroke-linecap: square"/>
   </g>
   <g id="line2d_28">
    <path d="M 204.690509 110.769534 
L 205.195518 110.723522 
L 206.299269 110.448006 
L 209.022346 109.910803 
L 213.869225 109.115079 
L 216.804304 108.728577 
L 219.850026 108.387417 
L 221.98873 108.314219 
L 224.505056 108.91986 
L 223.479808 110.233669 
L 225.488001 111.030906 
L 230.413789 114.095218 
L 241.492543 121.014167 
L 254.496451 127.073224 
L 263.558322 131.699359 
L 263.389369 131.629708 
L 266.470169 133.707161 
L 286.107779 148.665006 
L 292.385768 154.508794 
L 293.806537 157.477409 
L 293.55545 158.153645 
L 294.191139 158.992613 
L 296.291544 161.662501 
L 296.363517 163.153794 
L 300.331634 168.788633 
L 307.127952 180.011405 
L 312.892909 190.546155 
L 314.624481 196.796586 
L 317.639517 206.817801 
L 319.78541 214.20809 
L 319.455512 222.110266 
L 319.147533 221.904183 
L 319.404646 221.099794 
L 319.197888 224.018132 
L 318.783058 226.693499 
L 318.358242 228.436457 
L 318.984667 232.292615 
L 319.650079 236.581251 
L 320.065772 240.787144 
L 320.115871 242.470356 
L 320.112354 243.512983 
" clip-path="url(#p0e4be5d671)" style="fill: none; stroke: #0072b2; stroke-opacity: 0.45; stroke-linecap: square"/>
   </g>
   <g id="line2d_29">
    <path d="M 204.690509 110.769534 
L 205.233919 110.642702 
L 208.695517 107.789968 
L 215.076835 108.654282 
L 220.594454 111.178976 
L 220.072313 112.650679 
L 219.862705 112.618917 
L 220.948038 113.17854 
L 224.893287 115.094744 
L 228.100445 116.171814 
L 219.058862 113.319819 
L 195.633931 106.260974 
L 169.579867 98.398139 
L 150.89064 92.617864 
L 154.428732 94.125612 
L 164.387555 98.92772 
L 184.388927 109.475115 
L 219.03235 126.20211 
L 253.213072 143.433575 
L 276.675343 157.775006 
L 282.121357 162.672445 
L 286.155483 166.804287 
L 290.199042 171.380957 
L 293.066756 173.59272 
L 297.01503 178.203282 
L 300.458609 182.529855 
L 302.441775 185.086249 
L 304.412806 187.210501 
L 307.157525 190.420237 
L 309.914308 193.308777 
L 312.820131 196.279418 
L 315.074299 202.088123 
L 319.724223 210.533607 
L 320.302926 216.423476 
L 319.797808 219.46155 
L 318.95982 221.913022 
L 318.476996 226.483395 
L 319.123427 230.297293 
L 319.890038 234.842962 
L 320.156273 240.385426 
L 320.112354 243.512983 
" clip-path="url(#p0e4be5d671)" style="fill: none; stroke: #d55e00; stroke-opacity: 0.4; stroke-linecap: square"/>
   </g>
   <g id="line2d_30">
    <path d="M 106.458136 36.448918 
L 106.202188 36.441988 
L 106.085908 36.400243 
L 105.903773 36.381306 
L 105.697038 36.370314 
L 105.516308 36.354292 
L 105.355679 36.326227 
L 105.200865 36.278277 
L 105.035148 36.207925 
L 104.902937 36.146436 
L 107.27128 36.098859 
L 111.667353 36.064714 
L 115.634304 36.089619 
L 119.126701 35.954969 
L 122.941646 35.813719 
L 125.896626 35.835236 
L 134.796542 35.712608 
L 135.828709 35.886809 
L 136.298118 36.063312 
L 140.228129 35.972403 
L 141.729221 35.914688 
L 142.809858 35.880156 
L 144.29036 35.775968 
L 146.19542 35.641184 
L 150.148713 35.533593 
L 153.79226 35.529083 
L 154.050148 35.725365 
L 158.463594 35.614492 
L 160.534536 35.466513 
L 161.670079 35.371833 
L 161.569021 35.336542 
L 160.839134 35.332116 
L 160.261099 35.332727 
L 159.979622 35.333217 
L 160.062104 35.317068 
L 160.947211 35.275267 
L 160.944768 35.265207 
L 160.664792 35.265195 
L 160.863306 35.254723 
L 161.367476 35.238883 
L 161.770431 35.229544 
" clip-path="url(#p0e4be5d671)" style="fill: none; stroke: #0072b2; stroke-opacity: 0.45; stroke-linecap: square"/>
   </g>
   <g id="line2d_31">
    <path d="M 106.458136 36.448918 
L 106.029832 36.305021 
L 105.358804 36.089837 
L 104.984667 35.989046 
L 104.858276 35.996233 
L 104.532231 36.087655 
L 103.9933 36.231642 
L 103.688485 36.270671 
L 103.239841 36.357223 
L 102.468686 36.544442 
L 101.686153 36.798249 
L 101.03513 36.97944 
L 100.648937 37.099698 
L 100.433707 37.171382 
L 100.268896 37.241325 
L 100.125666 37.2987 
L 100.010866 37.353355 
L 100.048983 37.407204 
L 102.83275 37.454882 
L 111.340407 37.489135 
L 119.607198 37.530517 
L 127.70131 37.545511 
L 133.446769 37.495254 
L 138.663176 37.329661 
L 148.407304 37.18664 
L 159.413556 36.954236 
L 162.61435 36.662838 
L 168.010587 36.328219 
L 170.565214 35.888779 
L 170.0837 35.73631 
L 170.258749 35.330578 
L 170.19617 35.227362 
L 169.939784 35.208268 
L 169.297309 35.193957 
L 168.467753 35.206021 
L 168.024262 35.211153 
L 167.790962 35.211007 
L 166.191275 35.212695 
L 164.007045 35.202837 
L 162.387252 35.213224 
L 161.770431 35.229544 
" clip-path="url(#p0e4be5d671)" style="fill: none; stroke: #d55e00; stroke-opacity: 0.4; stroke-linecap: square"/>
   </g>
   <g id="line2d_32">
    <path d="M 161.025213 63.44494 
L 160.486508 63.450676 
L 159.855353 63.464913 
L 159.111326 63.478204 
L 158.230364 63.48224 
L 157.203346 63.471294 
L 156.05303 63.443708 
L 154.845845 63.405079 
L 154.063659 63.361708 
L 154.544997 63.281182 
L 155.78445 63.587795 
L 160.435504 65.686181 
L 167.735245 66.988495 
L 174.393079 70.063779 
L 177.156603 71.81283 
L 177.797847 72.341066 
L 177.750933 72.46722 
L 179.375658 72.726321 
L 182.431283 73.157688 
L 184.864012 73.512435 
L 186.289813 73.743432 
L 186.936641 73.875681 
L 187.271081 73.972588 
L 187.598059 74.093844 
L 188.217689 74.338327 
L 189.993353 75.044636 
L 193.471616 76.714236 
L 201.492605 81.86497 
L 208.025191 85.330525 
L 215.900829 89.690786 
L 218.872643 90.631945 
L 218.757499 90.068483 
L 219.182675 90.141563 
L 221.312577 91.596609 
L 222.068154 92.00918 
L 221.52456 91.352822 
L 221.959806 91.589915 
L 226.828437 95.362596 
L 232.017712 99.181376 
L 236.550553 102.563624 
L 237.832931 103.516309 
" clip-path="url(#p0e4be5d671)" style="fill: none; stroke: #0072b2; stroke-opacity: 0.45; stroke-linecap: square"/>
   </g>
   <g id="line2d_33">
    <path d="M 161.025213 63.44494 
L 159.618261 63.650962 
L 156.369146 63.555704 
L 158.910949 63.359454 
L 159.479178 63.337613 
L 159.387955 63.371955 
L 159.259721 63.420738 
L 159.068647 63.495275 
L 158.78195 63.608234 
L 158.376275 63.767942 
L 157.855131 63.970732 
L 157.251858 64.195982 
L 156.537564 64.398854 
L 154.535749 64.073831 
L 150.504982 63.102244 
L 146.323917 62.030955 
L 144.303878 61.398468 
L 143.190195 61.011586 
L 142.769845 60.897538 
L 143.594929 61.347003 
L 145.999884 62.521654 
L 150.119065 64.442567 
L 156.697479 67.367754 
L 166.704941 71.66143 
L 177.84971 76.265908 
L 188.254999 80.36966 
L 196.779032 83.783222 
L 207.068708 88.473473 
L 219.686914 94.256353 
L 221.891036 95.541673 
L 221.685216 95.455512 
L 221.570844 95.547406 
L 221.492819 95.545626 
L 221.637017 95.226407 
L 222.148139 95.536597 
L 225.160734 96.617655 
L 225.716855 96.872017 
L 229.983975 99.68024 
L 233.475001 101.08013 
L 235.176312 101.633013 
L 237.832931 103.516309 
" clip-path="url(#p0e4be5d671)" style="fill: none; stroke: #d55e00; stroke-opacity: 0.4; stroke-linecap: square"/>
   </g>
   <g id="line2d_34">
    <path d="M 88.857938 65.556965 
L 89.277727 65.022747 
L 89.803216 64.396378 
L 91.150312 63.898901 
L 92.908354 63.395672 
L 93.087668 62.357539 
L 93.391268 61.953888 
L 94.042273 61.730685 
L 94.493979 61.600555 
L 94.667772 61.507983 
L 94.742741 61.416537 
L 99.832688 59.664449 
L 108.457093 56.583291 
L 114.274617 54.672862 
L 115.410753 54.303149 
L 118.045981 53.390564 
L 121.453837 52.125932 
L 124.325808 51.03776 
L 126.305029 50.318499 
L 128.88345 49.392455 
L 133.492018 47.853914 
L 139.424649 45.893017 
L 145.096281 43.911556 
L 150.413122 41.985536 
L 152.195998 41.294773 
L 152.654978 41.115625 
L 152.954789 40.996483 
L 153.323018 40.859767 
L 154.095931 40.60063 
L 156.221591 39.925797 
L 161.679089 38.225249 
L 170.309751 35.688526 
L 177.542735 33.668252 
L 180.968182 32.643695 
L 181.248002 32.532213 
L 181.335774 32.630922 
L 181.641145 32.771662 
L 182.256687 32.963673 
L 182.890345 33.091772 
L 183.294623 32.948223 
L 183.621403 32.813326 
" clip-path="url(#p0e4be5d671)" style="fill: none; stroke: #0072b2; stroke-opacity: 0.45; stroke-linecap: square"/>
   </g>
   <g id="line2d_35">
    <path d="M 88.857938 65.556965 
L 89.669671 65.352116 
L 90.678507 64.537864 
L 91.83662 63.604711 
L 93.140985 63.112204 
L 93.65791 62.982736 
L 94.168714 62.891981 
L 102.810986 59.817232 
L 114.750049 54.630894 
L 125.600963 50.591018 
L 133.88882 50.520081 
L 143.917721 50.654602 
L 146.376418 49.386146 
L 144.444626 48.197395 
L 144.503317 47.36237 
L 149.255906 47.219581 
L 154.354691 47.686772 
L 160.790776 49.591474 
L 165.936421 51.473831 
L 168.484624 51.951791 
L 170.088249 51.707976 
L 171.662385 50.999108 
L 173.208169 49.823068 
L 170.731188 46.493201 
L 165.889605 42.686772 
L 163.512807 41.487046 
L 162.718997 41.667058 
L 162.171799 41.872498 
L 163.750349 41.469081 
L 165.82325 40.854497 
L 168.819354 39.871286 
L 173.182691 38.373239 
L 177.648694 36.621886 
L 183.123234 34.506338 
L 186.542703 33.33186 
L 186.18723 33.140288 
L 185.950739 33.042086 
L 185.774367 32.985568 
L 185.139587 33.051355 
L 184.518049 32.818099 
L 183.621403 32.813326 
" clip-path="url(#p0e4be5d671)" style="fill: none; stroke: #d55e00; stroke-opacity: 0.4; stroke-linecap: square"/>
   </g>
   <g id="line2d_36">
    <path d="M 166.462566 106.214832 
L 166.893444 106.365434 
L 165.888427 106.080166 
L 165.279934 105.887072 
L 164.171835 105.593145 
L 165.270149 106.085992 
L 170.690482 108.180134 
L 177.884923 111.634705 
L 187.064203 115.49939 
L 194.486239 117.486735 
L 199.024561 118.602895 
L 199.716817 118.893549 
L 200.666899 119.450906 
L 199.978165 119.472264 
L 198.886168 119.272247 
L 200.500657 120.021148 
L 205.445522 122.247933 
L 209.047405 123.345316 
L 212.038093 124.777775 
L 215.999584 127.23781 
L 221.689724 129.87803 
L 227.066007 132.874202 
L 230.70582 136.22428 
L 234.755083 140.327484 
L 247.484642 149.513322 
L 255.228567 155.04655 
L 260.707905 159.586922 
L 269.686483 168.339824 
L 283.465924 181.263488 
L 287.303946 185.204748 
L 289.105593 187.541584 
L 290.001206 188.534912 
L 290.218542 188.873886 
L 290.039246 188.821039 
L 290.01619 188.830039 
L 290.01775 188.836689 
L 290.022975 188.846436 
L 290.032653 188.86332 
L 290.048447 188.889653 
L 290.072976 188.928886 
L 290.110155 188.986113 
" clip-path="url(#p0e4be5d671)" style="fill: none; stroke: #0072b2; stroke-opacity: 0.45; stroke-linecap: square"/>
   </g>
   <g id="line2d_37">
    <path d="M 166.462566 106.214832 
L 165.605041 105.755159 
L 165.455534 105.86735 
L 167.80903 107.142683 
L 178.817276 111.011391 
L 192.471844 115.914584 
L 198.500678 117.372561 
L 199.771609 117.370978 
L 199.986829 116.587856 
L 201.501506 115.983069 
L 204.031435 115.53675 
L 206.398815 115.377164 
L 210.47387 116.29749 
L 214.528577 117.247602 
L 217.69182 118.150506 
L 220.037697 118.986178 
L 221.817925 120.041967 
L 222.619142 120.703108 
L 222.912109 121.1038 
L 222.974526 121.333989 
L 222.942017 121.470277 
L 222.889885 121.582985 
L 222.881509 121.738308 
L 223.507083 122.448308 
L 228.562415 127.204548 
L 238.086309 136.712196 
L 241.962618 143.564755 
L 251.427773 152.387768 
L 258.967943 160.418437 
L 265.394154 167.687109 
L 268.747941 171.079512 
L 272.709654 175.208062 
L 275.721325 178.313459 
L 283.30946 185.454812 
L 291.617725 194.38977 
L 292.416041 195.09701 
L 291.862643 193.341597 
L 290.269772 190.449997 
L 289.721561 189.391073 
L 290.369675 189.659606 
L 290.110155 188.986113 
" clip-path="url(#p0e4be5d671)" style="fill: none; stroke: #d55e00; stroke-opacity: 0.4; stroke-linecap: square"/>
   </g>
   <g id="line2d_38"/>
   <g id="line2d_39"/>
   <g id="patch_3">
    <path d="M 51.426563 254.118437 
L 51.426563 20.798437 
" style="fill: none; stroke: #000000; stroke-width: 0.8; stroke-linejoin: miter; stroke-linecap: square"/>
   </g>
   <g id="patch_4">
    <path d="M 51.426563 254.118437 
L 333.106562 254.118437 
" style="fill: none; stroke: #000000; stroke-width: 0.8; stroke-linejoin: miter; stroke-linecap: square"/>
   </g>
   <g id="text_16">
    <text style="font-size: 10px; font-family: 'DejaVu Sans', 'Bitstream Vera Sans', 'Computer Modern Sans Serif', 'Lucida Grande', 'Verdana', 'Geneva', 'Lucid', 'Arial', 'Helvetica', 'Avant Garde', sans-serif; text-anchor: middle" x="192.266563" y="14.798437" transform="rotate(-0 192.266563 14.798437)">Economical vs detour paths</text>
   </g>
   <g id="legend_1">
    <g id="line2d_40">
     <path d="M 58.626563 230.712187 
L 66.626563 230.712187 
L 74.626563 230.712187 
" style="fill: none; stroke: #0072b2; stroke-width: 1.5; stroke-linecap: square"/>
    </g>
    <g id="text_17">
     <text style="font-size: 8px; font-family: 'DejaVu Sans', 'Bitstream Vera Sans', 'Computer Modern Sans Serif', 'Lucida Grande', 'Verdana', 'Geneva', 'Lucid', 'Arial', 'Helvetica', 'Avant Garde', sans-serif; text-anchor: start" x="81.026563" y="233.512187" transform="rotate(-0 81.026563 233.512187)">economical</text>
    </g>
    <g id="line2d_41">
     <path d="M 58.626563 242.454687 
L 66.626563 242.454687 
L 74.626563 242.454687 
" style="fill: none; stroke: #d55e00; stroke-width: 1.5; stroke-linecap: square"/>
    </g>
    <g id="text_18">
     <text style="font-size: 8px; font-family: 'DejaVu Sans', 'Bitstream Vera Sans', 'Computer Modern Sans Serif', 'Lucida Grande', 'Verdana', 'Geneva', 'Lucid', 'Arial', 'Helvetica', 'Avant Garde', sans-serif; text-anchor: start" x="81.026563" y="245.254687" transform="rotate(-0 81.026563 245.254687)">detour</text>
    </g>
   </g>
  </g>
 </g>
 <defs>
  <clipPath id="p0e4be5d671">
   <rect x="51.426563" y="20.798437" width="281.68" height="233.32"/>
  </clipPath>
 </defs>
</svg>
